<svg version="1.1" xmlns="http://www.w3.org/2000/svg" viewBox="0 0 144.2832403550504 211.44468940222632" width="144.2832403550504" height="211.44468940222632" class="excalidraw-svg">
  <!-- svg-source:excalidraw -->
  
  <defs>
    <style class="style-fonts">
      @font-face {
        font-family: "Virgil";
        src: url("https://excalidraw.com/Virgil.woff2");
      }
      @font-face {
        font-family: "Cascadia";
        src: url("https://excalidraw.com/Cascadia.woff2");
      }
      @font-face {
        font-family: "Assistant";
        src: url("https://excalidraw.com/Assistant-Regular.woff2");
      }
    </style>
    
  </defs>
  <rect x="0" y="0" width="144.2832403550504" height="211.44468940222632" fill="#ffffff"/><g stroke-linecap="round"><g transform="translate(31.42799230152292 37.24196880077102) rotate(0 39.970703125 75.013671875)" fill-rule="evenodd"><path d="M2.17 -1.77 C3.9 -2.87, 2.13 -12.02, 8.21 -7.07 C14.3 -2.12, 32.59 15.89, 38.67 27.94 C44.76 39.99, 34.48 44.75, 44.7 65.23 C54.92 85.72, 92.2 135.15, 100.01 150.86 C107.81 166.58, 101.49 169.08, 91.54 159.51 C81.59 149.93, 52.52 101.48, 40.32 93.43 C28.13 85.39, 23.47 100.99, 18.35 111.24 C13.23 121.48, 12.52 147.38, 9.61 154.9 C6.69 162.42, 1.25 165.17, 0.84 156.36 C0.44 147.54, 3.67 113.95, 7.15 102 C10.63 90.04, 22.3 92.21, 21.71 84.63 C21.12 77.04, 8.52 60.03, 3.61 56.46 C-1.3 52.9, -7.54 59.96, -7.75 63.24 C-7.95 66.52, 1.91 73.66, 2.37 76.15 C2.83 78.65, -1.6 81.7, -4.97 78.23 C-8.34 74.75, -22.36 61.73, -17.83 55.29 C-13.31 48.86, 15.89 44.09, 22.19 39.61 C28.48 35.13, 23.92 34.76, 19.95 28.42 C15.98 22.08, 1.72 6.07, -1.64 1.57" stroke="none" stroke-width="0" fill="#ffffff" fill-rule="evenodd"/><path d="M1.2 0.69 C2.25 -0.64, 1.14 -11.2, 7.16 -7 C13.18 -2.8, 30.85 13.58, 37.3 25.87 C43.76 38.16, 35.51 45.95, 45.91 66.74 C56.3 87.53, 92.25 135.42, 99.67 150.6 C107.08 165.77, 100.56 167.54, 90.4 157.79 C80.24 148.03, 50.79 99.92, 38.7 92.08 C26.61 84.25, 22.59 100.21, 17.86 110.79 C13.12 121.37, 13.61 148.13, 10.3 155.56 C6.99 162.99, -1.57 163.89, -2.02 155.39 C-2.47 146.88, 3.75 116.4, 7.6 104.53 C11.44 92.66, 21.5 91.91, 21.04 84.18 C20.58 76.45, 9.17 61.48, 4.83 58.16 C0.49 54.84, -4.51 61.1, -5.01 64.25 C-5.51 67.4, 1.75 74.31, 1.82 77.06 C1.88 79.8, -1.15 84.16, -4.64 80.73 C-8.14 77.3, -23.8 62.89, -19.16 56.45 C-14.51 50.01, 16.65 47.33, 23.22 42.1 C29.79 36.87, 23.96 32.05, 20.26 25.1 C16.57 18.15, 4.35 4.49, 1.06 0.43 M0.37 0.01 C1.14 -1.16, -0.06 -13.36, 5.92 -8.85 C11.9 -4.34, 29.58 14.36, 36.26 27.08 C42.94 39.8, 35.65 46.82, 46 67.49 C56.36 88.16, 91.26 136.22, 98.39 151.12 C105.51 166.01, 98.69 166.37, 88.75 156.87 C78.81 147.37, 50.77 101.92, 38.74 94.14 C26.72 86.36, 21.07 99.64, 16.61 110.19 C12.16 120.75, 15.05 149.49, 12.01 157.46 C8.97 165.42, -0.91 167.22, -1.63 158.01 C-2.35 148.8, 4.06 114.52, 7.68 102.2 C11.29 89.88, 21 91.64, 20.05 84.11 C19.1 76.58, 6.2 60.32, 2 57.04 C-2.2 53.75, -5.07 61.13, -5.12 64.4 C-5.18 67.68, 1.96 73.77, 1.67 76.7 C1.38 79.64, -3.2 85.22, -6.86 82.02 C-10.52 78.82, -25.63 64.02, -20.3 57.49 C-14.98 50.97, 18 48.33, 25.07 42.87 C32.14 37.41, 26.57 32.07, 22.13 24.74 C17.69 17.41, 2.18 3.01, -1.56 -1.13" stroke="#1e1e1e" stroke-width="2" fill="none"/></g></g><mask/><g stroke-linecap="round" transform="translate(23.51392980152292 55.20290630077102) rotate(0 13.3671875 12.804687499999993)"><path d="M11.68 -0.08 C14.34 -0.59, 17.79 0.83, 20.24 2.35 C22.69 3.87, 25.54 6.5, 26.37 9.02 C27.2 11.53, 26.38 14.94, 25.22 17.45 C24.06 19.97, 21.88 22.81, 19.39 24.13 C16.9 25.45, 13.15 25.93, 10.28 25.38 C7.42 24.83, 3.94 23.12, 2.21 20.84 C0.48 18.57, -0.27 14.58, -0.11 11.75 C0.06 8.92, 1.09 5.88, 3.22 3.87 C5.35 1.86, 11.02 0.32, 12.67 -0.29 C14.32 -0.9, 13.1 -0.1, 13.09 0.22 M11.79 0.74 C14.32 0.17, 18.1 0.05, 20.45 1.45 C22.8 2.86, 25.03 6.39, 25.86 9.19 C26.69 11.99, 26.47 15.8, 25.42 18.26 C24.37 20.71, 22.09 22.79, 19.54 23.93 C17 25.07, 13.02 25.69, 10.14 25.08 C7.26 24.48, 3.83 22.52, 2.26 20.31 C0.69 18.1, 0.44 14.6, 0.71 11.84 C0.97 9.07, 1.94 5.58, 3.84 3.72 C5.73 1.86, 10.66 1.15, 12.08 0.68 C13.49 0.2, 12.43 0.81, 12.33 0.86" stroke="none" stroke-width="0" fill="#ffffff"/><path d="M11.64 0.23 C14.36 -0.12, 18.46 1.22, 20.9 2.64 C23.35 4.06, 25.55 6.22, 26.3 8.75 C27.05 11.28, 26.6 15.24, 25.39 17.79 C24.19 20.35, 21.66 22.88, 19.07 24.07 C16.49 25.26, 12.71 25.58, 9.88 24.94 C7.05 24.29, 3.71 22.29, 2.12 20.18 C0.52 18.07, -0.01 14.92, 0.3 12.29 C0.62 9.67, 2.01 6.39, 4 4.42 C5.98 2.45, 10.67 1.26, 12.22 0.5 C13.76 -0.26, 13.19 -0.3, 13.27 -0.12 M12.94 0.48 C15.57 0.17, 19.25 0.63, 21.63 2.39 C24.01 4.15, 26.64 8.14, 27.23 11.04 C27.81 13.94, 26.83 17.53, 25.14 19.81 C23.45 22.1, 19.74 24.04, 17.09 24.77 C14.45 25.51, 11.81 25.16, 9.27 24.23 C6.73 23.3, 3.31 21.39, 1.84 19.18 C0.38 16.96, 0.06 13.79, 0.5 10.96 C0.94 8.13, 2.26 4, 4.48 2.2 C6.69 0.4, 12.16 0.38, 13.79 0.16 C15.42 -0.07, 14.28 0.63, 14.26 0.86" stroke="#1e1e1e" stroke-width="2" fill="none"/></g><g stroke-linecap="round" transform="translate(36.15064855152292 13.82009380077102) rotate(311.0900781112439 7.369140625 5.05859375)"><path d="M2.53 0 C4.55 -0.44, 8.83 -0.42, 12.21 0 C15.56 0.27, 13.8 -0.05, 14.74 2.53 C15.3 3.62, 14.94 4.96, 14.74 7.59 C16.03 11.27, 15.94 11.89, 12.21 10.12 C9.12 10.97, 6.81 10.18, 2.53 10.12 C1.92 8.51, -0.43 7.84, 0 7.59 C-0.57 6.04, 0.28 3.92, 0 2.53 C-0.22 0.7, 2.6 1.91, 2.53 0" stroke="none" stroke-width="0" fill="#a5d8ff"/><path d="M2.53 0 C4.9 -0.09, 7.17 0.17, 12.21 0 M2.53 0 C5.4 -0.11, 8.64 -0.11, 12.21 0 M12.21 0 C13.46 -0.6, 14.13 -0.09, 14.74 2.53 M12.21 0 C13.46 0.63, 15.51 1.48, 14.74 2.53 M14.74 2.53 C14.87 4.34, 14.81 6.69, 14.74 7.59 M14.74 2.53 C14.64 4.16, 14.66 5.5, 14.74 7.59 M14.74 7.59 C15.62 9.63, 14.3 10.7, 12.21 10.12 M14.74 7.59 C13.73 9.07, 14.92 9.29, 12.21 10.12 M12.21 10.12 C9.47 9.84, 5.57 10.27, 2.53 10.12 M12.21 10.12 C9.15 10.24, 6.01 10.15, 2.53 10.12 M2.53 10.12 C0.35 9.55, 0.87 9.21, 0 7.59 M2.53 10.12 C0.42 9.24, 0.69 9.8, 0 7.59 M0 7.59 C-0.01 6.05, -0.03 4.63, 0 2.53 M0 7.59 C-0.12 6.48, -0.07 5.67, 0 2.53 M0 2.53 C-0.67 1.49, 0.75 0.59, 2.53 0 M0 2.53 C0.76 0.27, 1.9 -0.15, 2.53 0" stroke="#1e1e1e" stroke-width="2" fill="none"/></g><g stroke-linecap="round" transform="translate(17.02955480152292 35.19900005077102) rotate(311.0900781112439 7.369140625 5.05859375)"><path d="M2.53 0 C5.49 -0.4, 8.71 0.18, 12.21 0 C12.96 -0.89, 14.03 -0.72, 14.74 2.53 C15.04 3.56, 15.13 5.76, 14.74 7.59 C16.78 11.04, 12.42 8.83, 12.21 10.12 C9.15 10.34, 7.98 9.43, 2.53 10.12 C0.41 8.68, 2.35 10.09, 0 7.59 C0.35 6.66, 0 5.12, 0 2.53 C1.76 2.75, -0.98 -0.98, 2.53 0" stroke="none" stroke-width="0" fill="#a5d8ff"/><path d="M2.53 0 C4.74 0.16, 7.6 0.47, 12.21 0 M2.53 0 C5.54 -0.08, 8.61 -0.13, 12.21 0 M12.21 0 C13.29 -0.93, 14.36 1.39, 14.74 2.53 M12.21 0 C14.66 0.64, 15.83 0.3, 14.74 2.53 M14.74 2.53 C14.83 4.69, 14.77 6.56, 14.74 7.59 M14.74 2.53 C14.64 4.16, 14.83 6.08, 14.74 7.59 M14.74 7.59 C15.14 9.86, 13.02 9.94, 12.21 10.12 M14.74 7.59 C15.76 8.44, 14.13 10.33, 12.21 10.12 M12.21 10.12 C8.54 10.23, 5.83 10.54, 2.53 10.12 M12.21 10.12 C8.54 10.13, 4.73 10, 2.53 10.12 M2.53 10.12 C1.71 10.06, -0.37 8.51, 0 7.59 M2.53 10.12 C1.54 10.64, -0.04 8.21, 0 7.59 M0 7.59 C-0.05 6.45, -0.25 5.37, 0 2.53 M0 7.59 C-0.04 6.31, -0.06 4.88, 0 2.53 M0 2.53 C-0.09 1.43, 1.5 -0.5, 2.53 0 M0 2.53 C1.06 0.69, 0.97 0.98, 2.53 0" stroke="#1e1e1e" stroke-width="2" fill="none"/></g></svg>