<svg version="1.1" xmlns="http://www.w3.org/2000/svg" viewBox="0 0 153.7196370926369 147.17171253285983" width="153.7196370926369" height="147.17171253285983" class="excalidraw-svg">
  <!-- svg-source:excalidraw -->
  
  <defs>
    <style class="style-fonts">
      @font-face {
        font-family: "Virgil";
        src: url("https://excalidraw.com/Virgil.woff2");
      }
      @font-face {
        font-family: "Cascadia";
        src: url("https://excalidraw.com/Cascadia.woff2");
      }
      @font-face {
        font-family: "Assistant";
        src: url("https://excalidraw.com/Assistant-Regular.woff2");
      }
    </style>
    
  </defs>
  <rect x="0" y="0" width="153.7196370926369" height="147.17171253285983" fill="#ffffff"/><g stroke-linecap="round" transform="translate(15.159883336778307 62.760982789855234) rotate(0 57.11956521739131 10.813519021739125)"><path d="M5.41 0 C44.75 -0.91, 86.53 0.85, 108.83 0 C115.69 -1.42, 116.87 4.45, 114.24 5.41 C114.32 9.23, 114.69 9.77, 114.24 16.22 C115.83 22.1, 113.59 21.7, 108.83 21.63 C82.47 24.57, 50.25 24.37, 5.41 21.63 C5.29 25.16, 0.54 17.45, 0 16.22 C0.87 11.04, -1.19 7.92, 0 5.41 C3.19 -1.57, 4.51 1.21, 5.41 0" stroke="none" stroke-width="0" fill="#a5d8ff"/><path d="M5.41 0 C35.1 -0.52, 68.53 -0.53, 108.83 0 M5.41 0 C45.68 -0.7, 85.93 0.16, 108.83 0 M108.83 0 C111.77 -0.19, 116.12 0.6, 114.24 5.41 M108.83 0 C110.59 -0.79, 116.39 0.72, 114.24 5.41 M114.24 5.41 C113.79 7.32, 113.95 10.3, 114.24 16.22 M114.24 5.41 C114.8 8.29, 114.73 10.41, 114.24 16.22 M114.24 16.22 C112.36 19.02, 114.41 23.26, 108.83 21.63 M114.24 16.22 C112.19 20.79, 112.66 23.16, 108.83 21.63 M108.83 21.63 C80.09 19.48, 53.95 21.79, 5.41 21.63 M108.83 21.63 C68.78 21.5, 28.72 21.35, 5.41 21.63 M5.41 21.63 C3.03 20.99, -0.32 19.28, 0 16.22 M5.41 21.63 C0.9 19.68, 0.48 18, 0 16.22 M0 16.22 C-0.98 14.38, 0.63 10.82, 0 5.41 M0 16.22 C0.45 12.68, -0.14 9.68, 0 5.41 M0 5.41 C-1.19 2.57, 2.19 -0.89, 5.41 0 M0 5.41 C1.92 1.08, 3.34 1.32, 5.41 0" stroke="#1e1e1e" stroke-width="2" fill="none"/></g><g stroke-linecap="round"><g transform="translate(117.41192138025679 77.27864583333326) rotate(0 -45.22005208333337 27.511718750000057)" fill-rule="evenodd"><path d="M-1.4 -0.32 C-15.62 -0.08, -67.36 -2.92, -83.05 0.24 C-98.74 3.41, -92.36 9.75, -95.54 18.69 C-98.71 27.63, -120.01 47.68, -102.1 53.89 C-84.18 60.11, -5.96 61.64, 11.96 55.97 C29.87 50.3, 7.06 29.55, 5.39 19.85 C3.73 10.16, 3.26 1.28, 1.98 -2.2" stroke="none" stroke-width="0" fill="#ffffff" fill-rule="evenodd"/><path d="M-0.69 -0.13 C-14.39 0.44, -67.59 -1, -82.96 2.26 C-98.32 5.52, -89.91 10.75, -92.89 19.42 C-95.87 28.09, -118.27 48.33, -100.83 54.29 C-83.4 60.25, -5.53 61.04, 11.72 55.18 C28.97 49.32, 4.45 28.45, 2.68 19.13 C0.92 9.82, 1.73 2.54, 1.13 -0.72 M1.15 -1.24 C-12.1 -0.88, -64.9 -3, -80.61 0.68 C-96.32 4.35, -89.83 11.74, -93.12 20.8 C-96.41 29.85, -117.65 49.19, -100.35 55.02 C-83.04 60.84, -6.66 61.9, 10.71 55.73 C28.08 49.57, 5.88 27.12, 3.88 18.04 C1.88 8.95, -0.84 4.38, -1.3 1.22" stroke="#1e1e1e" stroke-width="2" fill="none"/></g></g><mask/><g stroke-linecap="round"><g transform="translate(15.081192213590043 120.55989583333326) rotate(0 57.56640625 -0.005208333333371229)"><path d="M-0.69 1.03 C18.78 1.07, 96.78 0.39, 116.16 0.1 M1.14 0.52 C20.61 0.79, 96.77 1.75, 115.75 1.69" stroke="#1e1e1e" stroke-width="2" fill="none"/></g></g><mask/><g stroke-linecap="round"><g transform="translate(35.77650471359016 89.81510416666663) rotate(0 8.595052083333314 -0.020833333333314386)"><path d="M0.47 0.05 C3.42 -0.09, 14.55 -0.38, 17.4 -0.38 M0.05 -0.4 C2.98 -0.24, 14.18 -0.04, 17.08 0.15" stroke="#1e1e1e" stroke-width="2" fill="none"/></g></g><mask/><g stroke-linecap="round"><g transform="translate(65.33119221359016 90.78906249999989) rotate(0 8.595052083333314 -0.020833333333314386)"><path d="M0.21 -0.33 C3.06 -0.33, 14.79 0.06, 17.59 0.1 M-0.35 0.68 C2.43 0.51, 14.55 -0.76, 17.36 -0.8" stroke="#1e1e1e" stroke-width="2" fill="none"/></g></g><mask/><g stroke-linecap="round"><g transform="translate(93.0603588802569 90.23697916666663) rotate(0 8.595052083333314 -0.020833333333314386)"><path d="M0.4 0.14 C3.2 0.18, 14.12 -0.01, 17.01 -0.09 M-0.06 -0.27 C2.63 -0.11, 13.53 0.53, 16.48 0.58" stroke="#1e1e1e" stroke-width="2" fill="none"/></g></g><mask/><g stroke-linecap="round"><g transform="translate(36.0369213802569 100.77604166666652) rotate(0 8.595052083333314 -0.020833333333314386)"><path d="M-0.18 -0.05 C2.7 -0.14, 14.88 -0.34, 17.71 -0.37 M0.72 -0.55 C3.55 -0.59, 14.69 0.02, 17.54 0.16" stroke="#1e1e1e" stroke-width="2" fill="none"/></g></g><mask/><g stroke-linecap="round"><g transform="translate(33.88327554692353 110.05729166666652) rotate(0 7.962239583333314 0.2565104166666856)"><path d="M0.52 -0.33 C3.13 -0.27, 12.83 0.23, 15.48 0.32 M0.12 0.69 C2.91 0.83, 13.78 0.92, 16.49 0.93" stroke="#1e1e1e" stroke-width="2" fill="none"/></g></g><mask/><g stroke-linecap="round"><g transform="translate(63.07337971359027 111.45572916666663) rotate(0 8.595052083333314 -0.020833333333314386)"><path d="M-0.44 -0.19 C2.42 -0.18, 14.82 -0.31, 17.7 -0.3 M0.33 -0.76 C3.12 -0.66, 14.86 0.06, 17.54 0.27" stroke="#1e1e1e" stroke-width="2" fill="none"/></g></g><mask/><g stroke-linecap="round"><g transform="translate(94.73223388025667 111.2421875) rotate(0 8.595052083333314 -0.020833333333314386)"><path d="M0.51 -0.26 C3.4 -0.25, 14.13 -0.11, 16.88 -0.11 M0.11 0.8 C3.22 0.91, 15.2 0.65, 17.95 0.55" stroke="#1e1e1e" stroke-width="2" fill="none"/></g></g><mask/><g stroke-linecap="round"><g transform="translate(63.604629713590384 101.57812499999989) rotate(0 8.595052083333314 -0.020833333333314386)"><path d="M-0.31 -0.07 C2.43 -0.07, 14.16 -0.24, 17.01 -0.26 M0.52 -0.58 C3.14 -0.49, 13.58 0.17, 16.49 0.32" stroke="#1e1e1e" stroke-width="2" fill="none"/></g></g><mask/><g stroke-linecap="round"><g transform="translate(92.29733804692364 102.47135416666663) rotate(0 8.595052083333314 -0.020833333333314386)"><path d="M-0.18 -0.22 C2.68 -0.24, 13.96 -0.17, 16.83 -0.18 M0.73 -0.81 C3.79 -0.74, 15.24 0.28, 17.88 0.45" stroke="#1e1e1e" stroke-width="2" fill="none"/></g></g><mask/><g stroke-linecap="round"><g transform="translate(131.26869221359004 76.44270833333337) rotate(0 6.016927083333371 -6.680989583333314)"><path d="M-0.36 -0.14 C1.53 -0.29, 9.1 1.02, 11.2 -1.14 C13.31 -3.3, 12.06 -11.1, 12.28 -13.12 M0.45 -0.69 C2.28 -0.75, 8.74 1.66, 10.68 -0.57 C12.61 -2.8, 11.96 -12.04, 12.06 -14.06" stroke="#1e1e1e" stroke-width="2" fill="none"/></g></g><mask/><g stroke-linecap="round"><g transform="translate(39.232233880256786 61.46614583333337) rotate(0 36.602864583333314 -25.703125000000057)"><path d="M0 0 C-0.46 -10.86, 1.69 -21.65, 1.43 -50.29 M0 0 C-0.88 -16.72, 1.51 -31.84, 1.43 -50.29 M1.43 -50.29 C17.63 -51.17, 32.21 -51.3, 71.97 -51.47 M1.43 -50.29 C20.57 -50.2, 40.07 -50.77, 71.97 -51.47 M71.97 -51.47 C70.12 -34.43, 71.7 -20.18, 73.21 0.06 M71.97 -51.47 C72.31 -38.2, 71.78 -22.84, 73.21 0.06" stroke="#1e1e1e" stroke-width="2" fill="none"/></g></g><mask/></svg>