<svg version="1.1" xmlns="http://www.w3.org/2000/svg" viewBox="0 0 172.41842722986732 171.61698823890555" width="172.41842722986732" height="171.61698823890555" class="excalidraw-svg">
  <!-- svg-source:excalidraw -->
  
  <defs>
    <style class="style-fonts">
      @font-face {
        font-family: "Virgil";
        src: url("https://excalidraw.com/Virgil.woff2");
      }
      @font-face {
        font-family: "Cascadia";
        src: url("https://excalidraw.com/Cascadia.woff2");
      }
      @font-face {
        font-family: "Assistant";
        src: url("https://excalidraw.com/Assistant-Regular.woff2");
      }
    </style>
    
  </defs>
  <rect x="0" y="0" width="172.41842722986732" height="171.61698823890555" fill="#ffffff"/><g stroke-linecap="round"><g transform="translate(10.401177217811352 161.2424692103909) rotate(0 28.869565217391255 -21.5)"><path d="M-0.4 0.37 C0.3 -1.92, 0.42 -5.53, 4.21 -12.8 C7.99 -20.08, 15.35 -38.53, 22.3 -43.25 C29.25 -47.97, 39.99 -47.57, 45.89 -41.12 C51.8 -34.67, 55.62 -10.83, 57.75 -4.54 M1.59 -0.47 C2.68 -3.25, 3.15 -7.89, 6.5 -14.82 C9.85 -21.76, 15.18 -37.85, 21.69 -42.06 C28.2 -46.27, 39.79 -46.34, 45.56 -40.08 C51.32 -33.82, 54.39 -10.51, 56.28 -4.52" stroke="#1e1e1e" stroke-width="2" fill="none"/></g></g><mask/><g stroke-linecap="round"><g transform="translate(59.27074243520255 119.98159964517353) rotate(0 21 -0.5)"><path d="M-0.79 0.2 C-0.34 -0.58, 0.85 -2.2, 2.3 -4.25 C3.75 -6.3, 2.61 -11.04, 7.89 -12.12 C13.18 -13.2, 28.17 -14.64, 34.01 -10.71 C39.85 -6.78, 41.45 8.05, 42.93 11.47 M0.99 -0.75 C1.35 -1.37, -0.03 -1.16, 1.51 -2.84 C3.04 -4.53, 4.75 -9.68, 10.21 -10.87 C15.66 -12.06, 28.97 -13.81, 34.26 -9.98 C39.55 -6.15, 40.81 8.47, 41.95 12.11" stroke="#1e1e1e" stroke-width="2" fill="none"/></g></g><mask/><g stroke-linecap="round"><g transform="translate(89.31422069607228 159.63377355821703) rotate(0 28.543478260869477 -21.82608695652175)"><path d="M0.3 -0.25 C1.93 -4.91, 5.35 -20.42, 8.98 -27.77 C12.61 -35.13, 15.59 -42.13, 22.09 -44.36 C28.6 -46.6, 42.04 -48.27, 48.02 -41.18 C54 -34.09, 56.29 -8.68, 58 -1.82 M-1 -1.43 C1.05 -5.91, 7.39 -19.3, 11.11 -26.3 C14.83 -33.3, 15.06 -41.17, 21.33 -43.42 C27.61 -45.68, 42.81 -46.73, 48.76 -39.83 C54.7 -32.93, 55.68 -8.56, 57 -2.04" stroke="#1e1e1e" stroke-width="2" fill="none"/></g></g><mask/><g stroke-linecap="round" transform="translate(30.270742435202607 78.98159964517365) rotate(0 15.999999999999972 14.999999999999943)"><path d="M16.22 0.38 C19.45 0.21, 23.18 1.99, 25.82 4.02 C28.45 6.05, 31.35 9.54, 32.03 12.56 C32.7 15.59, 31.66 19.36, 29.88 22.15 C28.09 24.93, 24.59 28.13, 21.31 29.29 C18.04 30.45, 13.43 30.19, 10.23 29.11 C7.03 28.04, 3.8 25.56, 2.11 22.84 C0.42 20.12, -0.5 16.1, 0.08 12.79 C0.66 9.49, 2.79 5.13, 5.58 3 C8.36 0.88, 14.92 0.4, 16.79 0.03 C18.67 -0.34, 16.87 0.63, 16.81 0.8 M17.19 0.54 C20.47 0.39, 24.83 1.74, 27.17 3.85 C29.5 5.96, 30.75 9.89, 31.21 13.2 C31.66 16.51, 31.71 20.88, 29.9 23.7 C28.09 26.52, 23.8 29.36, 20.32 30.12 C16.85 30.88, 12.23 29.69, 9.04 28.24 C5.86 26.8, 2.77 24.11, 1.23 21.45 C-0.31 18.79, -1.12 15.33, -0.19 12.26 C0.73 9.19, 3.92 5, 6.79 3.01 C9.66 1.02, 15.32 0.62, 17.01 0.3 C18.71 -0.02, 17.07 0.91, 16.97 1.07" stroke="#1e1e1e" stroke-width="2" fill="none"/></g><g stroke-linecap="round" transform="translate(65.27074243520255 67.98159964517365) rotate(0 15.999999999999972 14.999999999999943)"><path d="M18.61 0.78 C21.85 1.14, 26.49 3.38, 28.72 5.73 C30.96 8.09, 32.17 11.71, 32.03 14.93 C31.9 18.15, 30.22 22.57, 27.92 25.05 C25.61 27.54, 21.56 29.32, 18.19 29.84 C14.82 30.37, 10.62 29.79, 7.7 28.19 C4.79 26.6, 1.82 23.45, 0.69 20.27 C-0.44 17.08, -0.4 12.16, 0.92 9.1 C2.24 6.04, 5.53 3.26, 8.63 1.89 C11.72 0.51, 17.59 1.11, 19.47 0.84 C21.34 0.58, 19.91 0.11, 19.87 0.29 M19.61 0.1 C22.68 0.47, 25.84 3.11, 27.99 5.77 C30.14 8.43, 32.6 12.73, 32.53 16.07 C32.46 19.42, 30.07 23.65, 27.57 25.86 C25.07 28.07, 20.95 29.09, 17.51 29.35 C14.08 29.6, 9.86 28.91, 6.96 27.4 C4.06 25.89, 1.02 23.28, 0.12 20.27 C-0.79 17.26, 0.11 12.38, 1.53 9.33 C2.96 6.29, 5.66 3.35, 8.65 1.98 C11.64 0.61, 17.76 1.36, 19.48 1.1 C21.19 0.83, 18.94 0.33, 18.92 0.41" stroke="#1e1e1e" stroke-width="2" fill="none"/></g><g stroke-linecap="round" transform="translate(108.27074243520255 74.98159964517365) rotate(0 15.999999999999972 14.999999999999943)"><path d="M19.27 0.41 C22.6 0.65, 26.34 2.66, 28.44 5.16 C30.54 7.65, 31.97 12.12, 31.86 15.4 C31.76 18.68, 30.06 22.37, 27.83 24.83 C25.61 27.29, 21.89 29.59, 18.52 30.16 C15.16 30.74, 10.6 30.09, 7.63 28.3 C4.66 26.51, 1.77 22.53, 0.73 19.43 C-0.31 16.33, 0.15 12.53, 1.4 9.69 C2.64 6.85, 5.07 3.99, 8.17 2.38 C11.27 0.77, 17.89 0.23, 20.02 0.02 C22.15 -0.2, 20.95 0.75, 20.95 1.1 M18.06 0.14 C21.37 0.6, 26.5 3.19, 28.78 5.78 C31.07 8.38, 31.94 12.66, 31.76 15.72 C31.57 18.77, 29.91 21.8, 27.68 24.1 C25.44 26.4, 21.72 28.73, 18.34 29.5 C14.96 30.28, 10.24 30.29, 7.4 28.75 C4.56 27.2, 2.36 23.31, 1.3 20.21 C0.24 17.11, -0.1 13.08, 1.02 10.17 C2.13 7.26, 5.13 4.47, 8.01 2.77 C10.89 1.07, 16.47 0.4, 18.3 -0.01 C20.14 -0.43, 18.9 -0.1, 19 0.28" stroke="#1e1e1e" stroke-width="2" fill="none"/></g><g transform="translate(60.12730222988566 128.0969558034179) rotate(352.40535663140855 0.5130054227081331 12.710730798277453)" stroke="none"><path fill="#d6d6d6" d="M 3.22,0 Q 3.22,0 2.97,1.96 2.71,3.93 2.83,6.38 2.95,8.82 3.02,11.18 3.09,13.53 3.16,15.68 3.22,17.84 3.42,21.34 3.61,24.84 3.57,25.27 3.54,25.69 3.37,26.08 3.19,26.47 2.91,26.78 2.62,27.09 2.25,27.30 1.88,27.51 1.46,27.58 1.04,27.66 0.62,27.60 0.20,27.54 -0.17,27.35 -0.55,27.16 -0.84,26.85 -1.14,26.55 -1.33,26.17 -1.51,25.79 -1.57,25.36 -1.62,24.94 -1.54,24.53 -1.46,24.11 -1.24,23.74 -1.03,23.37 -0.71,23.09 -0.39,22.81 -0.00,22.64 0.38,22.48 0.80,22.45 1.23,22.42 1.64,22.52 2.05,22.63 2.41,22.86 2.76,23.09 3.03,23.43 3.29,23.76 3.43,24.16 3.58,24.56 3.58,24.99 3.59,25.41 3.46,25.82 3.34,26.22 3.09,26.56 2.84,26.91 2.49,27.15 2.14,27.40 1.73,27.52 1.33,27.64 0.90,27.62 0.48,27.61 0.08,27.46 -0.31,27.31 -0.64,27.04 -0.97,26.77 -1.19,26.41 -1.42,26.05 -1.52,25.64 -1.62,25.23 -1.62,25.23 -1.62,25.23 -1.92,22.03 -2.22,18.83 -2.25,16.59 -2.28,14.34 -2.38,11.64 -2.48,8.94 -2.59,6.44 -2.71,3.93 -2.97,1.96 -3.22,0 -3.18,-0.38 -3.13,-0.77 -2.99,-1.13 -2.85,-1.50 -2.63,-1.82 -2.41,-2.14 -2.12,-2.39 -1.83,-2.65 -1.48,-2.83 -1.14,-3.01 -0.76,-3.11 -0.38,-3.20 0.00,-3.20 0.38,-3.20 0.76,-3.11 1.14,-3.01 1.48,-2.83 1.83,-2.65 2.12,-2.39 2.41,-2.14 2.63,-1.82 2.85,-1.49 2.99,-1.13 3.13,-0.77 3.18,-0.38 3.22,0.00 3.22,0.00 L 3.22,0 Z"/></g><g transform="translate(93.74107422755318 117.51762233088832) rotate(346.55793755918955 0.5948855989537094 7.094412096893805)" stroke="none"><path fill="#d6d6d6" d="M 4.41,0.21 Q 4.41,0.21 4.06,1.45 3.71,2.69 3.66,4.98 3.60,7.26 3.11,10.82 2.62,14.37 2.49,14.77 2.36,15.18 2.11,15.52 1.85,15.86 1.51,16.10 1.16,16.34 0.75,16.46 0.34,16.58 -0.07,16.56 -0.50,16.54 -0.90,16.39 -1.29,16.24 -1.62,15.96 -1.95,15.69 -2.17,15.33 -2.39,14.97 -2.49,14.56 -2.58,14.14 -2.54,13.72 -2.50,13.30 -2.33,12.91 -2.15,12.52 -1.86,12.21 -1.57,11.90 -1.20,11.69 -0.83,11.49 -0.41,11.42 0.00,11.34 0.42,11.41 0.84,11.47 1.22,11.67 1.59,11.86 1.89,12.17 2.19,12.47 2.37,12.86 2.55,13.24 2.60,13.66 2.65,14.08 2.56,14.50 2.48,14.92 2.26,15.28 2.05,15.65 1.73,15.93 1.41,16.21 1.01,16.37 0.62,16.53 0.20,16.56 -0.22,16.58 -0.63,16.48 -1.04,16.37 -1.39,16.13 -1.75,15.90 -2.01,15.56 -2.27,15.23 -2.41,14.82 -2.55,14.42 -2.55,14.00 -2.56,13.57 -2.56,13.57 -2.56,13.57 -2.19,10.11 -1.82,6.65 -1.75,4.49 -1.68,2.32 -1.85,1.05 -2.03,-0.21 -1.95,-0.60 -1.88,-0.98 -1.72,-1.33 -1.55,-1.69 -1.31,-1.99 -1.07,-2.29 -0.76,-2.53 -0.45,-2.77 -0.10,-2.93 0.25,-3.08 0.63,-3.15 1.01,-3.22 1.40,-3.19 1.79,-3.17 2.16,-3.05 2.53,-2.93 2.86,-2.72 3.20,-2.52 3.47,-2.24 3.74,-1.97 3.94,-1.63 4.14,-1.30 4.25,-0.92 4.36,-0.55 4.38,-0.16 4.41,0.21 4.41,0.21 L 4.41,0.21 Z"/></g><g transform="translate(140.48126861834552 125.85777515995821) rotate(352.40535663140855 0.22425642555273817 16.471650572171864)" stroke="none"><path fill="#d6d6d6" d="M 3.22,0 Q 3.22,0 2.96,2.18 2.70,4.37 2.73,6.53 2.76,8.69 2.79,10.82 2.82,12.95 2.86,15.44 2.89,17.92 2.91,20.53 2.94,23.13 2.99,25.59 3.04,28.06 3.05,30.22 3.06,32.38 3.00,32.80 2.94,33.22 2.75,33.60 2.56,33.98 2.26,34.28 1.96,34.58 1.58,34.77 1.20,34.96 0.78,35.01 0.35,35.07 -0.05,34.99 -0.47,34.91 -0.84,34.70 -1.21,34.49 -1.49,34.17 -1.78,33.85 -1.94,33.46 -2.11,33.07 -2.14,32.65 -2.18,32.22 -2.07,31.81 -1.97,31.40 -1.74,31.04 -1.51,30.68 -1.18,30.42 -0.85,30.15 -0.45,30.01 -0.05,29.86 0.37,29.85 0.79,29.84 1.20,29.97 1.60,30.09 1.95,30.34 2.29,30.59 2.54,30.94 2.79,31.28 2.91,31.69 3.03,32.09 3.02,32.52 3.01,32.94 2.86,33.34 2.71,33.74 2.45,34.07 2.18,34.40 1.82,34.63 1.46,34.86 1.05,34.96 0.64,35.06 0.21,35.03 -0.20,34.99 -0.59,34.82 -0.98,34.65 -1.29,34.37 -1.61,34.08 -1.82,33.71 -2.03,33.34 -2.11,32.92 -2.18,32.51 -2.18,32.51 -2.18,32.51 -2.34,28.45 -2.50,24.40 -2.51,21.90 -2.51,19.39 -2.56,16.82 -2.60,14.25 -2.62,11.56 -2.63,8.88 -2.67,6.62 -2.70,4.37 -2.96,2.18 -3.22,0 -3.18,-0.38 -3.13,-0.77 -2.99,-1.13 -2.85,-1.50 -2.63,-1.82 -2.41,-2.14 -2.12,-2.39 -1.83,-2.65 -1.48,-2.83 -1.14,-3.01 -0.76,-3.11 -0.38,-3.20 0.00,-3.20 0.38,-3.20 0.76,-3.11 1.14,-3.01 1.48,-2.83 1.83,-2.65 2.12,-2.39 2.41,-2.14 2.63,-1.82 2.85,-1.49 2.99,-1.13 3.13,-0.77 3.18,-0.38 3.22,0.00 3.22,0.00 L 3.22,0 Z"/></g><g transform="translate(52.27074243520255 83.98159964517376) rotate(0 3.5 8.499999999999943)" stroke="none"><path fill="#d6d6d6" d="M 2.16,-2.64 Q 2.16,-2.64 2.59,-2.00 3.01,-1.35 4.51,0.83 6.00,3.03 7.59,5.55 9.19,8.06 9.70,10.33 10.21,12.60 8.77,15.07 7.32,17.54 5.89,18.86 4.46,20.17 4.25,20.41 4.03,20.64 3.77,20.82 3.51,20.99 3.21,21.10 2.91,21.20 2.59,21.24 2.28,21.27 1.97,21.23 1.65,21.18 1.36,21.06 1.06,20.95 0.81,20.76 0.55,20.58 0.34,20.34 0.14,20.10 0.00,19.81 -0.14,19.53 -0.21,19.22 -0.28,18.91 -0.27,18.60 -0.27,18.28 -0.18,17.97 -0.10,17.67 0.04,17.39 0.19,17.11 0.44,16.85 0.69,16.59 1.06,16.38 1.43,16.18 1.85,16.10 2.26,16.02 2.68,16.08 3.10,16.13 3.49,16.32 3.87,16.51 4.16,16.82 4.46,17.12 4.65,17.50 4.84,17.88 4.90,18.30 4.95,18.72 4.87,19.14 4.79,19.56 4.58,19.93 4.37,20.30 4.05,20.58 3.73,20.86 3.34,21.03 2.95,21.19 2.53,21.23 2.10,21.26 1.69,21.16 1.28,21.05 0.92,20.82 0.57,20.59 0.30,20.26 0.04,19.93 -0.10,19.53 -0.25,19.13 -0.26,18.71 -0.27,18.28 -0.14,17.87 -0.01,17.47 0.23,17.12 0.47,16.78 0.82,16.53 1.17,16.29 1.57,16.16 1.98,16.04 2.40,16.05 2.83,16.07 3.23,16.21 3.63,16.36 3.96,16.63 4.29,16.90 4.51,17.25 4.74,17.61 4.84,18.03 4.94,18.44 4.91,18.86 4.87,19.29 4.70,19.68 4.53,20.07 4.50,20.12 4.46,20.17 4.25,20.41 4.03,20.64 3.77,20.82 3.51,20.99 3.21,21.10 2.91,21.20 2.59,21.24 2.28,21.27 1.97,21.23 1.65,21.18 1.36,21.06 1.06,20.95 0.81,20.76 0.55,20.58 0.34,20.34 0.14,20.10 0.00,19.81 -0.14,19.53 -0.21,19.22 -0.28,18.91 -0.27,18.60 -0.27,18.28 -0.18,17.97 -0.10,17.67 0.04,17.39 0.19,17.11 0.96,16.44 1.73,15.77 3.19,13.53 4.65,11.29 2.95,8.99 1.26,6.69 0.05,4.69 -1.14,2.69 -1.75,2.32 -2.36,1.95 -2.60,1.65 -2.84,1.34 -3.01,0.99 -3.17,0.64 -3.24,0.25 -3.32,-0.12 -3.30,-0.51 -3.28,-0.90 -3.16,-1.27 -3.05,-1.64 -2.85,-1.98 -2.65,-2.31 -2.38,-2.59 -2.11,-2.87 -1.78,-3.07 -1.45,-3.27 -1.07,-3.39 -0.70,-3.51 -0.32,-3.54 0.06,-3.56 0.45,-3.50 0.83,-3.43 1.19,-3.27 1.54,-3.12 1.85,-2.88 2.16,-2.64 2.16,-2.64 L 2.16,-2.64 Z"/></g><g transform="translate(87.27074243520255 72.98159964517376) rotate(0 3.5 8.499999999999943)" stroke="none"><path fill="#d6d6d6" d="M 2.16,-2.64 Q 2.16,-2.64 2.59,-2.00 3.01,-1.35 4.51,0.83 6.00,3.03 7.59,5.55 9.19,8.06 9.70,10.33 10.21,12.60 8.77,15.07 7.32,17.54 5.89,18.86 4.46,20.17 4.25,20.41 4.03,20.64 3.77,20.82 3.51,20.99 3.21,21.10 2.91,21.20 2.59,21.24 2.28,21.27 1.97,21.23 1.65,21.18 1.36,21.06 1.06,20.95 0.81,20.76 0.55,20.58 0.34,20.34 0.14,20.10 0.00,19.81 -0.14,19.53 -0.21,19.22 -0.28,18.91 -0.27,18.60 -0.27,18.28 -0.18,17.97 -0.10,17.67 0.04,17.39 0.19,17.11 0.44,16.85 0.69,16.59 1.06,16.38 1.43,16.18 1.85,16.10 2.26,16.02 2.68,16.08 3.10,16.13 3.49,16.32 3.87,16.51 4.16,16.82 4.46,17.12 4.65,17.50 4.84,17.88 4.90,18.30 4.95,18.72 4.87,19.14 4.79,19.56 4.58,19.93 4.37,20.30 4.05,20.58 3.73,20.86 3.34,21.03 2.95,21.19 2.53,21.23 2.10,21.26 1.69,21.16 1.28,21.05 0.92,20.82 0.57,20.59 0.30,20.26 0.04,19.93 -0.10,19.53 -0.25,19.13 -0.26,18.71 -0.27,18.28 -0.14,17.87 -0.01,17.47 0.23,17.12 0.47,16.78 0.82,16.53 1.17,16.29 1.57,16.16 1.98,16.04 2.40,16.05 2.83,16.07 3.23,16.21 3.63,16.36 3.96,16.63 4.29,16.90 4.51,17.25 4.74,17.61 4.84,18.03 4.94,18.44 4.91,18.86 4.87,19.29 4.70,19.68 4.53,20.07 4.50,20.12 4.46,20.17 4.25,20.41 4.03,20.64 3.77,20.82 3.51,20.99 3.21,21.10 2.91,21.20 2.59,21.24 2.28,21.27 1.97,21.23 1.65,21.18 1.36,21.06 1.06,20.95 0.81,20.76 0.55,20.58 0.34,20.34 0.14,20.10 0.00,19.81 -0.14,19.53 -0.21,19.22 -0.28,18.91 -0.27,18.60 -0.27,18.28 -0.18,17.97 -0.10,17.67 0.04,17.39 0.19,17.11 0.96,16.44 1.73,15.77 3.19,13.53 4.65,11.29 2.95,8.99 1.26,6.69 0.05,4.69 -1.14,2.69 -1.75,2.32 -2.36,1.95 -2.60,1.65 -2.84,1.34 -3.01,0.99 -3.17,0.64 -3.24,0.25 -3.32,-0.12 -3.30,-0.51 -3.28,-0.90 -3.16,-1.27 -3.05,-1.64 -2.85,-1.98 -2.65,-2.31 -2.38,-2.59 -2.11,-2.87 -1.78,-3.07 -1.45,-3.27 -1.07,-3.39 -0.70,-3.51 -0.32,-3.54 0.06,-3.56 0.45,-3.50 0.83,-3.43 1.19,-3.27 1.54,-3.12 1.85,-2.88 2.16,-2.64 2.16,-2.64 L 2.16,-2.64 Z"/></g><g transform="translate(130.27074243520255 79.98159964517376) rotate(0 3.5 8.499999999999943)" stroke="none"><path fill="#d6d6d6" d="M 2.16,-2.64 Q 2.16,-2.64 2.59,-2.00 3.01,-1.35 4.51,0.83 6.00,3.03 7.59,5.55 9.19,8.06 9.70,10.33 10.21,12.60 8.77,15.07 7.32,17.54 5.89,18.86 4.46,20.17 4.25,20.41 4.03,20.64 3.77,20.82 3.51,20.99 3.21,21.10 2.91,21.20 2.59,21.24 2.28,21.27 1.97,21.23 1.65,21.18 1.36,21.06 1.06,20.95 0.81,20.76 0.55,20.58 0.34,20.34 0.14,20.10 0.00,19.81 -0.14,19.53 -0.21,19.22 -0.28,18.91 -0.27,18.60 -0.27,18.28 -0.18,17.97 -0.10,17.67 0.04,17.39 0.19,17.11 0.44,16.85 0.69,16.59 1.06,16.38 1.43,16.18 1.85,16.10 2.26,16.02 2.68,16.08 3.10,16.13 3.49,16.32 3.87,16.51 4.16,16.82 4.46,17.12 4.65,17.50 4.84,17.88 4.90,18.30 4.95,18.72 4.87,19.14 4.79,19.56 4.58,19.93 4.37,20.30 4.05,20.58 3.73,20.86 3.34,21.03 2.95,21.19 2.53,21.23 2.10,21.26 1.69,21.16 1.28,21.05 0.92,20.82 0.57,20.59 0.30,20.26 0.04,19.93 -0.10,19.53 -0.25,19.13 -0.26,18.71 -0.27,18.28 -0.14,17.87 -0.01,17.47 0.23,17.12 0.47,16.78 0.82,16.53 1.17,16.29 1.57,16.16 1.98,16.04 2.40,16.05 2.83,16.07 3.23,16.21 3.63,16.36 3.96,16.63 4.29,16.90 4.51,17.25 4.74,17.61 4.84,18.03 4.94,18.44 4.91,18.86 4.87,19.29 4.70,19.68 4.53,20.07 4.50,20.12 4.46,20.17 4.25,20.41 4.03,20.64 3.77,20.82 3.51,20.99 3.21,21.10 2.91,21.20 2.59,21.24 2.28,21.27 1.97,21.23 1.65,21.18 1.36,21.06 1.06,20.95 0.81,20.76 0.55,20.58 0.34,20.34 0.14,20.10 0.00,19.81 -0.14,19.53 -0.21,19.22 -0.28,18.91 -0.27,18.60 -0.27,18.28 -0.18,17.97 -0.10,17.67 0.04,17.39 0.19,17.11 0.96,16.44 1.73,15.77 3.19,13.53 4.65,11.29 2.95,8.99 1.26,6.69 0.05,4.69 -1.14,2.69 -1.75,2.32 -2.36,1.95 -2.60,1.65 -2.84,1.34 -3.01,0.99 -3.17,0.64 -3.24,0.25 -3.32,-0.12 -3.30,-0.51 -3.28,-0.90 -3.16,-1.27 -3.05,-1.64 -2.85,-1.98 -2.65,-2.31 -2.38,-2.59 -2.11,-2.87 -1.78,-3.07 -1.45,-3.27 -1.07,-3.39 -0.70,-3.51 -0.32,-3.54 0.06,-3.56 0.45,-3.50 0.83,-3.43 1.19,-3.27 1.54,-3.12 1.85,-2.88 2.16,-2.64 2.16,-2.64 L 2.16,-2.64 Z"/></g><g stroke-linecap="round"><g transform="translate(126.73498092247186 70.0796506918625) rotate(0 4.347826086956502 -23.47826086956522)"><path d="M0.85 -0.4 C1.01 -0.6, -0.4 0.43, 1 -1.25 C2.4 -2.93, 4.34 -8.05, 9.26 -10.47 C14.18 -12.88, 26.78 -9.82, 30.5 -15.74 C34.22 -21.66, 39.46 -40.84, 31.59 -46 C23.71 -51.15, -7.89 -51.76, -16.74 -46.67 C-25.6 -41.58, -22.81 -20.79, -21.55 -15.48 C-20.29 -10.17, -12.81 -17.34, -9.18 -14.82 C-5.54 -12.31, -1.08 -2.85, 0.27 -0.4 M-0.16 -1.66 C-0.07 -1.68, -1.37 1.87, 0.58 0.09 C2.53 -1.7, 6.51 -9.91, 11.54 -12.37 C16.57 -14.83, 27.58 -9.15, 30.78 -14.68 C33.97 -20.21, 38.5 -40.08, 30.72 -45.56 C22.94 -51.04, -7.32 -52.44, -15.9 -47.56 C-24.49 -42.68, -21.79 -21.75, -20.8 -16.28 C-19.82 -10.81, -13.26 -17.72, -10 -14.73 C-6.74 -11.74, -2.77 -0.69, -1.26 1.66" stroke="#1e1e1e" stroke-width="2" fill="none"/></g></g><mask/><g stroke-linecap="round"><g transform="translate(42.82193744421093 74.86225938751463) rotate(0 4.347826086956502 -23.47826086956522)" fill-rule="evenodd"><path d="M-1.95 -1.71 C-2.07 -2.4, -3.24 -0.53, -1.52 -1.73 C0.2 -2.93, 2.88 -6.59, 8.38 -8.88 C13.88 -11.17, 27.79 -9.42, 31.49 -15.48 C35.2 -21.53, 38.47 -40.35, 30.63 -45.19 C22.79 -50.03, -6.56 -49.17, -15.54 -44.52 C-24.51 -39.87, -24.36 -21.98, -23.2 -17.3 C-22.04 -12.62, -12.66 -19.61, -8.57 -16.43 C-4.48 -13.25, -0.35 -0.94, 1.35 1.77" stroke="none" stroke-width="0" fill="#ffffff" fill-rule="evenodd"/><path d="M1 -0.38 C0.67 -0.32, -2.76 1.8, -1.17 -0.03 C0.41 -1.87, 5.04 -8.8, 10.5 -11.39 C15.96 -13.98, 28.45 -9.83, 31.59 -15.56 C34.73 -21.3, 37.18 -40.74, 29.34 -45.8 C21.5 -50.86, -7.01 -50.93, -15.46 -45.92 C-23.91 -40.9, -22.38 -20.67, -21.35 -15.69 C-20.32 -10.72, -12.67 -18.65, -9.29 -16.06 C-5.92 -13.46, -2.79 -2.92, -1.1 -0.13 M0.07 -1.63 C0.01 -1.86, -0.69 -0.3, 0.92 -1.72 C2.54 -3.13, 5.12 -8, 9.76 -10.12 C14.41 -12.23, 25.25 -8.55, 28.78 -14.41 C32.31 -20.27, 38.08 -39.93, 30.96 -45.26 C23.84 -50.59, -5.37 -51.19, -13.95 -46.41 C-22.52 -41.63, -21.13 -21.57, -20.51 -16.6 C-19.88 -11.64, -13.65 -19.11, -10.18 -16.61 C-6.71 -14.1, -1.13 -4.45, 0.31 -1.58" stroke="#1e1e1e" stroke-width="2" fill="none"/></g></g><mask/><g stroke-linecap="round"><g transform="translate(84.1262852702981 61.38399851794949) rotate(0 4.347826086956502 -23.47826086956522)" fill-rule="evenodd"><path d="M-1.52 -0.86 C-1.54 -0.32, -4.22 3.26, -2.05 1.55 C0.11 -0.16, 6.05 -8.41, 11.49 -11.13 C16.94 -13.85, 27.45 -9.34, 30.63 -14.76 C33.81 -20.18, 38.51 -38.15, 30.55 -43.65 C22.59 -49.15, -8.56 -52.12, -17.11 -47.73 C-25.66 -43.34, -22.23 -22.94, -20.75 -17.3 C-19.27 -11.66, -11.94 -16.74, -8.22 -13.89 C-4.49 -11.03, -0.14 -2.81, 1.6 -0.17" stroke="none" stroke-width="0" fill="#ffffff" fill-rule="evenodd"/><path d="M-1.17 0.83 C-1.33 0.74, -2.07 1.05, 0.06 -0.96 C2.19 -2.96, 6.71 -8.81, 11.59 -11.21 C16.47 -13.62, 26.17 -9.73, 29.34 -15.37 C32.52 -21, 38.06 -39.92, 30.63 -45.05 C23.19 -50.17, -6.58 -50.81, -15.27 -46.13 C-23.95 -41.44, -22.23 -21.98, -21.47 -16.93 C-20.7 -11.87, -14.39 -18.72, -10.67 -15.78 C-6.94 -12.84, -0.84 -2.12, 0.87 0.71 M0.41 0.23 C0.01 0.36, -2.69 2.22, -0.85 0.54 C0.98 -1.14, 6.45 -7.41, 11.43 -9.85 C16.4 -12.29, 26.05 -7.79, 29.02 -14.11 C31.99 -20.43, 36.98 -42.33, 29.26 -47.77 C21.54 -53.21, -8.99 -52.22, -17.31 -46.73 C-25.63 -41.24, -22.13 -19.91, -20.68 -14.82 C-19.23 -9.73, -12 -18.61, -8.61 -16.19 C-5.22 -13.77, -1.81 -3.23, -0.34 -0.3" stroke="#1e1e1e" stroke-width="2" fill="none"/></g></g><mask/><g transform="translate(74.12628527029793 24.427476778819) rotate(0 3.9130434782608745 -0.43478260869562746)" stroke="none"><path fill="#1971c2" d="M -0.51,-1.53 Q -0.51,-1.53 0.26,-1.69 1.04,-1.86 2.26,-2.04 3.48,-2.22 4.68,-2.14 5.87,-2.06 7.59,-1.69 9.32,-1.31 9.53,-1.27 9.73,-1.24 9.92,-1.13 10.11,-1.03 10.25,-0.87 10.39,-0.72 10.48,-0.52 10.56,-0.33 10.58,-0.12 10.60,0.09 10.55,0.29 10.50,0.50 10.39,0.68 10.28,0.86 10.11,0.99 9.95,1.13 9.75,1.20 9.55,1.28 9.34,1.29 9.13,1.29 8.92,1.23 8.72,1.17 8.54,1.05 8.37,0.93 8.25,0.75 8.12,0.58 8.06,0.38 7.99,0.18 8.00,-0.02 8.00,-0.24 8.07,-0.44 8.14,-0.64 8.28,-0.80 8.41,-0.97 8.59,-1.09 8.76,-1.20 8.97,-1.26 9.17,-1.31 9.39,-1.29 9.60,-1.28 9.79,-1.19 9.99,-1.11 10.15,-0.97 10.31,-0.83 10.42,-0.65 10.52,-0.46 10.56,-0.25 10.60,-0.05 10.58,0.15 10.55,0.37 10.46,0.56 10.36,0.75 10.22,0.90 10.07,1.05 9.88,1.15 9.69,1.24 9.48,1.27 9.27,1.30 9.27,1.30 9.27,1.30 6.93,0.95 4.59,0.59 3.27,0.72 1.95,0.86 1.23,1.19 0.51,1.53 0.31,1.57 0.12,1.60 -0.06,1.60 -0.25,1.59 -0.44,1.53 -0.63,1.48 -0.80,1.38 -0.97,1.28 -1.11,1.15 -1.25,1.02 -1.35,0.85 -1.45,0.69 -1.52,0.50 -1.58,0.32 -1.59,0.12 -1.61,-0.06 -1.58,-0.25 -1.55,-0.44 -1.47,-0.62 -1.39,-0.80 -1.28,-0.96 -1.16,-1.11 -1.01,-1.24 -0.86,-1.36 -0.68,-1.44 -0.51,-1.53 -0.51,-1.53 L -0.51,-1.53 Z"/></g><g transform="translate(95.86541570508055 26.166607213601623) rotate(0 4.782608695652158 0.4347826086956559)" stroke="none"><path fill="#1971c2" d="M 0.39,-1.56 Q 0.39,-1.56 1.34,-1.20 2.30,-0.83 5.47,-1.06 8.65,-1.29 8.86,-1.26 9.07,-1.23 9.26,-1.13 9.45,-1.04 9.60,-0.89 9.75,-0.74 9.84,-0.54 9.94,-0.35 9.96,-0.14 9.99,0.06 9.95,0.27 9.91,0.47 9.80,0.66 9.69,0.84 9.53,0.98 9.37,1.12 9.18,1.21 8.98,1.29 8.77,1.30 8.56,1.32 8.35,1.27 8.15,1.21 7.97,1.10 7.79,0.98 7.66,0.81 7.53,0.65 7.46,0.45 7.38,0.25 7.38,0.04 7.38,-0.17 7.44,-0.37 7.51,-0.57 7.63,-0.74 7.76,-0.92 7.93,-1.04 8.10,-1.16 8.31,-1.22 8.51,-1.28 8.72,-1.27 8.94,-1.27 9.13,-1.19 9.33,-1.12 9.50,-0.98 9.66,-0.85 9.77,-0.67 9.89,-0.49 9.94,-0.28 9.99,-0.07 9.97,0.13 9.95,0.34 9.86,0.53 9.78,0.73 9.63,0.89 9.49,1.04 9.30,1.15 9.12,1.25 8.91,1.29 8.70,1.32 8.70,1.32 8.70,1.32 6.61,1.44 4.51,1.55 3.10,1.69 1.69,1.83 0.65,1.70 -0.39,1.56 -0.57,1.49 -0.75,1.42 -0.91,1.31 -1.07,1.20 -1.20,1.05 -1.33,0.91 -1.42,0.73 -1.51,0.56 -1.55,0.37 -1.60,0.18 -1.60,-0.00 -1.60,-0.19 -1.55,-0.38 -1.50,-0.57 -1.41,-0.74 -1.32,-0.92 -1.19,-1.06 -1.06,-1.21 -0.90,-1.32 -0.74,-1.43 -0.56,-1.50 -0.38,-1.56 -0.18,-1.59 0.00,-1.61 0.19,-1.58 0.39,-1.56 0.39,-1.56 L 0.39,-1.56 Z"/></g><g transform="translate(72.3871548355153 36.60138982229725) rotate(0 1.7391304347826235 -2.842170943040401e-14)" stroke="none"><path d="M-0.45 1.38 C-0.8 1.22, -1.33 0.36, -1.11 -0.1 C-0.89 -0.55, 0.31 -1.46, 0.88 -1.36 C1.45 -1.26, 1.78 0.41, 2.31 0.51" stroke="none" stroke-width="0" fill="#ffffff" fill-rule="evenodd"/><path fill="#1971c2" d="M -0.39,-1.56 Q -0.39,-1.56 0.64,-1.66 1.68,-1.77 1.89,-1.79 2.10,-1.80 2.31,-1.75 2.51,-1.70 2.69,-1.59 2.87,-1.47 3.00,-1.31 3.14,-1.14 3.21,-0.94 3.28,-0.74 3.29,-0.53 3.30,-0.32 3.23,-0.12 3.17,0.08 3.05,0.25 2.92,0.42 2.75,0.55 2.58,0.67 2.38,0.73 2.17,0.80 1.96,0.79 1.75,0.79 1.55,0.71 1.35,0.64 1.18,0.51 1.02,0.37 0.90,0.19 0.79,0.02 0.74,-0.18 0.69,-0.39 0.70,-0.60 0.72,-0.81 0.80,-1.01 0.89,-1.20 1.03,-1.36 1.17,-1.52 1.36,-1.62 1.54,-1.73 1.75,-1.77 1.96,-1.81 2.17,-1.78 2.38,-1.75 2.57,-1.66 2.76,-1.56 2.91,-1.41 3.06,-1.26 3.16,-1.07 3.25,-0.88 3.28,-0.67 3.31,-0.46 3.27,-0.25 3.23,-0.04 3.12,0.13 3.02,0.32 2.86,0.46 2.70,0.60 2.51,0.69 2.31,0.77 2.31,0.77 2.31,0.77 1.35,1.16 0.39,1.56 0.19,1.58 0.00,1.61 -0.18,1.59 -0.38,1.56 -0.56,1.50 -0.74,1.43 -0.90,1.32 -1.06,1.21 -1.19,1.06 -1.32,0.92 -1.41,0.74 -1.50,0.57 -1.55,0.38 -1.60,0.19 -1.60,0.00 -1.60,-0.18 -1.55,-0.37 -1.51,-0.56 -1.42,-0.74 -1.33,-0.91 -1.20,-1.05 -1.07,-1.20 -0.91,-1.31 -0.75,-1.42 -0.57,-1.49 -0.39,-1.56 -0.39,-1.56 L -0.39,-1.56 Z"/></g><g transform="translate(82.82193744421099 39.21008547447124) rotate(0 2.173913043478251 -0.8695652173913118)" stroke="none"><path d="M-0.45 1.38 C-0.51 0.79, -0.03 -2.11, 0.63 -2.71 C1.29 -3.31, 3.06 -2.62, 3.49 -2.23" stroke="none" stroke-width="0" fill="#ffffff" fill-rule="evenodd"/><path fill="#1971c2" d="M -0.89,-1.34 Q -0.89,-1.34 1.45,-2.15 3.80,-2.97 4.01,-2.97 4.22,-2.98 4.42,-2.91 4.63,-2.85 4.80,-2.72 4.97,-2.60 5.09,-2.43 5.22,-2.25 5.28,-2.05 5.34,-1.84 5.33,-1.63 5.32,-1.42 5.25,-1.22 5.17,-1.02 5.04,-0.86 4.90,-0.69 4.72,-0.58 4.54,-0.47 4.34,-0.42 4.13,-0.37 3.92,-0.39 3.71,-0.41 3.51,-0.49 3.32,-0.58 3.16,-0.72 3.00,-0.86 2.90,-1.05 2.80,-1.23 2.76,-1.44 2.72,-1.65 2.75,-1.86 2.78,-2.07 2.88,-2.26 2.97,-2.45 3.12,-2.60 3.28,-2.75 3.47,-2.84 3.66,-2.94 3.87,-2.96 4.08,-2.99 4.29,-2.95 4.50,-2.91 4.68,-2.80 4.87,-2.69 5.01,-2.53 5.15,-2.38 5.23,-2.18 5.31,-1.98 5.33,-1.77 5.34,-1.56 5.29,-1.35 5.24,-1.15 5.12,-0.97 5.00,-0.79 4.84,-0.66 4.67,-0.53 4.47,-0.46 4.27,-0.39 4.27,-0.39 4.27,-0.39 2.58,0.47 0.89,1.34 0.72,1.43 0.54,1.51 0.35,1.56 0.16,1.60 -0.02,1.60 -0.22,1.59 -0.40,1.54 -0.59,1.49 -0.76,1.40 -0.93,1.31 -1.08,1.18 -1.22,1.05 -1.33,0.88 -1.44,0.72 -1.50,0.54 -1.57,0.36 -1.59,0.16 -1.61,-0.02 -1.58,-0.21 -1.56,-0.41 -1.48,-0.59 -1.41,-0.77 -1.30,-0.93 -1.19,-1.08 -1.04,-1.21 -0.89,-1.34 -0.89,-1.34 L -0.89,-1.34 Z"/></g><g transform="translate(96.73498092247186 39.21008547447124) rotate(0 3.47826086956519 -0.4347826086956559)" stroke="none"><path d="M-1.11 -0.97 C-1.32 -1.42, -3.03 -1.75, -1.73 -1.36 C-0.44 -0.97, 4.97 1.13, 6.66 1.37" stroke="none" stroke-width="0" fill="#ffffff" fill-rule="evenodd"/><path fill="#1971c2" d="M 0,-1.61 Q 0,-1.61 1.24,-1.47 2.49,-1.34 4.46,-1.32 6.43,-1.31 6.64,-1.27 6.85,-1.24 7.04,-1.14 7.23,-1.04 7.37,-0.89 7.52,-0.73 7.61,-0.54 7.70,-0.35 7.72,-0.14 7.75,0.07 7.70,0.27 7.65,0.48 7.54,0.66 7.43,0.85 7.27,0.98 7.11,1.12 6.91,1.20 6.72,1.28 6.50,1.29 6.29,1.30 6.09,1.24 5.88,1.19 5.71,1.07 5.53,0.95 5.40,0.78 5.27,0.61 5.21,0.41 5.14,0.21 5.14,-0.00 5.14,-0.21 5.21,-0.41 5.27,-0.61 5.40,-0.78 5.53,-0.95 5.71,-1.07 5.88,-1.19 6.09,-1.24 6.29,-1.30 6.50,-1.29 6.72,-1.28 6.91,-1.20 7.11,-1.12 7.27,-0.98 7.44,-0.84 7.54,-0.66 7.65,-0.48 7.70,-0.27 7.75,-0.07 7.72,0.14 7.70,0.35 7.61,0.54 7.52,0.73 7.37,0.89 7.23,1.04 7.04,1.14 6.85,1.24 6.64,1.27 6.43,1.31 6.43,1.31 6.43,1.31 4.46,1.32 2.49,1.34 1.24,1.47 0,1.61 -0.19,1.59 -0.38,1.56 -0.56,1.49 -0.75,1.42 -0.91,1.31 -1.07,1.20 -1.19,1.06 -1.32,0.91 -1.41,0.74 -1.50,0.57 -1.55,0.38 -1.60,0.19 -1.60,-0.00 -1.60,-0.19 -1.55,-0.38 -1.50,-0.57 -1.41,-0.74 -1.32,-0.91 -1.19,-1.06 -1.07,-1.20 -0.91,-1.31 -0.74,-1.42 -0.56,-1.49 -0.38,-1.56 -0.19,-1.59 0.00,-1.61 0.00,-1.61 L 0,-1.61 Z"/></g><g transform="translate(128.0393287485588 29.64486808316687) rotate(0 0.8695652173912833 0)" stroke="none"><path fill="#1971c2" d="M 0.99,-1.31 Q 0.99,-1.31 1.20,-1.27 1.41,-1.24 1.60,-1.14 1.79,-1.04 1.94,-0.89 2.08,-0.73 2.17,-0.54 2.26,-0.35 2.28,-0.14 2.31,0.07 2.26,0.27 2.22,0.48 2.11,0.66 2.00,0.85 1.83,0.98 1.67,1.12 1.47,1.20 1.28,1.28 1.07,1.29 0.85,1.30 0.65,1.24 0.44,1.19 0.27,1.07 0.09,0.95 -0.03,0.78 -0.16,0.61 -0.22,0.41 -0.29,0.21 -0.29,-0.00 -0.29,-0.21 -0.22,-0.41 -0.16,-0.61 -0.03,-0.78 0.09,-0.95 0.27,-1.07 0.44,-1.19 0.65,-1.24 0.85,-1.30 1.07,-1.29 1.28,-1.28 1.47,-1.20 1.67,-1.12 1.83,-0.98 2.00,-0.84 2.11,-0.66 2.22,-0.48 2.26,-0.27 2.31,-0.07 2.28,0.14 2.26,0.35 2.17,0.54 2.08,0.73 1.94,0.89 1.79,1.04 1.60,1.14 1.41,1.24 1.20,1.27 0.99,1.31 0.99,1.31 0.99,1.31 0.82,1.41 0.65,1.51 0.46,1.57 0.27,1.62 0.07,1.63 -0.12,1.64 -0.31,1.60 -0.51,1.56 -0.69,1.48 -0.87,1.40 -1.02,1.27 -1.18,1.15 -1.30,0.99 -1.42,0.83 -1.50,0.65 -1.58,0.46 -1.61,0.27 -1.64,0.07 -1.63,-0.12 -1.61,-0.32 -1.55,-0.50 -1.49,-0.69 -1.39,-0.86 -1.28,-1.03 -1.14,-1.17 -0.99,-1.31 0.00,-1.31 L 0.99,-1.31 Z"/></g><g transform="translate(141.95237222681968 32.25356373534075) rotate(0 2.6086956521738784 0)" stroke="none"><path d="M-1.17 1.37 C-1.21 1.47, -2.51 0.24, -1.14 0.1 C0.23 -0.04, 5.71 0.29, 7.07 0.51" stroke="none" stroke-width="0" fill="#ffffff" fill-rule="evenodd"/><path fill="#1971c2" d="M 0,-1.61 Q 0,-1.61 2.74,-1.46 5.48,-1.31 5.69,-1.27 5.90,-1.24 6.09,-1.14 6.28,-1.04 6.42,-0.89 6.57,-0.73 6.66,-0.54 6.75,-0.35 6.77,-0.14 6.79,0.07 6.75,0.27 6.70,0.48 6.59,0.66 6.48,0.85 6.32,0.98 6.16,1.12 5.96,1.20 5.76,1.28 5.55,1.29 5.34,1.30 5.14,1.24 4.93,1.19 4.76,1.07 4.58,0.95 4.45,0.78 4.32,0.61 4.25,0.41 4.19,0.21 4.19,-0.00 4.19,-0.21 4.25,-0.41 4.32,-0.61 4.45,-0.78 4.58,-0.95 4.76,-1.07 4.93,-1.19 5.14,-1.24 5.34,-1.30 5.55,-1.29 5.77,-1.28 5.96,-1.20 6.16,-1.12 6.32,-0.98 6.48,-0.84 6.59,-0.66 6.70,-0.48 6.75,-0.27 6.79,-0.07 6.77,0.14 6.75,0.35 6.66,0.54 6.57,0.73 6.42,0.89 6.28,1.04 6.09,1.14 5.90,1.24 5.69,1.27 5.48,1.31 5.48,1.31 5.48,1.31 2.74,1.46 0,1.61 -0.19,1.59 -0.38,1.56 -0.56,1.49 -0.75,1.42 -0.91,1.31 -1.07,1.20 -1.19,1.06 -1.32,0.91 -1.41,0.74 -1.50,0.57 -1.55,0.38 -1.60,0.19 -1.60,-0.00 -1.60,-0.19 -1.55,-0.38 -1.50,-0.57 -1.41,-0.74 -1.32,-0.91 -1.19,-1.06 -1.07,-1.20 -0.91,-1.31 -0.74,-1.42 -0.56,-1.49 -0.38,-1.56 -0.19,-1.59 0.00,-1.61 0.00,-1.61 L 0,-1.61 Z"/></g><g transform="translate(124.56106787899355 42.68834634403649) rotate(0 0.8695652173913118 -0.4347826086956559)" stroke="none"><path d="M0.6 0.1 C0.81 -0.19, -0.09 -0.43, 0.11 -0.36 C0.31 -0.29, 1.67 0.67, 1.81 0.51" stroke="none" stroke-width="0" fill="#ffffff" fill-rule="evenodd"/><path fill="#1971c2" d="M 0.41,-1.67 Q 0.41,-1.67 0.61,-1.73 0.81,-1.80 1.03,-1.79 1.24,-1.79 1.44,-1.71 1.64,-1.64 1.80,-1.51 1.97,-1.38 2.08,-1.20 2.20,-1.02 2.25,-0.81 2.30,-0.61 2.29,-0.39 2.27,-0.18 2.19,0.00 2.10,0.20 1.96,0.36 1.82,0.52 1.64,0.62 1.45,0.73 1.24,0.77 1.03,0.81 0.82,0.78 0.61,0.75 0.42,0.66 0.23,0.56 0.08,0.41 -0.06,0.26 -0.15,0.07 -0.25,-0.11 -0.28,-0.32 -0.31,-0.53 -0.27,-0.74 -0.23,-0.94 -0.13,-1.13 -0.02,-1.31 0.13,-1.46 0.28,-1.60 0.48,-1.68 0.67,-1.77 0.89,-1.79 1.10,-1.80 1.30,-1.75 1.51,-1.70 1.69,-1.59 1.87,-1.48 2.00,-1.31 2.14,-1.14 2.21,-0.95 2.28,-0.75 2.29,-0.53 2.30,-0.32 2.24,-0.12 2.17,0.08 2.05,0.25 1.93,0.42 1.75,0.55 1.58,0.67 1.58,0.67 1.58,0.67 1.48,0.85 1.37,1.03 1.23,1.18 1.09,1.33 0.91,1.44 0.74,1.55 0.54,1.62 0.34,1.68 0.13,1.70 -0.06,1.72 -0.27,1.69 -0.47,1.65 -0.66,1.57 -0.86,1.49 -1.02,1.36 -1.19,1.24 -1.32,1.08 -1.45,0.92 -1.54,0.73 -1.63,0.54 -1.67,0.34 -1.71,0.14 -1.71,-0.06 -1.70,-0.27 -1.64,-0.47 -1.58,-0.67 -0.58,-1.17 L 0.41,-1.67 Z"/></g><g transform="translate(137.60454613986312 43.557911561427744) rotate(0 6.521739130434781 0.4347826086956559)" stroke="none"><path fill="#1971c2" d="M 0,-1.61 Q 0,-1.61 1.74,-1.51 3.49,-1.41 5.74,-1.41 7.98,-1.41 10.30,-1.06 12.62,-0.71 12.80,-0.60 12.98,-0.49 13.12,-0.33 13.25,-0.17 13.33,0.02 13.41,0.22 13.42,0.43 13.43,0.64 13.37,0.85 13.31,1.05 13.19,1.23 13.07,1.40 12.90,1.53 12.73,1.66 12.53,1.73 12.33,1.79 12.12,1.79 11.91,1.79 11.70,1.72 11.50,1.65 11.34,1.52 11.17,1.39 11.05,1.22 10.93,1.04 10.87,0.83 10.82,0.63 10.83,0.42 10.84,0.21 10.92,0.01 11.00,-0.18 11.14,-0.34 11.28,-0.50 11.46,-0.61 11.65,-0.72 11.85,-0.76 12.06,-0.81 12.27,-0.78 12.48,-0.76 12.68,-0.67 12.87,-0.58 13.02,-0.43 13.18,-0.28 13.27,-0.10 13.37,0.08 13.41,0.29 13.44,0.50 13.40,0.71 13.37,0.92 13.27,1.11 13.17,1.30 13.01,1.44 12.86,1.59 12.66,1.67 12.47,1.76 12.26,1.78 12.05,1.81 11.84,1.76 11.63,1.71 11.63,1.71 11.63,1.71 9.81,1.56 7.98,1.41 5.74,1.41 3.49,1.41 1.74,1.51 0,1.61 -0.19,1.59 -0.38,1.56 -0.56,1.49 -0.75,1.42 -0.91,1.31 -1.07,1.20 -1.19,1.06 -1.32,0.91 -1.41,0.74 -1.50,0.57 -1.55,0.38 -1.60,0.19 -1.60,-0.00 -1.60,-0.19 -1.55,-0.38 -1.50,-0.57 -1.41,-0.74 -1.32,-0.91 -1.19,-1.06 -1.07,-1.20 -0.91,-1.31 -0.74,-1.42 -0.56,-1.49 -0.38,-1.56 -0.19,-1.59 0.00,-1.61 0.00,-1.61 L 0,-1.61 Z"/></g><g transform="translate(121.95237222681968 52.25356373534075) rotate(0 4.347826086956502 -0.8695652173913118)" stroke="none"><path fill="#1971c2" d="M -0.72,-1.44 Q -0.72,-1.44 0.37,-1.84 1.47,-2.23 2.68,-2.24 3.90,-2.26 5.76,-2.22 7.61,-2.19 7.82,-2.15 8.03,-2.12 8.22,-2.01 8.41,-1.91 8.55,-1.76 8.70,-1.60 8.78,-1.41 8.87,-1.21 8.89,-1.00 8.91,-0.79 8.87,-0.58 8.82,-0.38 8.71,-0.20 8.60,-0.02 8.43,0.11 8.27,0.25 8.07,0.32 7.87,0.40 7.66,0.41 7.45,0.42 7.24,0.36 7.04,0.30 6.87,0.18 6.69,0.06 6.56,-0.10 6.44,-0.27 6.37,-0.47 6.30,-0.67 6.31,-0.89 6.31,-1.10 6.38,-1.30 6.45,-1.50 6.58,-1.67 6.71,-1.84 6.89,-1.95 7.06,-2.07 7.27,-2.13 7.47,-2.18 7.69,-2.17 7.90,-2.15 8.09,-2.07 8.29,-1.99 8.45,-1.85 8.61,-1.72 8.72,-1.53 8.83,-1.35 8.87,-1.14 8.91,-0.93 8.89,-0.72 8.86,-0.51 8.77,-0.32 8.68,-0.13 8.54,0.02 8.39,0.17 8.20,0.27 8.01,0.36 7.80,0.40 7.59,0.43 7.59,0.43 7.59,0.43 5.06,0.33 2.52,0.23 1.62,0.84 0.72,1.44 0.53,1.50 0.35,1.57 0.16,1.59 -0.03,1.61 -0.22,1.58 -0.41,1.55 -0.59,1.48 -0.77,1.41 -0.93,1.30 -1.09,1.18 -1.22,1.03 -1.34,0.89 -1.43,0.71 -1.52,0.54 -1.56,0.35 -1.60,0.16 -1.60,-0.03 -1.59,-0.22 -1.54,-0.41 -1.49,-0.60 -1.40,-0.77 -1.30,-0.94 -1.17,-1.08 -1.04,-1.22 -0.88,-1.33 -0.72,-1.44 -0.72,-1.44 L -0.72,-1.44 Z"/></g><g transform="translate(142.82193744421093 53.123128952732) rotate(0 0.4347826086956559 -0.4347826086956559)" stroke="none"><path fill="#1971c2" d="M -0.42,-1.42 Q -0.42,-1.42 -0.25,-1.55 -0.08,-1.67 0.11,-1.73 0.32,-1.80 0.53,-1.79 0.74,-1.78 0.94,-1.71 1.14,-1.64 1.31,-1.51 1.47,-1.37 1.59,-1.19 1.70,-1.01 1.75,-0.81 1.80,-0.60 1.79,-0.39 1.77,-0.18 1.69,0.01 1.60,0.20 1.46,0.36 1.32,0.52 1.13,0.62 0.95,0.73 0.74,0.77 0.53,0.81 0.32,0.78 0.11,0.75 -0.07,0.66 -0.26,0.56 -0.41,0.41 -0.56,0.26 -0.66,0.07 -0.75,-0.11 -0.78,-0.32 -0.81,-0.53 -0.77,-0.74 -0.73,-0.95 -0.62,-1.13 -0.52,-1.32 -0.36,-1.46 -0.20,-1.60 -0.01,-1.69 0.18,-1.77 0.39,-1.79 0.60,-1.80 0.81,-1.75 1.01,-1.70 1.19,-1.59 1.37,-1.47 1.51,-1.31 1.64,-1.14 1.71,-0.94 1.78,-0.74 1.79,-0.53 1.80,-0.32 1.73,-0.11 1.67,0.08 1.55,0.25 1.42,0.42 1.42,0.42 1.42,0.42 1.35,0.59 1.28,0.75 1.17,0.90 1.06,1.04 0.92,1.15 0.78,1.26 0.62,1.34 0.45,1.41 0.28,1.45 0.10,1.48 -0.07,1.47 -0.25,1.46 -0.42,1.41 -0.59,1.36 -0.75,1.27 -0.90,1.18 -1.03,1.05 -1.16,0.93 -1.25,0.77 -1.35,0.62 -1.40,0.45 -1.46,0.28 -1.47,0.10 -1.48,-0.07 -1.45,-0.25 -1.42,-0.42 -0.92,-0.92 L -0.42,-1.42 Z"/></g><g transform="translate(29.778459183341425 33.99269417012337) rotate(0 2.608695652173907 0)" stroke="none"><path fill="#1971c2" d="M 0,-1.61 Q 0,-1.61 1.49,-1.46 2.99,-1.31 3.20,-1.27 3.41,-1.24 3.60,-1.14 3.79,-1.04 3.94,-0.89 4.08,-0.73 4.17,-0.54 4.26,-0.35 4.28,-0.14 4.31,0.07 4.26,0.27 4.22,0.48 4.11,0.66 4.00,0.85 3.83,0.98 3.67,1.12 3.47,1.20 3.28,1.28 3.07,1.29 2.85,1.30 2.65,1.24 2.44,1.19 2.27,1.07 2.09,0.95 1.96,0.78 1.83,0.61 1.77,0.41 1.70,0.21 1.70,-0.00 1.70,-0.21 1.77,-0.41 1.83,-0.61 1.96,-0.78 2.09,-0.95 2.27,-1.07 2.44,-1.19 2.65,-1.24 2.85,-1.30 3.07,-1.29 3.28,-1.28 3.47,-1.20 3.67,-1.12 3.83,-0.98 4.00,-0.84 4.11,-0.66 4.22,-0.48 4.26,-0.27 4.31,-0.07 4.28,0.14 4.26,0.35 4.17,0.54 4.08,0.73 3.94,0.89 3.79,1.04 3.60,1.14 3.41,1.24 3.20,1.27 2.99,1.31 2.99,1.31 2.99,1.31 1.49,1.46 0,1.61 -0.19,1.59 -0.38,1.56 -0.56,1.49 -0.75,1.42 -0.91,1.31 -1.07,1.20 -1.19,1.06 -1.32,0.91 -1.41,0.74 -1.50,0.57 -1.55,0.38 -1.60,0.19 -1.60,-0.00 -1.60,-0.19 -1.55,-0.38 -1.50,-0.57 -1.41,-0.74 -1.32,-0.91 -1.19,-1.06 -1.07,-1.20 -0.91,-1.31 -0.74,-1.42 -0.56,-1.49 -0.38,-1.56 -0.19,-1.59 0.00,-1.61 0.00,-1.61 L 0,-1.61 Z"/></g><g transform="translate(48.0393287485588 37.470955039688505) rotate(0 5.217391304347814 -0.8695652173912833)" stroke="none"><path fill="#1971c2" d="M -0.31,-1.58 Q -0.31,-1.58 0.95,-1.72 2.22,-1.87 5.78,-2.34 9.33,-2.81 9.55,-2.81 9.76,-2.80 9.96,-2.72 10.16,-2.65 10.32,-2.51 10.48,-2.38 10.60,-2.20 10.71,-2.01 10.76,-1.81 10.81,-1.60 10.79,-1.39 10.77,-1.18 10.68,-0.98 10.59,-0.79 10.45,-0.63 10.31,-0.48 10.12,-0.37 9.93,-0.27 9.73,-0.23 9.52,-0.20 9.31,-0.23 9.10,-0.26 8.91,-0.36 8.72,-0.45 8.57,-0.60 8.42,-0.76 8.33,-0.95 8.24,-1.14 8.21,-1.35 8.18,-1.56 8.23,-1.77 8.27,-1.98 8.38,-2.16 8.48,-2.35 8.64,-2.49 8.80,-2.63 9.00,-2.71 9.20,-2.79 9.41,-2.80 9.62,-2.82 9.82,-2.76 10.03,-2.71 10.21,-2.59 10.39,-2.48 10.52,-2.31 10.65,-2.14 10.72,-1.94 10.79,-1.74 10.79,-1.53 10.80,-1.32 10.73,-1.11 10.67,-0.91 10.54,-0.74 10.41,-0.57 10.24,-0.45 10.07,-0.33 9.86,-0.27 9.66,-0.21 9.66,-0.21 9.66,-0.21 6.21,0.32 2.77,0.87 1.54,1.22 0.31,1.58 0.12,1.59 -0.07,1.61 -0.26,1.58 -0.45,1.54 -0.63,1.47 -0.81,1.39 -0.96,1.27 -1.12,1.15 -1.24,1.00 -1.36,0.85 -1.45,0.68 -1.53,0.50 -1.57,0.31 -1.60,0.12 -1.60,-0.07 -1.59,-0.26 -1.53,-0.45 -1.48,-0.63 -1.38,-0.80 -1.28,-0.97 -1.15,-1.11 -1.01,-1.25 -0.85,-1.35 -0.68,-1.46 -0.50,-1.52 -0.31,-1.58 -0.31,-1.58 L -0.31,-1.58 Z"/></g><g transform="translate(28.90889396595017 48.7753028657755) rotate(0 1.3043478260869676 0)" stroke="none"><path fill="#1971c2" d="M 0,-1.61 Q 0,-1.61 0.75,-1.46 1.50,-1.31 1.70,-1.27 1.91,-1.24 2.10,-1.14 2.29,-1.04 2.44,-0.89 2.58,-0.73 2.67,-0.54 2.76,-0.35 2.78,-0.14 2.81,0.07 2.76,0.27 2.72,0.48 2.61,0.66 2.50,0.85 2.33,0.98 2.17,1.12 1.97,1.20 1.78,1.28 1.57,1.29 1.35,1.30 1.15,1.24 0.94,1.19 0.77,1.07 0.59,0.95 0.46,0.78 0.33,0.61 0.27,0.41 0.20,0.21 0.20,-0.00 0.20,-0.21 0.27,-0.41 0.33,-0.61 0.46,-0.78 0.59,-0.95 0.77,-1.07 0.94,-1.19 1.15,-1.24 1.35,-1.30 1.57,-1.29 1.78,-1.28 1.97,-1.20 2.17,-1.12 2.33,-0.98 2.50,-0.84 2.61,-0.66 2.72,-0.48 2.76,-0.27 2.81,-0.07 2.78,0.14 2.76,0.35 2.67,0.54 2.58,0.73 2.44,0.89 2.29,1.04 2.10,1.14 1.91,1.24 1.70,1.27 1.49,1.31 1.49,1.31 1.50,1.31 0.75,1.46 0,1.61 -0.19,1.59 -0.38,1.56 -0.56,1.49 -0.75,1.42 -0.91,1.31 -1.07,1.20 -1.19,1.06 -1.32,0.91 -1.41,0.74 -1.50,0.57 -1.55,0.38 -1.60,0.19 -1.60,-0.00 -1.60,-0.19 -1.55,-0.38 -1.50,-0.57 -1.41,-0.74 -1.32,-0.91 -1.19,-1.06 -1.07,-1.20 -0.91,-1.31 -0.74,-1.42 -0.56,-1.49 -0.38,-1.56 -0.19,-1.59 0.00,-1.61 0.00,-1.61 L 0,-1.61 Z"/></g><g transform="translate(43.6915026616023 49.64486808316687) rotate(0 4.347826086956502 -0.4347826086956559)" stroke="none"><path fill="#1971c2" d="M -0.22,-1.59 Q -0.22,-1.59 1.53,-1.75 3.29,-1.91 5.10,-1.96 6.90,-2.02 7.11,-2.00 7.33,-1.98 7.52,-1.89 7.71,-1.80 7.87,-1.65 8.02,-1.51 8.12,-1.32 8.22,-1.14 8.26,-0.93 8.30,-0.72 8.26,-0.51 8.23,-0.30 8.13,-0.11 8.03,0.07 7.88,0.22 7.73,0.36 7.53,0.46 7.34,0.55 7.13,0.57 6.92,0.59 6.71,0.55 6.50,0.51 6.32,0.40 6.14,0.29 6.00,0.13 5.86,-0.02 5.78,-0.22 5.70,-0.42 5.69,-0.63 5.68,-0.84 5.73,-1.05 5.79,-1.25 5.91,-1.43 6.02,-1.60 6.19,-1.73 6.36,-1.86 6.56,-1.93 6.76,-2.00 6.97,-2.00 7.19,-2.00 7.39,-1.94 7.59,-1.87 7.76,-1.74 7.93,-1.62 8.05,-1.44 8.17,-1.27 8.23,-1.06 8.29,-0.86 8.28,-0.65 8.27,-0.43 8.19,-0.24 8.11,-0.04 7.98,0.12 7.84,0.28 7.66,0.39 7.48,0.50 7.27,0.55 7.06,0.59 7.06,0.59 7.06,0.59 5.38,0.75 3.70,0.91 1.96,1.25 0.22,1.59 0.03,1.60 -0.16,1.60 -0.35,1.56 -0.54,1.52 -0.71,1.43 -0.88,1.34 -1.03,1.22 -1.18,1.09 -1.29,0.93 -1.41,0.77 -1.48,0.59 -1.55,0.41 -1.58,0.22 -1.61,0.03 -1.59,-0.15 -1.57,-0.35 -1.50,-0.53 -1.44,-0.71 -1.33,-0.88 -1.23,-1.04 -1.08,-1.17 -0.94,-1.30 -0.77,-1.40 -0.60,-1.49 -0.41,-1.54 -0.22,-1.59 -0.22,-1.59 L -0.22,-1.59 Z"/></g><g transform="translate(62.82193744421099 53.99269417012337) rotate(0 1.3043478260869392 -0.4347826086956559)" stroke="none"><path d="M1.27 0.1 C1.01 -0.06, -0.56 0.1, -0.27 0.16 C0.01 0.22, 2.36 0.41, 2.97 0.46" stroke="none" stroke-width="0" fill="#ffffff" fill-rule="evenodd"/><path fill="#1971c2" d="M -0.51,-1.53 Q -0.51,-1.53 0.28,-1.63 1.08,-1.74 1.29,-1.77 1.50,-1.81 1.71,-1.77 1.92,-1.74 2.11,-1.64 2.29,-1.54 2.44,-1.38 2.58,-1.23 2.67,-1.04 2.76,-0.84 2.78,-0.63 2.81,-0.42 2.76,-0.21 2.71,-0.00 2.60,0.17 2.49,0.35 2.33,0.49 2.17,0.62 1.97,0.70 1.77,0.78 1.56,0.79 1.35,0.80 1.14,0.74 0.94,0.69 0.76,0.57 0.59,0.45 0.46,0.28 0.33,0.11 0.27,-0.09 0.20,-0.29 0.20,-0.50 0.20,-0.71 0.27,-0.91 0.34,-1.11 0.47,-1.28 0.60,-1.45 0.77,-1.57 0.95,-1.69 1.15,-1.74 1.36,-1.80 1.57,-1.79 1.78,-1.78 1.98,-1.70 2.18,-1.62 2.34,-1.48 2.50,-1.34 2.61,-1.16 2.72,-0.98 2.76,-0.77 2.81,-0.56 2.78,-0.35 2.76,-0.14 2.67,0.04 2.58,0.24 2.43,0.39 2.29,0.54 2.10,0.64 1.91,0.74 1.91,0.74 1.91,0.74 1.21,1.13 0.51,1.53 0.31,1.57 0.12,1.60 -0.06,1.60 -0.25,1.59 -0.44,1.53 -0.63,1.48 -0.80,1.38 -0.97,1.28 -1.11,1.15 -1.25,1.02 -1.35,0.85 -1.45,0.69 -1.52,0.50 -1.58,0.32 -1.59,0.12 -1.61,-0.06 -1.58,-0.25 -1.55,-0.44 -1.47,-0.62 -1.39,-0.80 -1.28,-0.96 -1.16,-1.11 -1.01,-1.24 -0.86,-1.36 -0.68,-1.44 -0.51,-1.53 -0.51,-1.53 L -0.51,-1.53 Z"/></g></svg>