<svg version="1.1" xmlns="http://www.w3.org/2000/svg" viewBox="0 0 157.05552477836602 155.96876375759888" width="157.05552477836602" height="155.96876375759888" class="excalidraw-svg">
  <!-- svg-source:excalidraw -->
  
  <defs>
    <style class="style-fonts">
      @font-face {
        font-family: "Virgil";
        src: url("https://excalidraw.com/Virgil.woff2");
      }
      @font-face {
        font-family: "Cascadia";
        src: url("https://excalidraw.com/Cascadia.woff2");
      }
      @font-face {
        font-family: "Assistant";
        src: url("https://excalidraw.com/Assistant-Regular.woff2");
      }
    </style>
    
  </defs>
  <rect x="0" y="0" width="157.05552477836602" height="155.96876375759888" fill="#ffffff"/><g transform="translate(51.965830446886315 95.7828811839097) rotate(0 15.100821044638824 20.399190958794357)" stroke="none"><path d="M1.58 -0.19 C2.55 -0.88, 3.96 -3.78, 7.32 -4.86 C10.68 -5.93, 17.8 -7.29, 21.72 -6.65 C25.64 -6.01, 28.72 -3.17, 30.84 -1.01 C32.96 1.15, 34.23 -0.18, 34.42 6.31 C34.61 12.81, 32.29 32.1, 32 37.97 C31.7 43.84, 32.76 40.51, 32.66 41.52 C32.56 42.53, 32 44.68, 31.39 44.01 C30.78 43.34, 29.13 38.9, 28.98 37.52 C28.82 36.13, 31 35.43, 30.48 35.71 C29.97 35.98, 27.26 38.56, 25.89 39.18 C24.51 39.8, 25.23 38.89, 22.22 39.43 C19.21 39.96, 11.67 40.85, 7.81 42.4 C3.96 43.94, 0.86 48.73, -0.92 48.72 C-2.69 48.7, -2.59 46.27, -2.82 42.28 C-3.06 38.3, -2.38 29.74, -2.3 24.79 C-2.22 19.84, -2.23 15.7, -2.34 12.59 C-2.46 9.48, -3.21 7.73, -3.01 6.14 C-2.8 4.55, -0.83 4.27, -1.09 3.07" stroke="none" stroke-width="0" fill="#a5d8ff" fill-rule="evenodd"/><path fill="transparent" d="M -1.37,-2.91 Q -1.37,-2.91 0.12,-3.52 1.62,-4.13 3.73,-4.81 5.84,-5.50 8.31,-5.86 10.79,-6.23 12.97,-6.63 15.16,-7.03 17.43,-7.45 19.70,-7.87 22.74,-7.94 25.77,-8.00 26.69,-7.40 27.60,-6.80 27.91,-6.59 28.22,-6.38 28.47,-6.10 28.72,-5.82 28.90,-5.49 29.08,-5.16 29.17,-4.79 29.26,-4.43 29.26,-4.05 29.27,-3.68 29.18,-3.31 29.09,-2.95 28.92,-2.62 28.75,-2.28 28.50,-2.00 28.25,-1.72 27.94,-1.50 27.64,-1.29 27.29,-1.15 26.94,-1.02 26.56,-0.97 26.19,-0.92 25.82,-0.96 25.45,-1.01 25.09,-1.14 24.74,-1.27 23.85,-2.36 22.95,-3.45 22.89,-3.82 22.83,-4.18 22.86,-4.55 22.88,-4.92 23.00,-5.28 23.11,-5.63 23.31,-5.94 23.51,-6.26 23.77,-6.52 24.04,-6.77 24.36,-6.96 24.68,-7.15 25.03,-7.25 25.39,-7.36 25.76,-7.38 26.13,-7.40 26.49,-7.32 26.85,-7.25 27.19,-7.10 27.53,-6.94 27.81,-6.71 28.10,-6.47 28.33,-6.18 28.55,-5.89 28.70,-5.55 28.85,-5.21 30.61,-3.72 32.37,-2.23 33.41,-0.10 34.45,2.03 34.92,4.26 35.39,6.49 35.62,9.10 35.84,11.71 35.76,14.38 35.68,17.05 35.71,19.46 35.74,21.88 35.91,24.25 36.09,26.63 36.38,29.18 36.67,31.74 36.52,34.15 36.37,36.56 36.85,39.05 37.33,41.54 37.07,42.12 36.81,42.71 36.70,43.13 36.60,43.56 36.40,43.95 36.20,44.33 35.91,44.66 35.62,44.99 35.26,45.24 34.90,45.49 34.49,45.64 34.08,45.80 33.65,45.85 33.22,45.91 32.78,45.86 32.35,45.81 31.94,45.65 31.53,45.50 31.17,45.25 30.81,45.00 30.52,44.68 30.23,44.35 30.02,43.96 29.82,43.58 29.71,43.15 29.61,42.73 29.61,42.29 29.60,41.85 27.45,41.75 25.30,41.64 23.08,41.20 20.85,40.75 18.32,41.72 15.79,42.69 13.35,43.67 10.91,44.64 8.88,45.83 6.85,47.03 4.95,48.02 3.06,49.02 0.89,48.54 -1.26,48.05 -2.34,46.14 -3.41,44.23 -3.76,41.82 -4.11,39.42 -4.23,37.14 -4.36,34.87 -4.81,32.34 -5.26,29.81 -5.26,27.15 -5.26,24.49 -5.60,22.24 -5.95,20.00 -6.25,17.85 -6.55,15.70 -7.01,13.51 -7.47,11.33 -7.52,8.98 -7.56,6.63 -6.51,3.48 -5.46,0.33 -5.37,0.02 -5.28,-0.27 -5.12,-0.54 -4.96,-0.82 -4.74,-1.04 -4.52,-1.27 -4.25,-1.44 -3.98,-1.61 -3.68,-1.71 -3.38,-1.80 -3.06,-1.83 -2.75,-1.85 -2.43,-1.80 -2.12,-1.75 -1.83,-1.62 -1.54,-1.50 -1.29,-1.30 -1.04,-1.11 -0.84,-0.87 -0.64,-0.62 -0.51,-0.33 -0.37,-0.05 -0.31,0.26 -0.25,0.57 -0.26,0.88 -0.28,1.20 -0.26,0.98 -0.24,0.75 -0.31,1.17 -0.38,1.59 -0.57,1.97 -0.77,2.34 -1.08,2.64 -1.39,2.93 -1.77,3.11 -2.16,3.29 -2.58,3.34 -3.00,3.39 -3.42,3.30 -3.83,3.21 -4.20,2.99 -4.56,2.77 -4.84,2.45 -5.11,2.12 -5.27,1.73 -5.43,1.33 -5.46,0.91 -5.48,0.49 -5.37,0.08 -5.25,-0.32 -5.02,-0.68 -4.78,-1.03 -4.44,-1.29 -4.11,-1.54 -3.70,-1.68 -3.30,-1.82 -2.88,-1.82 -2.45,-1.82 -2.05,-1.69 -1.64,-1.55 -1.31,-1.30 -0.97,-1.04 -0.73,-0.69 -0.49,-0.34 -0.37,0.06 -0.26,0.47 -0.28,0.89 -0.30,1.32 -0.46,1.71 -0.61,2.11 -0.89,2.43 -1.16,2.76 -1.52,2.98 -1.89,3.20 -2.30,3.29 -2.72,3.38 -3.14,3.34 -3.56,3.30 -3.95,3.12 -4.33,2.94 -4.64,2.65 -4.95,2.36 -5.15,1.98 -5.35,1.61 -5.41,0.97 -5.46,0.33 -5.37,0.02 -5.28,-0.27 -5.12,-0.54 -4.96,-0.82 -4.74,-1.04 -4.52,-1.27 -4.25,-1.44 -3.98,-1.61 -3.68,-1.71 -3.38,-1.80 -3.06,-1.83 -2.75,-1.85 -2.43,-1.80 -2.12,-1.75 -1.83,-1.62 -1.54,-1.50 -1.29,-1.30 -1.04,-1.11 -0.84,-0.87 -0.64,-0.62 -0.51,-0.33 -0.37,-0.05 -0.31,0.25 -0.25,0.57 -0.26,0.88 -0.28,1.20 -0.74,3.49 -1.21,5.78 -1.30,8.11 -1.38,10.45 -0.88,12.95 -0.37,15.45 -0.05,17.65 0.26,19.84 0.60,22.06 0.94,24.29 0.93,26.91 0.93,29.54 1.43,32.01 1.92,34.49 2.07,37.20 2.22,39.91 1.21,41.90 0.19,43.90 2.37,42.58 4.54,41.26 6.45,40.14 8.37,39.02 10.32,38.16 12.28,37.29 14.79,36.56 17.30,35.82 19.34,35.11 21.38,34.39 24.10,34.15 26.82,33.91 29.04,34.04 31.27,34.17 33.22,36.28 35.16,38.39 35.98,40.55 36.81,42.71 36.70,43.13 36.60,43.56 36.40,43.95 36.20,44.33 35.91,44.66 35.62,44.99 35.26,45.24 34.90,45.49 34.49,45.64 34.08,45.80 33.65,45.85 33.22,45.91 32.78,45.86 32.35,45.81 31.94,45.65 31.53,45.50 31.17,45.25 30.81,45.00 30.52,44.68 30.23,44.35 30.02,43.96 29.82,43.58 29.71,43.15 29.61,42.73 29.61,42.29 29.60,41.85 30.17,41.12 30.73,40.39 29.93,38.29 29.13,36.19 29.20,33.80 29.27,31.42 29.01,29.08 28.75,26.74 28.61,24.31 28.47,21.88 28.52,19.59 28.58,17.31 28.76,15.11 28.93,12.90 28.85,10.60 28.76,8.30 28.47,5.96 28.18,3.61 27.11,1.70 26.03,-0.20 24.49,-1.83 22.95,-3.45 22.89,-3.82 22.83,-4.18 22.86,-4.55 22.88,-4.92 23.00,-5.28 23.11,-5.63 23.31,-5.94 23.51,-6.26 23.77,-6.52 24.04,-6.77 24.36,-6.96 24.68,-7.15 25.03,-7.25 25.39,-7.36 25.76,-7.38 26.13,-7.40 26.49,-7.32 26.85,-7.25 27.19,-7.10 27.52,-6.94 27.81,-6.71 28.10,-6.47 28.33,-6.18 28.55,-5.89 28.70,-5.55 28.85,-5.21 28.22,-6.00 27.60,-6.80 27.91,-6.59 28.22,-6.38 28.47,-6.10 28.72,-5.82 28.90,-5.49 29.08,-5.16 29.17,-4.79 29.26,-4.43 29.26,-4.05 29.27,-3.68 29.18,-3.31 29.09,-2.95 28.92,-2.62 28.75,-2.28 28.50,-2.00 28.25,-1.72 27.94,-1.50 27.64,-1.29 27.29,-1.15 26.94,-1.02 26.56,-0.97 26.19,-0.92 25.82,-0.96 25.45,-1.01 25.09,-1.14 24.74,-1.27 24.19,-1.75 23.63,-2.23 21.35,-1.78 19.08,-1.32 16.81,-0.88 14.54,-0.43 11.73,-0.19 8.91,0.05 6.57,0.71 4.22,1.37 2.79,2.14 1.37,2.91 1.00,3.04 0.63,3.16 0.25,3.19 -0.13,3.22 -0.52,3.16 -0.90,3.09 -1.26,2.94 -1.62,2.79 -1.93,2.55 -2.24,2.32 -2.48,2.02 -2.73,1.71 -2.89,1.36 -3.06,1.01 -3.14,0.63 -3.21,0.25 -3.20,-0.13 -3.18,-0.52 -3.07,-0.89 -2.96,-1.27 -2.77,-1.60 -2.57,-1.94 -2.30,-2.22 -2.03,-2.50 -1.70,-2.71 -1.37,-2.91 -1.37,-2.91 L -1.37,-2.91 Z"/></g><g stroke-linecap="round"><g transform="translate(49.42253427094707 93.78296050167489) rotate(0 37.03675056211417 -3.5998572280225645)"><path d="M0.43 -0.84 C2.85 -1.91, 9.14 -4.61, 13.52 -5.97 C17.9 -7.34, 22.7 -10.32, 26.71 -9.05 C30.72 -7.78, 33.76 1.51, 37.58 1.64 C41.4 1.76, 43.5 -8.28, 49.65 -8.31 C55.8 -8.33, 70.26 0.06, 74.46 1.49 M-0.8 1.34 C1.62 0.36, 8.57 -3.24, 13 -4.84 C17.43 -6.45, 21.67 -9.59, 25.79 -8.29 C29.9 -6.99, 33.91 2.9, 37.7 2.97 C41.49 3.04, 42.76 -7.51, 48.54 -7.87 C54.33 -8.23, 68.46 -0.88, 72.41 0.81" stroke="#1e1e1e" stroke-width="1" fill="none"/></g></g><mask/><g stroke-linecap="round"><g transform="translate(51.33000640290143 143.3809934210965) rotate(0 37.03675056211417 -3.5998572280225716)"><path d="M0.81 -0.78 C2.8 -1.68, 8.08 -5.12, 12.41 -6.25 C16.74 -7.38, 22.42 -8.82, 26.77 -7.56 C31.13 -6.31, 34.76 1.32, 38.52 1.29 C42.28 1.27, 43.29 -7.54, 49.34 -7.71 C55.4 -7.88, 70.83 -1.19, 74.86 0.25 M-0.23 1.43 C1.55 0.72, 6.95 -3.42, 11.3 -5.27 C15.65 -7.12, 21.24 -10.96, 25.88 -9.68 C30.52 -8.39, 35.43 1.99, 39.13 2.44 C42.83 2.9, 42.42 -6.98, 48.07 -6.96 C53.72 -6.93, 68.72 1.49, 73.03 2.59" stroke="#1e1e1e" stroke-width="1" fill="none"/></g></g><mask/><g stroke-linecap="round"><g transform="translate(125.7214195491222 93.38297636522793) rotate(0 0.4768680329885946 23.999048186816893)"><path d="M-0.14 -0.48 C-0.06 7.61, 0.6 40.11, 0.84 48.2 M0.79 0.46 C0.75 8.41, 0.3 39.3, 0.35 47.33" stroke="#1e1e1e" stroke-width="1" fill="none"/></g></g><mask/><g stroke-linecap="round"><g transform="translate(48.46879820496994 94.18294463812185) rotate(0 0.47686803298859104 23.999048186816893)"><path d="M-0.11 0.2 C0.12 8.29, 1.06 40.02, 1.27 48.04 M0.83 -0.17 C1.03 8.05, 0.99 40.83, 1 48.76" stroke="#1e1e1e" stroke-width="1" fill="none"/></g></g><mask/><g stroke-linecap="round"><g transform="translate(86.30032882206504 95.78288118390958) rotate(0 0.4768680329885946 23.999048186816893)"><path d="M0.32 0.04 C0.52 8.06, 0.96 40.36, 1.13 48.31 M-0.18 -0.41 C-0.02 7.43, 0.57 39.41, 0.79 47.51" stroke="#1e1e1e" stroke-width="1" fill="none"/></g></g><mask/><g transform="translate(88.52571297601182 102.58261150350779) rotate(0 18.756809297551342 12.599500298078858)" stroke="none"><path d="M0.46 -1.87 C0.95 -1.7, 1.5 -4.16, 1.57 -1.15 C1.65 1.86, 1.22 10.79, 0.92 16.18 C0.61 21.58, -0.65 28.44, -0.26 31.23 C0.12 34.02, -0.52 32.61, 3.21 32.91 C6.93 33.2, 17.93 33.15, 22.1 33.01 C26.26 32.87, 26.2 32.39, 28.2 32.07 C30.2 31.74, 32.36 33.1, 34.11 31.06 C35.85 29.01, 38.16 23.13, 38.66 19.8 C39.16 16.47, 38.14 14, 37.1 11.09 C36.06 8.18, 33.84 4.6, 32.42 2.35 C31 0.11, 29.65 -1.02, 28.6 -2.4 C27.55 -3.79, 28.22 -5.22, 26.12 -5.93 C24.02 -6.64, 20.02 -6.95, 16 -6.67 C11.99 -6.39, 4.56 -5.34, 2.04 -4.27 C-0.49 -3.21, 1.45 -0.47, 0.87 -0.26" stroke="none" stroke-width="0" fill="#a5d8ff" fill-rule="evenodd"/><path fill="transparent" d="M 0.83,-1.45 Q 0.83,-1.45 0.85,-0.80 0.87,-0.15 0.87,0.67 0.87,1.50 0.88,2.51 0.88,3.51 0.98,4.36 1.09,5.20 1.14,5.98 1.18,6.75 1.21,7.36 1.24,7.97 1.26,8.60 1.28,9.23 1.29,9.87 1.30,10.51 1.55,11.56 1.79,12.61 1.86,13.20 1.93,13.79 2.12,15.09 2.31,16.39 2.34,17.02 2.37,17.64 2.38,18.28 2.39,18.92 2.29,19.56 2.20,20.20 2.15,21.05 2.10,21.90 2.09,22.76 2.09,23.62 2.09,24.52 2.09,25.42 2.09,26.24 2.09,27.07 2.10,27.65 2.10,28.24 2.10,28.93 2.10,29.61 2.80,30.00 3.50,30.40 4.34,30.56 5.18,30.73 5.79,30.75 6.40,30.78 7.55,30.79 8.71,30.80 9.75,30.90 10.79,31.00 11.68,31.04 12.58,31.09 13.36,31.10 14.14,31.12 14.77,31.12 15.40,31.13 16.06,31.13 16.73,31.14 17.41,31.14 18.09,31.14 18.68,31.14 19.27,31.14 19.82,31.24 20.37,31.35 21.14,31.47 21.91,31.60 22.51,31.65 23.11,31.70 23.65,31.73 24.20,31.75 25.10,31.76 26.01,31.77 26.75,31.57 27.49,31.37 28.31,31.14 29.13,30.92 29.94,30.80 30.74,30.68 31.37,30.46 32.00,30.24 32.56,30.04 33.12,29.85 33.52,29.28 33.93,28.71 34.25,28.02 34.58,27.33 34.73,26.66 34.89,25.99 35.07,25.15 35.25,24.30 35.55,23.37 35.86,22.43 35.94,21.83 36.02,21.24 36.19,20.43 36.36,19.62 36.53,18.94 36.71,18.26 36.73,17.67 36.76,17.08 36.77,16.09 36.78,15.10 36.79,14.35 36.79,13.60 36.79,12.84 36.78,12.09 36.61,11.04 36.43,9.99 36.24,9.28 36.06,8.58 35.97,8.04 35.88,7.50 35.63,6.88 35.38,6.26 35.13,5.77 34.87,5.27 34.47,4.51 34.08,3.75 33.65,3.03 33.22,2.30 32.82,1.78 32.42,1.25 31.94,0.71 31.46,0.18 31.06,-0.32 30.65,-0.82 30.05,-1.53 29.45,-2.25 28.94,-2.78 28.44,-3.30 27.81,-3.79 27.17,-4.27 26.56,-4.44 25.95,-4.60 25.28,-4.64 24.62,-4.67 23.56,-4.87 22.51,-5.08 21.81,-5.36 21.10,-5.64 20.54,-5.84 19.98,-6.03 18.95,-6.25 17.92,-6.47 17.11,-6.53 16.29,-6.60 15.64,-6.62 14.99,-6.64 14.40,-6.52 13.80,-6.39 13.22,-6.25 12.64,-6.10 12.08,-6.07 11.51,-6.03 10.84,-5.81 10.16,-5.58 9.59,-5.43 9.03,-5.29 8.38,-5.13 7.73,-4.97 6.93,-4.87 6.13,-4.76 5.42,-4.55 4.71,-4.35 4.16,-4.09 3.61,-3.84 3.06,-3.67 2.50,-3.49 1.42,-2.75 0.34,-2.00 0.32,-1.89 0.30,-1.79 0.25,-1.70 0.20,-1.60 0.12,-1.53 0.04,-1.46 -0.05,-1.42 -0.15,-1.38 -0.25,-1.37 -0.36,-1.36 -0.46,-1.39 -0.57,-1.41 -0.65,-1.47 -0.74,-1.53 -0.81,-1.61 -0.88,-1.69 -0.91,-1.79 -0.95,-1.89 -0.95,-2.00 -0.96,-2.10 -0.93,-2.20 -0.90,-2.31 -0.83,-2.39 -0.77,-2.48 -0.69,-2.54 -0.60,-2.60 -0.50,-2.63 -0.40,-2.67 -0.29,-2.66 -0.18,-2.66 -0.08,-2.62 0.01,-2.59 0.09,-2.52 0.17,-2.45 0.23,-2.37 0.29,-2.28 0.31,-2.17 0.34,-2.07 0.33,-1.96 0.32,-1.86 0.28,-1.76 0.24,-1.66 0.17,-1.58 0.10,-1.50 0.00,-1.45 -0.08,-1.40 -0.18,-1.38 -0.29,-1.36 -0.39,-1.37 -0.50,-1.39 -0.59,-1.43 -0.69,-1.48 -0.76,-1.56 -0.84,-1.63 -0.89,-1.73 -0.93,-1.82 -0.95,-1.93 -0.96,-2.03 -0.96,-2.03 -0.96,-2.03 0.04,-3.59 1.05,-5.15 1.80,-5.23 2.55,-5.31 3.11,-5.64 3.68,-5.98 4.33,-6.18 4.98,-6.38 5.79,-6.51 6.59,-6.65 7.20,-6.82 7.80,-6.99 8.68,-7.17 9.55,-7.35 10.10,-7.48 10.65,-7.61 11.53,-7.77 12.40,-7.93 13.25,-8.13 14.10,-8.32 14.83,-8.43 15.56,-8.53 16.49,-8.50 17.42,-8.47 18.39,-8.29 19.37,-8.11 20.00,-8.00 20.63,-7.90 21.23,-7.69 21.83,-7.47 22.46,-7.22 23.08,-6.97 24.10,-6.80 25.12,-6.62 25.71,-6.59 26.30,-6.55 26.85,-6.37 27.41,-6.19 28.06,-5.90 28.72,-5.61 29.29,-5.16 29.87,-4.72 30.46,-4.11 31.06,-3.49 31.49,-2.97 31.92,-2.46 32.25,-2.02 32.57,-1.58 32.98,-1.16 33.38,-0.73 33.87,-0.28 34.36,0.17 34.64,0.68 34.93,1.19 35.41,1.99 35.90,2.79 36.30,3.56 36.71,4.33 37.16,5.28 37.61,6.22 37.84,7.14 38.06,8.06 38.24,8.78 38.43,9.50 38.65,10.79 38.87,12.09 38.87,12.85 38.87,13.60 38.86,14.36 38.86,15.11 38.86,16.13 38.86,17.14 38.83,17.86 38.80,18.58 38.63,19.24 38.46,19.90 38.31,20.67 38.16,21.43 38.04,22.21 37.92,22.99 37.73,23.67 37.53,24.36 37.30,24.93 37.07,25.51 36.89,26.41 36.71,27.30 36.51,27.96 36.30,28.62 35.99,29.25 35.68,29.87 35.28,30.35 34.89,30.82 34.51,31.22 34.13,31.61 33.40,31.88 32.66,32.15 31.96,32.39 31.26,32.63 30.37,32.78 29.47,32.92 28.76,33.12 28.04,33.32 27.02,33.56 26.01,33.80 25.06,33.79 24.11,33.77 23.52,33.74 22.93,33.72 22.25,33.65 21.58,33.59 20.42,33.37 19.26,33.15 18.67,33.15 18.09,33.15 17.40,33.15 16.72,33.15 16.05,33.15 15.37,33.14 14.73,33.14 14.09,33.13 13.29,33.11 12.49,33.09 11.54,33.04 10.59,33.00 9.64,32.91 8.69,32.81 7.50,32.80 6.32,32.79 5.64,32.77 4.96,32.74 3.82,32.50 2.68,32.25 2.12,32.00 1.56,31.75 1.00,31.31 0.45,30.88 0.24,30.06 0.03,29.24 0.03,28.50 0.03,27.76 0.03,27.04 0.04,26.31 0.04,25.46 0.04,24.62 0.05,23.58 0.07,22.55 0.09,21.76 0.11,20.97 0.26,19.96 0.40,18.95 0.39,18.33 0.39,17.71 0.37,17.12 0.35,16.53 0.32,15.84 0.29,15.15 0.10,14.10 -0.07,13.05 -0.21,12.42 -0.35,11.79 -0.46,11.16 -0.56,10.53 -0.55,9.89 -0.55,9.26 -0.55,8.64 -0.54,8.02 -0.55,7.43 -0.56,6.85 -0.59,6.12 -0.63,5.39 -0.73,4.45 -0.82,3.51 -0.82,2.51 -0.81,1.50 -0.81,0.67 -0.81,-0.15 -0.79,-0.80 -0.77,-1.45 -0.76,-1.55 -0.75,-1.65 -0.72,-1.74 -0.68,-1.83 -0.63,-1.91 -0.57,-1.99 -0.50,-2.05 -0.42,-2.12 -0.34,-2.16 -0.25,-2.21 -0.16,-2.23 -0.06,-2.26 0.02,-2.26 0.12,-2.26 0.22,-2.23 0.31,-2.21 0.40,-2.16 0.48,-2.12 0.56,-2.05 0.63,-1.99 0.68,-1.91 0.74,-1.83 0.77,-1.74 0.81,-1.65 0.82,-1.55 0.83,-1.45 0.83,-1.45 L 0.83,-1.45 Z"/></g><g stroke-linecap="round"><g transform="translate(94.24812937187497 102.98259563995464) rotate(0 11.921700824714838 2.1316282072803006e-14)"><path d="M0.36 -0.25 C1.78 -0.83, 4.72 -3.8, 8.66 -3.14 C12.61 -2.48, 21.45 2.62, 24.02 3.69 M-0.12 0.81 C1.19 0.31, 4.13 -2.75, 8.11 -2.41 C12.09 -2.07, 21.06 1.84, 23.76 2.87" stroke="#1e1e1e" stroke-width="2" fill="none"/></g></g><mask/><g stroke-linecap="round"><g transform="translate(95.20186543785209 111.78224664178754) rotate(0 11.921700824714838 2.1316282072803006e-14)"><path d="M-0.24 0.06 C1.21 -0.35, 5.03 -3.24, 9.07 -2.71 C13.12 -2.19, 21.55 2.3, 24.05 3.23 M0.64 -0.39 C2.01 -0.92, 4.87 -4.13, 8.73 -3.43 C12.59 -2.73, 21.22 2.73, 23.81 3.84" stroke="#1e1e1e" stroke-width="2" fill="none"/></g></g><mask/><g stroke-linecap="round"><g transform="translate(95.51977745984456 124.98172314453689) rotate(0 11.921700824714838 1.4210854715202004e-14)"><path d="M0.17 0.49 C1.73 -0.05, 5.13 -3.57, 9.11 -3.17 C13.09 -2.77, 21.69 1.77, 24.07 2.88 M-0.4 0.26 C1.12 -0.19, 4.75 -2.97, 8.79 -2.46 C12.83 -1.95, 21.43 2.5, 23.83 3.31" stroke="#1e1e1e" stroke-width="2" fill="none"/></g></g><mask/><g transform="translate(69.13307963447565 115.38210386981007) rotate(0 -0.31791202199240587 -0.19999206822346594)" stroke="none"><path fill="transparent" d="M -2.23,1.40 Q -2.23,1.40 -2.44,1.03 -2.65,0.66 -2.73,0.24 -2.80,-0.17 -2.74,-0.59 -2.68,-1.01 -2.49,-1.39 -2.30,-1.77 -2.00,-2.07 -1.70,-2.37 -1.32,-2.55 -0.93,-2.74 -0.51,-2.80 -0.09,-2.85 0.31,-2.77 0.73,-2.69 1.10,-2.47 1.47,-2.26 1.75,-1.95 2.03,-1.63 2.20,-1.24 2.36,-0.84 2.40,-0.42 2.43,-0.00 2.32,0.40 2.22,0.82 1.99,1.17 1.76,1.53 1.42,1.79 1.09,2.06 0.69,2.20 0.29,2.35 -0.12,2.36 -0.55,2.37 -0.95,2.24 -1.36,2.11 -1.70,1.86 -2.05,1.61 -2.29,1.27 -2.54,0.92 -2.66,0.51 -2.78,0.10 -2.77,-0.31 -2.75,-0.73 -2.61,-1.13 -2.46,-1.53 -2.19,-1.86 -1.92,-2.19 -1.56,-2.42 -1.20,-2.64 -0.79,-2.74 -0.38,-2.84 0.04,-2.81 0.46,-2.77 0.85,-2.60 1.24,-2.43 1.55,-2.14 1.87,-1.86 1.87,-1.86 1.87,-1.86 2.06,-1.61 2.26,-1.36 2.39,-1.07 2.52,-0.78 2.58,-0.46 2.63,-0.15 2.61,0.16 2.59,0.48 2.50,0.78 2.40,1.09 2.24,1.36 2.07,1.63 1.85,1.85 1.62,2.08 1.35,2.24 1.07,2.41 0.77,2.50 0.46,2.60 0.15,2.61 -0.16,2.63 -0.47,2.57 -0.79,2.52 -1.08,2.38 -1.37,2.25 -1.62,2.06 -1.87,1.86 -2.05,1.63 L -2.23,1.40 Z"/></g><g stroke-linecap="round"><g transform="translate(80.57791242620195 103.3825797764016) rotate(0 -13.511260934676855 -0.7999682728938851)"><path d="M0.22 -0.32 C-1.43 -0.89, -5.19 -3.78, -9.7 -3.35 C-14.21 -2.92, -23.93 1.31, -26.84 2.23 M-0.32 0.7 C-1.83 -0.03, -4.25 -4.29, -8.71 -4.19 C-13.17 -4.09, -24.03 0.12, -27.1 1.28" stroke="#1e1e1e" stroke-width="2" fill="none"/></g></g><mask/><g stroke-linecap="round"><g transform="translate(81.21373647018672 113.78216732402234) rotate(0 -13.511260934676855 -0.7999682728938851)"><path d="M-0.48 0.25 C-2.02 -0.26, -4.59 -3.69, -9.04 -3.37 C-13.49 -3.05, -24.17 1.37, -27.17 2.19 M0.28 -0.1 C-1.34 -0.74, -4.73 -4.44, -9.38 -4.22 C-14.03 -4, -24.67 0.22, -27.6 1.22" stroke="#1e1e1e" stroke-width="2" fill="none"/></g></g><mask/><g stroke-linecap="round"><g transform="translate(82.80329658014861 124.58173900808993) rotate(0 -13.511260934676855 -0.799968272893878)"><path d="M0.18 0.23 C-1.3 -0.38, -4.83 -3.63, -9.37 -3.41 C-13.9 -3.19, -24.05 0.66, -27.03 1.54 M-0.39 -0.13 C-1.92 -0.93, -5.38 -4.62, -9.88 -4.28 C-14.37 -3.94, -24.49 0.81, -27.38 1.9" stroke="#1e1e1e" stroke-width="2" fill="none"/></g></g><mask/><g stroke-linecap="round"><g transform="translate(10.326100287586456 104.99999999999989) rotate(0 27.99999999999997 -21.5)"><path d="M-0.33 0.41 C0.44 -2.01, 1.35 -6.72, 4.99 -14.01 C8.63 -21.3, 14.55 -39.02, 21.53 -43.34 C28.5 -47.67, 41.13 -44.42, 46.82 -39.96 C52.52 -35.5, 53.97 -20.71, 55.68 -16.57 M1.7 -0.42 C2.28 -2.76, 0.9 -6.04, 4.03 -13 C7.17 -19.97, 13.35 -37.38, 20.51 -42.21 C27.67 -47.03, 40.78 -46.26, 46.98 -41.97 C53.18 -37.68, 56.3 -20.86, 57.7 -16.48" stroke="#1e1e1e" stroke-width="2" fill="none"/></g></g><mask/><g stroke-linecap="round"><g transform="translate(58.3261002875864 61.999999999999886) rotate(0 21 -0.5)"><path d="M-0.01 -1.01 C0.3 -1.8, 0.05 -2.68, 1.53 -4.34 C3 -6, 3.46 -9.92, 8.82 -10.96 C14.18 -12, 27.97 -14.38, 33.68 -10.57 C39.39 -6.76, 41.57 8.34, 43.08 11.88 M-1.48 1.07 C-1.34 0.42, -1.24 -0.68, 0.33 -2.99 C1.9 -5.29, 2.39 -11.63, 7.97 -12.76 C13.54 -13.89, 28.05 -14.01, 33.76 -9.76 C39.46 -5.52, 40.99 9.53, 42.17 12.73" stroke="#1e1e1e" stroke-width="2" fill="none"/></g></g><mask/><g stroke-linecap="round"><g transform="translate(95.32610028758646 85.99999999999989) rotate(0 25.49999999999997 -6.5)"><path d="M-0.47 -0.34 C0.17 -2, 1.13 -6.26, 3.82 -10.96 C6.52 -15.67, 9.3 -26.21, 15.68 -28.57 C22.05 -30.93, 36.07 -32.32, 42.08 -25.12 C48.09 -17.92, 50.11 7.98, 51.73 14.65 M1.48 -1.57 C1.95 -3.45, 0.57 -8.21, 2.78 -12.54 C4.99 -16.87, 8.67 -25.1, 14.74 -27.55 C20.82 -30, 33.25 -34.28, 39.23 -27.22 C45.22 -20.15, 48.86 8.02, 50.64 14.86" stroke="#1e1e1e" stroke-width="2" fill="none"/></g></g><mask/><g stroke-linecap="round" transform="translate(29.326100287586456 21) rotate(0 15.999999999999972 14.999999999999943)"><path d="M15.29 0.34 C18.55 -0.08, 22.59 1.34, 25.29 3.21 C28 5.08, 30.72 8.55, 31.5 11.54 C32.27 14.54, 31.48 18.3, 29.94 21.18 C28.4 24.06, 25.34 27.4, 22.25 28.85 C19.17 30.3, 14.61 30.82, 11.42 29.88 C8.23 28.94, 4.96 26.02, 3.1 23.2 C1.24 20.38, -0.1 16.22, 0.25 12.98 C0.6 9.75, 2.58 5.98, 5.23 3.77 C7.88 1.57, 14.21 0.25, 16.13 -0.25 C18.05 -0.75, 16.81 0.46, 16.73 0.76 M16.94 0.17 C20.04 0.25, 24.25 2.71, 26.65 5.02 C29.06 7.33, 30.95 10.97, 31.35 14.03 C31.76 17.09, 30.8 20.74, 29.05 23.39 C27.31 26.03, 24.11 29, 20.9 29.88 C17.69 30.77, 12.93 29.98, 9.79 28.69 C6.66 27.4, 3.73 25.14, 2.1 22.14 C0.46 19.13, -0.74 13.81, -0.01 10.66 C0.72 7.5, 3.67 4.96, 6.47 3.18 C9.26 1.41, 15.09 0.46, 16.77 0.01 C18.44 -0.43, 16.51 0.29, 16.51 0.51" stroke="#1e1e1e" stroke-width="2" fill="none"/></g><g stroke-linecap="round" transform="translate(64.32610028758646 10) rotate(0 15.999999999999972 14.999999999999943)"><path d="M19.42 0.7 C22.57 1.16, 26.7 3.64, 28.72 6.08 C30.74 8.52, 31.76 12.11, 31.56 15.32 C31.36 18.53, 29.79 22.83, 27.51 25.34 C25.23 27.84, 21.16 30.01, 17.86 30.36 C14.56 30.71, 10.54 29.34, 7.7 27.44 C4.87 25.55, 1.89 22.12, 0.87 19.01 C-0.16 15.89, 0.21 11.7, 1.57 8.76 C2.93 5.83, 5.96 2.71, 9.04 1.4 C12.12 0.09, 18.21 1, 20.05 0.92 C21.9 0.84, 20.15 0.69, 20.1 0.9 M18.4 0.97 C21.6 1.41, 25.56 3.61, 27.81 5.95 C30.05 8.3, 31.72 11.85, 31.88 15.06 C32.04 18.27, 30.92 22.74, 28.78 25.21 C26.63 27.67, 22.43 29.28, 19.03 29.85 C15.63 30.41, 11.48 30.34, 8.38 28.59 C5.27 26.85, 1.65 22.47, 0.38 19.38 C-0.89 16.3, -0.44 13.02, 0.78 10.1 C1.99 7.19, 4.76 3.5, 7.67 1.88 C10.58 0.27, 16.42 0.68, 18.23 0.43 C20.05 0.18, 18.4 0.07, 18.56 0.38" stroke="#1e1e1e" stroke-width="2" fill="none"/></g><g stroke-linecap="round" transform="translate(107.32610028758646 17) rotate(0 15.999999999999972 14.999999999999943)"><path d="M18.38 0.3 C21.59 0.45, 25.37 2.25, 27.6 4.67 C29.83 7.08, 31.66 11.43, 31.78 14.79 C31.91 18.16, 30.4 22.39, 28.36 24.85 C26.32 27.31, 22.84 29.07, 19.52 29.56 C16.21 30.04, 11.49 29.34, 8.47 27.75 C5.45 26.16, 2.62 23.01, 1.4 20.04 C0.19 17.07, 0.12 12.84, 1.17 9.94 C2.23 7.04, 4.72 4.22, 7.75 2.63 C10.79 1.04, 17.21 0.65, 19.39 0.41 C21.57 0.18, 20.8 1.02, 20.84 1.22 M16.08 0.47 C19.41 0.26, 23.91 1.63, 26.65 3.78 C29.39 5.94, 31.95 10.21, 32.5 13.42 C33.05 16.63, 31.81 20.3, 29.96 23.06 C28.11 25.82, 24.83 29.11, 21.4 29.99 C17.98 30.86, 12.71 29.57, 9.4 28.3 C6.1 27.03, 3.16 25.13, 1.57 22.37 C-0.01 19.62, -0.79 14.94, -0.14 11.76 C0.52 8.59, 2.75 5.28, 5.48 3.29 C8.22 1.31, 14.35 0.24, 16.3 -0.16 C18.24 -0.56, 17.07 0.71, 17.16 0.89" stroke="#1e1e1e" stroke-width="2" fill="none"/></g><g transform="translate(57.96831994290167 70.19595552621195) rotate(352.40535663140855 0.8577803446846985 8.71708795204885)" stroke="none"><path fill="#d6d6d6" d="M 3.21,-0.25 Q 3.21,-0.25 3.08,1.30 2.94,2.86 3.04,5.16 3.14,7.46 3.35,9.83 3.57,12.21 3.91,14.46 4.25,16.70 4.26,17.13 4.26,17.55 4.13,17.96 4.00,18.36 3.75,18.71 3.50,19.05 3.15,19.29 2.80,19.53 2.39,19.65 1.99,19.77 1.56,19.76 1.14,19.74 0.74,19.59 0.34,19.44 0.01,19.17 -0.30,18.90 -0.53,18.54 -0.75,18.17 -0.85,17.76 -0.95,17.35 -0.91,16.92 -0.87,16.50 -0.69,16.11 -0.52,15.72 -0.23,15.41 0.04,15.10 0.42,14.89 0.79,14.69 1.21,14.62 1.63,14.54 2.05,14.60 2.47,14.67 2.84,14.86 3.22,15.05 3.52,15.36 3.82,15.66 4.00,16.04 4.18,16.43 4.24,16.85 4.29,17.27 4.20,17.69 4.12,18.10 3.90,18.47 3.69,18.84 3.37,19.12 3.05,19.40 2.66,19.56 2.27,19.72 1.84,19.75 1.42,19.78 1.01,19.67 0.60,19.57 0.24,19.33 -0.11,19.10 -0.37,18.77 -0.63,18.43 -0.77,18.03 -0.91,17.63 -0.91,17.63 -0.91,17.63 -1.39,15.28 -1.87,12.92 -2.08,10.56 -2.29,8.20 -2.37,5.75 -2.44,3.30 -2.83,1.77 -3.21,0.25 -3.20,-0.13 -3.18,-0.52 -3.07,-0.89 -2.96,-1.26 -2.77,-1.60 -2.57,-1.94 -2.30,-2.22 -2.03,-2.50 -1.71,-2.70 -1.38,-2.91 -1.01,-3.04 -0.64,-3.16 -0.25,-3.19 0.13,-3.22 0.51,-3.16 0.90,-3.09 1.25,-2.94 1.61,-2.79 1.92,-2.56 2.23,-2.32 2.48,-2.02 2.72,-1.72 2.89,-1.37 3.06,-1.01 3.14,-0.63 3.21,-0.25 3.21,-0.25 L 3.21,-0.25 Z"/></g><g transform="translate(92.79643207993703 59.53602268571467) rotate(346.55793755918955 0.5948855989537094 7.094412096893805)" stroke="none"><path fill="#d6d6d6" d="M 4.41,0.21 Q 4.41,0.21 4.06,1.45 3.71,2.69 3.66,4.98 3.60,7.26 3.11,10.82 2.62,14.37 2.49,14.77 2.36,15.18 2.11,15.52 1.85,15.86 1.51,16.10 1.16,16.34 0.75,16.46 0.34,16.58 -0.07,16.56 -0.50,16.54 -0.90,16.39 -1.29,16.24 -1.62,15.96 -1.95,15.69 -2.17,15.33 -2.39,14.97 -2.49,14.56 -2.58,14.14 -2.54,13.72 -2.50,13.30 -2.33,12.91 -2.15,12.52 -1.86,12.21 -1.57,11.90 -1.20,11.69 -0.83,11.49 -0.41,11.42 0.00,11.34 0.42,11.41 0.84,11.47 1.22,11.67 1.59,11.86 1.89,12.17 2.19,12.47 2.37,12.86 2.55,13.24 2.60,13.66 2.65,14.08 2.56,14.50 2.48,14.92 2.26,15.28 2.05,15.65 1.73,15.93 1.41,16.21 1.01,16.37 0.62,16.53 0.20,16.56 -0.22,16.58 -0.63,16.48 -1.04,16.37 -1.39,16.13 -1.75,15.90 -2.01,15.56 -2.27,15.23 -2.41,14.82 -2.55,14.42 -2.55,14.00 -2.56,13.57 -2.56,13.57 -2.56,13.57 -2.19,10.11 -1.82,6.65 -1.75,4.49 -1.68,2.32 -1.85,1.05 -2.03,-0.21 -1.95,-0.60 -1.88,-0.98 -1.72,-1.33 -1.55,-1.69 -1.31,-1.99 -1.07,-2.29 -0.76,-2.53 -0.45,-2.77 -0.10,-2.93 0.25,-3.08 0.63,-3.15 1.01,-3.22 1.40,-3.19 1.79,-3.17 2.16,-3.05 2.53,-2.93 2.86,-2.72 3.20,-2.52 3.47,-2.24 3.74,-1.97 3.94,-1.63 4.14,-1.30 4.25,-0.92 4.36,-0.55 4.38,-0.16 4.41,0.21 4.41,0.21 L 4.41,0.21 Z"/></g><g transform="translate(139.53662647072943 67.87617551478456) rotate(352.40535663140855 0.2242564255527384 16.471650572171868)" stroke="none"><path fill="#d6d6d6" d="M 3.22,0 Q 3.22,0 2.96,2.18 2.70,4.37 2.73,6.53 2.76,8.69 2.79,10.82 2.82,12.95 2.86,15.44 2.89,17.92 2.91,20.53 2.94,23.13 2.99,25.59 3.04,28.06 3.05,30.22 3.06,32.38 3.00,32.80 2.94,33.22 2.75,33.60 2.56,33.98 2.26,34.28 1.96,34.58 1.58,34.77 1.20,34.96 0.78,35.01 0.35,35.07 -0.05,34.99 -0.47,34.91 -0.84,34.70 -1.21,34.49 -1.49,34.17 -1.78,33.85 -1.94,33.46 -2.11,33.07 -2.14,32.65 -2.18,32.22 -2.07,31.81 -1.97,31.40 -1.74,31.04 -1.51,30.68 -1.18,30.42 -0.85,30.15 -0.45,30.01 -0.05,29.86 0.37,29.85 0.79,29.84 1.20,29.97 1.60,30.09 1.95,30.34 2.29,30.59 2.54,30.94 2.79,31.28 2.91,31.69 3.03,32.09 3.02,32.52 3.01,32.94 2.86,33.34 2.71,33.74 2.45,34.07 2.18,34.40 1.82,34.63 1.46,34.86 1.05,34.96 0.64,35.06 0.21,35.03 -0.20,34.99 -0.59,34.82 -0.98,34.65 -1.29,34.37 -1.61,34.08 -1.82,33.71 -2.03,33.34 -2.11,32.92 -2.18,32.51 -2.18,32.51 -2.18,32.51 -2.34,28.45 -2.50,24.40 -2.51,21.90 -2.51,19.39 -2.56,16.82 -2.60,14.25 -2.62,11.56 -2.63,8.88 -2.67,6.62 -2.70,4.37 -2.96,2.18 -3.22,0 -3.18,-0.38 -3.13,-0.77 -2.99,-1.13 -2.85,-1.50 -2.63,-1.82 -2.41,-2.14 -2.12,-2.39 -1.83,-2.65 -1.48,-2.83 -1.14,-3.01 -0.76,-3.11 -0.38,-3.20 0.00,-3.20 0.38,-3.20 0.76,-3.11 1.14,-3.01 1.48,-2.83 1.83,-2.65 2.12,-2.39 2.41,-2.14 2.63,-1.82 2.85,-1.49 2.99,-1.13 3.13,-0.77 3.18,-0.38 3.22,0.00 3.22,0.00 L 3.22,0 Z"/></g><g transform="translate(51.3261002875864 26.000000000000114) rotate(0 3.5 8.499999999999947)" stroke="none"><path fill="#d6d6d6" d="M 2.16,-2.64 Q 2.16,-2.64 2.59,-2.00 3.01,-1.35 4.51,0.83 6.00,3.03 7.59,5.55 9.19,8.06 9.70,10.33 10.21,12.60 8.77,15.07 7.32,17.54 5.89,18.86 4.46,20.17 4.25,20.41 4.03,20.64 3.77,20.82 3.51,20.99 3.21,21.10 2.91,21.20 2.59,21.24 2.28,21.27 1.97,21.23 1.65,21.18 1.36,21.06 1.06,20.95 0.81,20.76 0.55,20.58 0.34,20.34 0.14,20.10 0.00,19.81 -0.14,19.53 -0.21,19.22 -0.28,18.91 -0.27,18.60 -0.27,18.28 -0.18,17.97 -0.10,17.67 0.04,17.39 0.19,17.11 0.44,16.85 0.69,16.59 1.06,16.38 1.43,16.18 1.85,16.10 2.26,16.02 2.68,16.08 3.10,16.13 3.49,16.32 3.87,16.51 4.16,16.82 4.46,17.12 4.65,17.50 4.84,17.88 4.90,18.30 4.95,18.72 4.87,19.14 4.79,19.56 4.58,19.93 4.37,20.30 4.05,20.58 3.73,20.86 3.34,21.03 2.95,21.19 2.53,21.23 2.10,21.26 1.69,21.16 1.28,21.05 0.92,20.82 0.57,20.59 0.30,20.26 0.04,19.93 -0.10,19.53 -0.25,19.13 -0.26,18.71 -0.27,18.28 -0.14,17.87 -0.01,17.47 0.23,17.12 0.47,16.78 0.82,16.53 1.17,16.29 1.57,16.16 1.98,16.04 2.40,16.05 2.83,16.07 3.23,16.21 3.63,16.36 3.96,16.63 4.29,16.90 4.51,17.25 4.74,17.61 4.84,18.03 4.94,18.44 4.91,18.86 4.87,19.29 4.70,19.68 4.53,20.07 4.50,20.12 4.46,20.17 4.25,20.41 4.03,20.64 3.77,20.82 3.51,20.99 3.21,21.10 2.91,21.20 2.59,21.24 2.28,21.27 1.97,21.23 1.65,21.18 1.36,21.06 1.06,20.95 0.81,20.76 0.55,20.58 0.34,20.34 0.14,20.10 0.00,19.81 -0.14,19.53 -0.21,19.22 -0.28,18.91 -0.27,18.60 -0.27,18.28 -0.18,17.97 -0.10,17.67 0.04,17.39 0.19,17.11 0.96,16.44 1.73,15.77 3.19,13.53 4.65,11.29 2.95,8.99 1.26,6.69 0.05,4.69 -1.14,2.69 -1.75,2.32 -2.36,1.95 -2.60,1.65 -2.84,1.34 -3.01,0.99 -3.17,0.64 -3.24,0.25 -3.32,-0.12 -3.30,-0.51 -3.28,-0.90 -3.16,-1.27 -3.05,-1.64 -2.85,-1.98 -2.65,-2.31 -2.38,-2.59 -2.11,-2.87 -1.78,-3.07 -1.45,-3.27 -1.07,-3.39 -0.70,-3.51 -0.32,-3.54 0.06,-3.56 0.45,-3.50 0.83,-3.43 1.19,-3.27 1.54,-3.12 1.85,-2.88 2.16,-2.64 2.16,-2.64 L 2.16,-2.64 Z"/></g><g transform="translate(86.3261002875864 15.000000000000114) rotate(0 3.5 8.499999999999947)" stroke="none"><path fill="#d6d6d6" d="M 2.16,-2.64 Q 2.16,-2.64 2.59,-2.00 3.01,-1.35 4.51,0.83 6.00,3.03 7.59,5.55 9.19,8.06 9.70,10.33 10.21,12.60 8.77,15.07 7.32,17.54 5.89,18.86 4.46,20.17 4.25,20.41 4.03,20.64 3.77,20.82 3.51,20.99 3.21,21.10 2.91,21.20 2.59,21.24 2.28,21.27 1.97,21.23 1.65,21.18 1.36,21.06 1.06,20.95 0.81,20.76 0.55,20.58 0.34,20.34 0.14,20.10 0.00,19.81 -0.14,19.53 -0.21,19.22 -0.28,18.91 -0.27,18.60 -0.27,18.28 -0.18,17.97 -0.10,17.67 0.04,17.39 0.19,17.11 0.44,16.85 0.69,16.59 1.06,16.38 1.43,16.18 1.85,16.10 2.26,16.02 2.68,16.08 3.10,16.13 3.49,16.32 3.87,16.51 4.16,16.82 4.46,17.12 4.65,17.50 4.84,17.88 4.90,18.30 4.95,18.72 4.87,19.14 4.79,19.56 4.58,19.93 4.37,20.30 4.05,20.58 3.73,20.86 3.34,21.03 2.95,21.19 2.53,21.23 2.10,21.26 1.69,21.16 1.28,21.05 0.92,20.82 0.57,20.59 0.30,20.26 0.04,19.93 -0.10,19.53 -0.25,19.13 -0.26,18.71 -0.27,18.28 -0.14,17.87 -0.01,17.47 0.23,17.12 0.47,16.78 0.82,16.53 1.17,16.29 1.57,16.16 1.98,16.04 2.40,16.05 2.83,16.07 3.23,16.21 3.63,16.36 3.96,16.63 4.29,16.90 4.51,17.25 4.74,17.61 4.84,18.03 4.94,18.44 4.91,18.86 4.87,19.29 4.70,19.68 4.53,20.07 4.50,20.12 4.46,20.17 4.25,20.41 4.03,20.64 3.77,20.82 3.51,20.99 3.21,21.10 2.91,21.20 2.59,21.24 2.28,21.27 1.97,21.23 1.65,21.18 1.36,21.06 1.06,20.95 0.81,20.76 0.55,20.58 0.34,20.34 0.14,20.10 0.00,19.81 -0.14,19.53 -0.21,19.22 -0.28,18.91 -0.27,18.60 -0.27,18.28 -0.18,17.97 -0.10,17.67 0.04,17.39 0.19,17.11 0.96,16.44 1.73,15.77 3.19,13.53 4.65,11.29 2.95,8.99 1.26,6.69 0.05,4.69 -1.14,2.69 -1.75,2.32 -2.36,1.95 -2.60,1.65 -2.84,1.34 -3.01,0.99 -3.17,0.64 -3.24,0.25 -3.32,-0.12 -3.30,-0.51 -3.28,-0.90 -3.16,-1.27 -3.05,-1.64 -2.85,-1.98 -2.65,-2.31 -2.38,-2.59 -2.11,-2.87 -1.78,-3.07 -1.45,-3.27 -1.07,-3.39 -0.70,-3.51 -0.32,-3.54 0.06,-3.56 0.45,-3.50 0.83,-3.43 1.19,-3.27 1.54,-3.12 1.85,-2.88 2.16,-2.64 2.16,-2.64 L 2.16,-2.64 Z"/></g><g transform="translate(129.3261002875864 22.000000000000114) rotate(0 3.5 8.499999999999947)" stroke="none"><path fill="#d6d6d6" d="M 2.16,-2.64 Q 2.16,-2.64 2.59,-2.00 3.01,-1.35 4.51,0.83 6.00,3.03 7.59,5.55 9.19,8.06 9.70,10.33 10.21,12.60 8.77,15.07 7.32,17.54 5.89,18.86 4.46,20.17 4.25,20.41 4.03,20.64 3.77,20.82 3.51,20.99 3.21,21.10 2.91,21.20 2.59,21.24 2.28,21.27 1.97,21.23 1.65,21.18 1.36,21.06 1.06,20.95 0.81,20.76 0.55,20.58 0.34,20.34 0.14,20.10 0.00,19.81 -0.14,19.53 -0.21,19.22 -0.28,18.91 -0.27,18.60 -0.27,18.28 -0.18,17.97 -0.10,17.67 0.04,17.39 0.19,17.11 0.44,16.85 0.69,16.59 1.06,16.38 1.43,16.18 1.85,16.10 2.26,16.02 2.68,16.08 3.10,16.13 3.49,16.32 3.87,16.51 4.16,16.82 4.46,17.12 4.65,17.50 4.84,17.88 4.90,18.30 4.95,18.72 4.87,19.14 4.79,19.56 4.58,19.93 4.37,20.30 4.05,20.58 3.73,20.86 3.34,21.03 2.95,21.19 2.53,21.23 2.10,21.26 1.69,21.16 1.28,21.05 0.92,20.82 0.57,20.59 0.30,20.26 0.04,19.93 -0.10,19.53 -0.25,19.13 -0.26,18.71 -0.27,18.28 -0.14,17.87 -0.01,17.47 0.23,17.12 0.47,16.78 0.82,16.53 1.17,16.29 1.57,16.16 1.98,16.04 2.40,16.05 2.83,16.07 3.23,16.21 3.63,16.36 3.96,16.63 4.29,16.90 4.51,17.25 4.74,17.61 4.84,18.03 4.94,18.44 4.91,18.86 4.87,19.29 4.70,19.68 4.53,20.07 4.50,20.12 4.46,20.17 4.25,20.41 4.03,20.64 3.77,20.82 3.51,20.99 3.21,21.10 2.91,21.20 2.59,21.24 2.28,21.27 1.97,21.23 1.65,21.18 1.36,21.06 1.06,20.95 0.81,20.76 0.55,20.58 0.34,20.34 0.14,20.10 0.00,19.81 -0.14,19.53 -0.21,19.22 -0.28,18.91 -0.27,18.60 -0.27,18.28 -0.18,17.97 -0.10,17.67 0.04,17.39 0.19,17.11 0.96,16.44 1.73,15.77 3.19,13.53 4.65,11.29 2.95,8.99 1.26,6.69 0.05,4.69 -1.14,2.69 -1.75,2.32 -2.36,1.95 -2.60,1.65 -2.84,1.34 -3.01,0.99 -3.17,0.64 -3.24,0.25 -3.32,-0.12 -3.30,-0.51 -3.28,-0.90 -3.16,-1.27 -3.05,-1.64 -2.85,-1.98 -2.65,-2.31 -2.38,-2.59 -2.11,-2.87 -1.78,-3.07 -1.45,-3.27 -1.07,-3.39 -0.70,-3.51 -0.32,-3.54 0.06,-3.56 0.45,-3.50 0.83,-3.43 1.19,-3.27 1.54,-3.12 1.85,-2.88 2.16,-2.64 2.16,-2.64 L 2.16,-2.64 Z"/></g></svg>