<svg version="1.1" xmlns="http://www.w3.org/2000/svg" viewBox="0 0 1495.9130859375 914.2236328124998" width="1495.9130859375" height="914.2236328124998" class="excalidraw-svg">
  <!-- svg-source:excalidraw -->
  
  <defs>
    <style class="style-fonts">
      @font-face {
        font-family: "Virgil";
        src: url("https://excalidraw.com/Virgil.woff2");
      }
      @font-face {
        font-family: "Cascadia";
        src: url("https://excalidraw.com/Cascadia.woff2");
      }
      @font-face {
        font-family: "Assistant";
        src: url("https://excalidraw.com/Assistant-Regular.woff2");
      }
    </style>
    
  </defs>
  <rect x="0" y="0" width="1495.9130859375" height="914.2236328124998" fill="#ffffff"/><g stroke-linecap="round"><g transform="translate(743.173828125 57.286999366971486) rotate(0 -1.38671875 419.77783203125)"><path d="M0 0 C-4.79 235.93, -4.28 473.53, -2.77 839.56 M0 0 C2.34 289.44, 1.09 578.19, -2.77 839.56" stroke="#1e1e1e" stroke-width="1" fill="none"/></g></g><mask/><g transform="translate(283.1001087906659 145.9370346854795) rotate(0 67.04296875 20.69999999999999)"><text x="0" y="33.120703125" font-family="Helvetica, Segoe UI Emoji" font-size="36px" fill="#1e1e1e" text-anchor="start" style="white-space: pre;" direction="ltr" dominant-baseline="alphabetic">Connect</text></g><g transform="translate(1044.320811915666 145.7905503104795) rotate(0 73.037109375 20.69999999999999)"><text x="0" y="33.120703125" font-family="Helvetica, Segoe UI Emoji" font-size="36px" fill="#1e1e1e" text-anchor="start" style="white-space: pre;" direction="ltr" dominant-baseline="alphabetic">Concrete</text></g><g transform="translate(274.1214565834981 515.8021119909863) rotate(0 67.04296875 20.69999999999999)"><text x="0" y="33.120703125" font-family="Helvetica, Segoe UI Emoji" font-size="36px" fill="#1e1e1e" text-anchor="start" style="white-space: pre;" direction="ltr" dominant-baseline="alphabetic">Concept</text></g><g transform="translate(1035.3030972084982 515.6653932409863) rotate(0 89.05078125 20.69999999999999)"><text x="0" y="33.120703125" font-family="Helvetica, Segoe UI Emoji" font-size="36px" fill="#1e1e1e" text-anchor="start" style="white-space: pre;" direction="ltr" dominant-baseline="alphabetic">Conclusion</text></g><g transform="translate(426.37271996855065 245.60731713740256) rotate(0 100.392578125 48.30000000000001)"><text x="0" y="25.760546874999996" font-family="Helvetica, Segoe UI Emoji" font-size="28px" fill="#1e1e1e" text-anchor="start" style="white-space: pre;" direction="ltr" dominant-baseline="alphabetic">Relate topic</text><text x="0" y="57.96054687499999" font-family="Helvetica, Segoe UI Emoji" font-size="28px" fill="#1e1e1e" text-anchor="start" style="white-space: pre;" direction="ltr" dominant-baseline="alphabetic">to your personal</text><text x="0" y="90.160546875" font-family="Helvetica, Segoe UI Emoji" font-size="28px" fill="#1e1e1e" text-anchor="start" style="white-space: pre;" direction="ltr" dominant-baseline="alphabetic">Context.</text></g><g transform="translate(409.59283579022883 687.6849845871404) rotate(0 116.73046875 32.19999999999999)"><text x="0" y="25.760546874999996" font-family="Helvetica, Segoe UI Emoji" font-size="28px" fill="#1e1e1e" text-anchor="start" style="white-space: pre;" direction="ltr" dominant-baseline="alphabetic">Learn Problem </text><text x="0" y="57.96054687499999" font-family="Helvetica, Segoe UI Emoji" font-size="28px" fill="#1e1e1e" text-anchor="start" style="white-space: pre;" direction="ltr" dominant-baseline="alphabetic">Solving Strategies.</text></g><g transform="translate(1117.3141057312253 659.6592115320709) rotate(0 128.40625 16.100000000000023)"><text x="0" y="25.760546874999996" font-family="Helvetica, Segoe UI Emoji" font-size="28px" fill="#1e1e1e" text-anchor="start" style="white-space: pre;" direction="ltr" dominant-baseline="alphabetic">Capture the insights.</text></g><g stroke-linecap="round" transform="translate(70.49539124258882 137.2460190604795) rotate(0 33.25976562500003 32)"><path d="M24.9 1.78 C30.55 -0.25, 38.33 -0.73, 44.32 1.36 C50.31 3.46, 57.3 9.2, 60.84 14.37 C64.38 19.53, 65.71 26.24, 65.54 32.37 C65.37 38.49, 63.6 45.98, 59.83 51.1 C56.05 56.22, 49.14 61.4, 42.9 63.07 C36.65 64.74, 28.44 63.31, 22.37 61.11 C16.29 58.9, 10.07 54.95, 6.44 49.82 C2.81 44.69, 0.36 36.58, 0.58 30.33 C0.8 24.08, 2.88 17.21, 7.77 12.33 C12.67 7.45, 25 2.95, 29.95 1.04 C34.9 -0.87, 37.46 0.39, 37.47 0.87 M25.88 1.02 C32.06 -0.39, 41.46 1.1, 47.32 3.41 C53.18 5.72, 58.08 9.49, 61.03 14.87 C63.97 20.26, 65.55 29.27, 64.99 35.73 C64.44 42.19, 61.6 48.95, 57.7 53.63 C53.81 58.32, 47.86 62.63, 41.61 63.84 C35.36 65.04, 26.44 63.43, 20.21 60.85 C13.97 58.28, 7.43 53.85, 4.19 48.39 C0.95 42.93, 0.11 34.14, 0.77 28.09 C1.44 22.05, 4.1 16.76, 8.18 12.13 C12.26 7.51, 22.27 2.38, 25.25 0.36 C28.22 -1.67, 25.73 -0.66, 26.04 -0.02" stroke="none" stroke-width="0" fill="#1e1e1e"/><path d="M19.5 3.65 C24.92 0.91, 33.02 0.39, 39.3 1.42 C45.57 2.44, 52.73 5.37, 57.16 9.8 C61.6 14.24, 65.19 21.56, 65.92 28.02 C66.66 34.48, 64.7 42.96, 61.58 48.58 C58.47 54.2, 53.15 59.31, 47.23 61.75 C41.32 64.19, 32.64 64.53, 26.1 63.23 C19.56 61.93, 12.35 58.62, 8 53.95 C3.65 49.28, 0.58 41.35, -0.01 35.23 C-0.6 29.1, 0.86 22.7, 4.44 17.19 C8.02 11.68, 18.22 4.86, 21.46 2.19 C24.71 -0.48, 23.65 0.8, 23.92 1.19 M34.64 0.74 C41.06 0.32, 48.17 1.63, 53.14 5.09 C58.11 8.55, 62.42 15.14, 64.46 21.5 C66.51 27.87, 67.27 37.37, 65.39 43.3 C63.51 49.22, 58.35 53.77, 53.17 57.03 C48 60.28, 40.67 62.88, 34.34 62.85 C28 62.82, 20.62 60.59, 15.16 56.84 C9.71 53.1, 4.02 45.98, 1.62 40.38 C-0.78 34.77, -1.09 29, 0.76 23.21 C2.61 17.41, 7.51 9.4, 12.73 5.62 C17.94 1.85, 28.73 1.29, 32.03 0.55 C35.34 -0.18, 32.1 1.03, 32.54 1.23" stroke="#ffffff" stroke-width="2" fill="none"/></g><g transform="translate(95.9508182409761 153.01860206250996) rotate(0 7.7861328125 16.099999999999994)"><text x="7.7861328125" y="25.760546874999996" font-family="Helvetica, Segoe UI Emoji" font-size="28px" fill="#ffffff" text-anchor="middle" style="white-space: pre;" direction="ltr" dominant-baseline="alphabetic">1</text></g><g stroke-linecap="round" transform="translate(816.7356256175888 138.3446518729795) rotate(0 33.259765625 32)"><path d="M40.8 0.67 C46.93 1.83, 54.39 6.83, 58.52 11.59 C62.66 16.35, 65.21 22.87, 65.61 29.22 C66.01 35.56, 64.35 44.22, 60.92 49.66 C57.49 55.11, 50.82 59.78, 45.02 61.89 C39.22 64, 32.39 63.71, 26.13 62.33 C19.87 60.95, 11.66 58.24, 7.45 53.63 C3.25 49.02, 1.45 40.95, 0.91 34.67 C0.36 28.39, 0.95 21.27, 4.17 15.95 C7.39 10.63, 12.92 4.85, 20.24 2.73 C27.56 0.61, 42.78 2.44, 48.1 3.22 C53.43 4.01, 52.37 7.06, 52.17 7.47 M22.13 3.46 C27.95 0.58, 36.3 -1.13, 42.19 0.39 C48.08 1.9, 53.38 7.49, 57.45 12.57 C61.52 17.65, 66.17 24.85, 66.63 30.86 C67.1 36.87, 63.78 43.62, 60.22 48.66 C56.66 53.7, 51.15 58.74, 45.3 61.11 C39.44 63.47, 31.24 64.3, 25.09 62.85 C18.95 61.39, 12.78 57.32, 8.44 52.37 C4.09 47.43, -0.34 39.45, -0.97 33.17 C-1.6 26.9, 0.77 19.95, 4.67 14.7 C8.57 9.45, 19.56 3.85, 22.42 1.66 C25.28 -0.54, 21.87 0.96, 21.83 1.55" stroke="none" stroke-width="0" fill="#1e1e1e"/><path d="M40.41 0.43 C46.63 1.5, 54.65 6.79, 58.8 11.31 C62.95 15.82, 64.77 21.59, 65.33 27.51 C65.88 33.44, 65.29 41.19, 62.12 46.85 C58.96 52.51, 52.33 58.85, 46.32 61.47 C40.31 64.09, 32.46 63.95, 26.08 62.56 C19.7 61.16, 12.23 57.52, 8.06 53.11 C3.89 48.71, 1.56 42.32, 1.08 36.13 C0.6 29.94, 2.18 21.39, 5.16 15.99 C8.15 10.59, 12.11 5.9, 18.97 3.71 C25.84 1.52, 40.93 2.52, 46.35 2.84 C51.78 3.15, 51.89 5.26, 51.52 5.6 M44.87 2.57 C50.45 4.05, 56.71 8.9, 60.21 14.19 C63.72 19.49, 66.22 27.98, 65.89 34.34 C65.55 40.7, 62.38 47.67, 58.2 52.35 C54.02 57.04, 47.12 60.7, 40.83 62.46 C34.54 64.21, 26.35 65.06, 20.46 62.89 C14.58 60.71, 8.94 54.95, 5.51 49.39 C2.08 43.83, -0.53 35.63, -0.13 29.53 C0.28 23.42, 3.81 17.48, 7.93 12.74 C12.05 8, 18.13 2.78, 24.59 1.07 C31.05 -0.63, 43.39 2.4, 46.68 2.48 C49.98 2.57, 44.78 1.2, 44.36 1.6" stroke="#ffffff" stroke-width="2" fill="none"/></g><g transform="translate(842.191052615976 154.11723487500996) rotate(0 7.7861328125 16.099999999999994)"><text x="7.7861328125" y="25.760546874999996" font-family="Helvetica, Segoe UI Emoji" font-size="28px" fill="#ffffff" text-anchor="middle" style="white-space: pre;" direction="ltr" dominant-baseline="alphabetic">3</text></g><g stroke-linecap="round" transform="translate(79.87145658349795 507.0286895150249) rotate(0 33.25976562500003 32)"><path d="M38.99 1.1 C45.25 1.99, 53.31 6.24, 57.72 10.64 C62.13 15.03, 64.52 21.23, 65.43 27.47 C66.34 33.71, 66.3 42.62, 63.2 48.07 C60.09 53.53, 53.01 57.65, 46.81 60.19 C40.61 62.73, 32.29 64.46, 26.02 63.31 C19.75 62.16, 13.49 57.79, 9.18 53.3 C4.86 48.81, 0.93 42.52, 0.13 36.37 C-0.66 30.23, 1.14 21.81, 4.43 16.41 C7.72 11, 13.17 6.46, 19.89 3.92 C26.6 1.38, 39.87 1.2, 44.72 1.17 C49.58 1.14, 49.13 3, 49 3.73 M20.59 2.41 C26.44 -0.23, 35.09 -1.4, 41.38 0.23 C47.67 1.86, 54.04 7.21, 58.32 12.21 C62.6 17.2, 66.62 23.92, 67.07 30.18 C67.52 36.44, 64.37 44.42, 61 49.77 C57.62 55.12, 52.5 60.02, 46.81 62.27 C41.12 64.52, 33.27 64.86, 26.84 63.28 C20.41 61.7, 12.55 57.46, 8.25 52.78 C3.95 48.1, 1.42 41.3, 1.03 35.18 C0.64 29.06, 2.71 21.54, 5.91 16.05 C9.1 10.55, 17.73 4.49, 20.21 2.22 C22.68 -0.05, 20.36 1.86, 20.78 2.42" stroke="none" stroke-width="0" fill="#1e1e1e"/><path d="M27.47 0.35 C33.64 -1.01, 42.58 1.47, 48.57 4.2 C54.55 6.93, 60.52 11.21, 63.37 16.74 C66.23 22.27, 66.73 31.07, 65.71 37.39 C64.7 43.7, 61.91 50.1, 57.3 54.61 C52.69 59.11, 44.68 63.58, 38.05 64.41 C31.43 65.23, 23.19 62.53, 17.56 59.55 C11.92 56.57, 6.96 51.83, 4.24 46.52 C1.53 41.22, 0.26 33.97, 1.26 27.72 C2.25 21.48, 5.1 13.78, 10.19 9.07 C15.27 4.35, 27.49 0.8, 31.77 -0.57 C36.05 -1.95, 35.77 0.15, 35.86 0.81 M19.62 4.46 C24.86 1.55, 32.97 0.3, 39.15 1.29 C45.32 2.28, 51.96 6.05, 56.66 10.41 C61.36 14.77, 66.32 21.16, 67.35 27.45 C68.38 33.74, 66.23 42.69, 62.85 48.15 C59.47 53.6, 52.94 57.56, 47.09 60.15 C41.23 62.75, 33.82 64.75, 27.73 63.7 C21.63 62.64, 15.08 58.51, 10.5 53.83 C5.91 49.14, 1.37 41.56, 0.22 35.58 C-0.92 29.59, 0.33 23.53, 3.64 17.91 C6.96 12.29, 17.63 4.29, 20.09 1.86 C22.55 -0.57, 18.2 2.56, 18.42 3.33" stroke="#ffffff" stroke-width="2" fill="none"/></g><g transform="translate(105.32688358188523 522.8012725170554) rotate(0 7.7861328125 16.100000000000023)"><text x="7.7861328125" y="25.760546874999996" font-family="Helvetica, Segoe UI Emoji" font-size="28px" fill="#ffffff" text-anchor="middle" style="white-space: pre;" direction="ltr" dominant-baseline="alphabetic">2</text></g><g stroke-linecap="round" transform="translate(816.741573770998 506.2718535775249) rotate(0 33.259765625 32)"><path d="M20.78 2.64 C26.27 0, 34.32 -0.99, 40.55 0.63 C46.77 2.25, 53.94 7.45, 58.11 12.36 C62.27 17.28, 64.87 24.15, 65.54 30.12 C66.21 36.1, 65.52 42.82, 62.13 48.23 C58.74 53.64, 51.22 60.08, 45.19 62.58 C39.16 65.08, 32.33 64.81, 25.97 63.26 C19.6 61.7, 11.36 58.04, 6.98 53.25 C2.61 48.46, -0.07 40.84, -0.28 34.49 C-0.48 28.15, 1.64 20.66, 5.75 15.17 C9.85 9.68, 20.28 3.99, 24.37 1.55 C28.46 -0.88, 30.18 0.19, 30.3 0.54 M45.87 1.51 C51.38 3.21, 56.27 10.05, 59.74 15.56 C63.2 21.07, 66.95 28.55, 66.66 34.57 C66.36 40.59, 62.14 47.06, 57.97 51.68 C53.8 56.29, 47.73 60.6, 41.63 62.28 C35.54 63.95, 27.33 63.87, 21.41 61.72 C15.5 59.57, 9.88 54.76, 6.15 49.38 C2.41 44.01, -1.13 35.74, -1 29.46 C-0.87 23.18, 2.4 16.51, 6.92 11.68 C11.43 6.85, 19.6 2.3, 26.08 0.49 C32.56 -1.33, 42.63 0.44, 45.78 0.81 C48.92 1.17, 45.15 1.9, 44.95 2.66" stroke="none" stroke-width="0" fill="#1e1e1e"/><path d="M19.75 4.11 C24.88 1.01, 31.9 -1.19, 38.13 -0.4 C44.37 0.4, 52.62 4.17, 57.18 8.89 C61.74 13.62, 64.69 21.73, 65.51 27.96 C66.32 34.2, 65.14 40.91, 62.07 46.3 C59.01 51.69, 52.74 57.36, 47.11 60.32 C41.48 63.27, 34.44 65.1, 28.27 64.04 C22.1 62.98, 14.86 58.42, 10.11 53.95 C5.36 49.48, 0.8 43.34, -0.21 37.22 C-1.22 31.09, -0.2 23.35, 4.05 17.21 C8.31 11.07, 20.7 3.24, 25.32 0.38 C29.94 -2.49, 31.47 -0.65, 31.75 0.02 M45.53 1.83 C51.44 3.83, 58.18 10.49, 61.57 16.03 C64.96 21.58, 66.55 28.97, 65.89 35.1 C65.23 41.24, 61.93 47.93, 57.59 52.85 C53.26 57.76, 46.13 63.11, 39.9 64.59 C33.66 66.08, 26.14 64.56, 20.19 61.76 C14.24 58.97, 7.52 53.13, 4.19 47.83 C0.87 42.54, -0.37 36.18, 0.24 29.99 C0.84 23.8, 3.32 15.55, 7.83 10.68 C12.33 5.81, 20.95 2.32, 27.25 0.78 C33.55 -0.77, 42.46 1.07, 45.62 1.42 C48.78 1.77, 45.98 2.1, 46.19 2.88" stroke="#ffffff" stroke-width="2" fill="none"/></g><g transform="translate(842.1970007693852 522.0444365795554) rotate(0 7.7861328125 16.100000000000023)"><text x="7.7861328125" y="25.760546874999996" font-family="Helvetica, Segoe UI Emoji" font-size="28px" fill="#ffffff" text-anchor="middle" style="white-space: pre;" direction="ltr" dominant-baseline="alphabetic">4</text></g><g stroke-linecap="round" transform="translate(49.85842869098883 78.18437637552913) rotate(0 332.3400128497562 391.38245278198417)"><path d="M0 0 C157.6 -0.07, 315.88 -0.97, 664.68 0 M0 0 C180.05 -1.39, 360.38 -1.13, 664.68 0 M664.68 0 C663.93 225.77, 664.28 452.56, 664.68 782.76 M664.68 0 C662.15 194.97, 661.99 390.07, 664.68 782.76 M664.68 782.76 C427.6 782.34, 191.34 782.57, 0 782.76 M664.68 782.76 C478.56 783.01, 293.26 782.86, 0 782.76 M0 782.76 C0.43 540.92, 0.25 298.58, 0 0 M0 782.76 C-1.05 585.66, -1.67 388.84, 0 0" stroke="#1e1e1e" stroke-width="2" fill="none"/></g><g stroke-linecap="round" transform="translate(766.044928989241 82.44597731200088) rotate(0 332.73642501521147 391.38245278198417)"><path d="M0 0 C181.01 0.75, 361.95 0.1, 665.47 0 M0 0 C204.85 -1.68, 409.68 -1.62, 665.47 0 M665.47 0 C664.74 291.95, 665.25 584.82, 665.47 782.76 M665.47 0 C666.71 260.96, 666.14 521.55, 665.47 782.76 M665.47 782.76 C521.29 782.02, 378.42 782.29, 0 782.76 M665.47 782.76 C406.9 780.98, 148.15 780.39, 0 782.76 M0 782.76 C2.05 623.51, 1.34 462.48, 0 0 M0 782.76 C-0.29 600.34, -0.09 417.4, 0 0" stroke="#1e1e1e" stroke-width="2" fill="none"/></g><g stroke-linecap="round" transform="translate(10 48.736990554194534) rotate(0 737.95654296875 427.7433211291526)"><path d="M0 0 C315.69 -0.45, 631.49 -0.83, 1475.91 0 M0 0 C449.4 3.72, 899.09 3.99, 1475.91 0 M1475.91 0 C1477.2 318.41, 1477.75 638.16, 1475.91 855.49 M1475.91 0 C1477.13 250.55, 1477.15 500.88, 1475.91 855.49 M1475.91 855.49 C913.4 852.08, 350.81 852.61, 0 855.49 M1475.91 855.49 C1000.54 859.86, 525.97 860.05, 0 855.49 M0 855.49 C-3.39 539.48, -2.31 223.08, 0 0 M0 855.49 C-1.02 543.6, -1.5 232.38, 0 0" stroke="#1e1e1e" stroke-width="4" fill="none"/></g><g stroke-linecap="round"><g transform="translate(640.8818158667176 44.83601774822486) rotate(0 100.86789004565645 -15.715465657947703)"><path d="M0 0 C20.15 -13.62, 37.34 -28.02, 47.56 -34.84 M0 0 C13.03 -10.11, 26.77 -18.62, 47.56 -34.84 M47.56 -34.84 C90.78 -33.63, 130.2 -34.53, 164.43 -32.79 M47.56 -34.84 C79.8 -34.81, 111.92 -34.02, 164.43 -32.79 M164.43 -32.79 C174.98 -25.04, 183.25 -17.09, 201.74 3.41 M164.43 -32.79 C179.47 -18.6, 192.59 -6.69, 201.74 3.41" stroke="#1e1e1e" stroke-width="4" fill="none"/></g></g><mask/><g stroke-linecap="round"><g transform="translate(663.550865895094 190.79044935946098) rotate(0 72.16833901260162 -35.468152470955374)" fill-rule="evenodd"><path d="M-0.76 -0.72 C2.74 -1.11, 15.91 3.32, 22.17 -1.32 C28.43 -5.96, 27.76 -21.55, 36.82 -28.56 C45.88 -35.57, 64.39 -43.85, 76.53 -43.38 C88.68 -42.9, 102.47 -32.23, 109.69 -25.72 C116.92 -19.21, 114.24 -8.33, 119.89 -4.32 C125.54 -0.3, 140.29 3.93, 143.59 -1.62 C146.88 -7.16, 150.96 -26.28, 139.67 -37.59 C128.38 -48.91, 95.88 -67.94, 75.85 -69.51 C55.83 -71.09, 32.02 -58.44, 19.53 -47.06 C7.05 -35.69, 3.85 -8.84, 0.94 -1.26" stroke="none" stroke-width="0" fill="#ffffff" fill-rule="evenodd"/><path d="M-0.59 0.32 C3.48 -0.25, 17.01 2.41, 23.47 -2.28 C29.94 -6.97, 29.79 -20.64, 38.2 -27.81 C46.62 -34.97, 62.3 -45.46, 73.97 -45.27 C85.64 -45.08, 100.08 -33.65, 108.19 -26.68 C116.31 -19.72, 116.65 -7.88, 122.65 -3.49 C128.65 0.91, 141.7 5.52, 144.22 -0.32 C146.74 -6.17, 149.51 -26.95, 137.76 -38.56 C126 -50.18, 93.67 -69.14, 73.67 -70 C53.66 -70.85, 30.06 -55.19, 17.74 -43.7 C5.41 -32.21, 2.83 -8.19, -0.3 -1.07 M1.3 -0.55 C5.29 -0.43, 16.41 3.47, 22.45 -0.86 C28.5 -5.18, 28.96 -19.2, 37.58 -26.5 C46.2 -33.79, 62.09 -44.56, 74.15 -44.62 C86.22 -44.68, 102.18 -33.5, 109.97 -26.85 C117.77 -20.2, 115.11 -9, 120.91 -4.7 C126.71 -0.41, 142.13 4.61, 144.8 -1.08 C147.47 -6.78, 148.52 -27.23, 136.95 -38.86 C125.38 -50.49, 95.19 -70.09, 75.39 -70.89 C55.59 -71.68, 30.73 -55.31, 18.14 -43.61 C5.55 -31.9, 2.78 -8.2, -0.14 -0.64" stroke="#1e1e1e" stroke-width="2" fill="none"/></g></g><mask/><g stroke-linecap="round"><g transform="translate(665.589928395094 374.86857435946104) rotate(0 72.16833901260162 -35.468152470955374)" fill-rule="evenodd"><path d="M-1.53 1.86 C2.58 1.19, 19.76 0.68, 26.04 -3.88 C32.32 -8.45, 28.49 -18.48, 36.17 -25.55 C43.86 -32.61, 60.16 -46.45, 72.16 -46.27 C84.15 -46.09, 100.17 -31.37, 108.16 -24.48 C116.14 -17.59, 114.23 -8.52, 120.07 -4.93 C125.92 -1.33, 140.33 2.99, 143.24 -2.92 C146.15 -8.82, 149.04 -29.37, 137.55 -40.35 C126.05 -51.34, 94.26 -68.49, 74.28 -68.83 C54.31 -69.17, 30.35 -53.95, 17.69 -42.4 C5.04 -30.85, 1.69 -6.82, -1.65 0.46" stroke="none" stroke-width="0" fill="#ffffff" fill-rule="evenodd"/><path d="M0.69 0.44 C4.78 0.01, 17.76 2.03, 23.99 -2.66 C30.22 -7.36, 29.64 -20.64, 38.09 -27.72 C46.55 -34.8, 62.73 -45.7, 74.74 -45.15 C86.75 -44.6, 102.17 -31.3, 110.14 -24.43 C118.11 -17.56, 116.7 -7.65, 122.55 -3.93 C128.39 -0.22, 142.65 3.76, 145.2 -2.15 C147.75 -8.07, 149.76 -28.01, 137.85 -39.43 C125.93 -50.85, 93.75 -69.9, 73.7 -70.68 C53.66 -71.45, 29.95 -55.87, 17.56 -44.09 C5.16 -32.31, 2.25 -7.37, -0.68 0.01 M-0.4 -0.38 C3.6 -0.65, 16.94 2.89, 23.24 -1.44 C29.54 -5.77, 28.73 -19.2, 37.41 -26.37 C46.1 -33.53, 63.35 -44.32, 75.32 -44.44 C87.3 -44.56, 101.71 -34.19, 109.28 -27.07 C116.85 -19.96, 115.19 -6.2, 120.75 -1.73 C126.31 2.75, 139.92 6.2, 142.64 -0.21 C145.36 -6.62, 148.29 -28.22, 137.09 -40.17 C125.89 -52.13, 95.32 -71.25, 75.45 -71.92 C55.58 -72.6, 30.56 -56.36, 17.87 -44.21 C5.18 -32.05, 2.5 -6.35, -0.71 1" stroke="#1e1e1e" stroke-width="2" fill="none"/></g></g><mask/><g stroke-linecap="round"><g transform="translate(669.972740895094 680.485761859461) rotate(0 72.16833901260162 -35.468152470955374)" fill-rule="evenodd"><path d="M-1.83 -1.76 C2.17 -2.83, 19.54 0.48, 25.86 -3.99 C32.17 -8.47, 27.83 -21.61, 36.06 -28.61 C44.29 -35.61, 63.38 -46.33, 75.24 -46.01 C87.1 -45.7, 99.7 -33.9, 107.2 -26.72 C114.69 -19.54, 114.3 -7.17, 120.2 -2.94 C126.11 1.29, 139.43 4.74, 142.64 -1.33 C145.84 -7.41, 150.47 -27.51, 139.44 -39.38 C128.42 -51.26, 96.6 -71.3, 76.51 -72.59 C56.41 -73.87, 31.43 -59.04, 18.88 -47.08 C6.34 -35.12, 4.44 -8.9, 1.24 -0.84" stroke="none" stroke-width="0" fill="#ffffff" fill-rule="evenodd"/><path d="M-0.61 0.17 C3.27 -0.13, 17.39 3.05, 23.68 -1.41 C29.98 -5.88, 28.58 -19.61, 37.18 -26.63 C45.78 -33.65, 63.45 -43.85, 75.29 -43.54 C87.12 -43.23, 100.57 -31.57, 108.19 -24.76 C115.8 -17.94, 115.08 -6.45, 120.97 -2.64 C126.87 1.17, 140.79 4.24, 143.56 -1.91 C146.33 -8.05, 149.06 -27.9, 137.6 -39.52 C126.14 -51.14, 94.67 -70.74, 74.81 -71.61 C54.95 -72.48, 30.87 -56.79, 18.44 -44.74 C6.01 -32.68, 3.28 -6.64, 0.21 0.69 M1.28 -0.79 C4.96 -1.47, 16.37 1.4, 22.77 -3.2 C29.18 -7.79, 31.39 -21.28, 39.68 -28.36 C47.97 -35.43, 60.78 -46.38, 72.5 -45.64 C84.21 -44.9, 101.71 -30.95, 109.96 -23.91 C118.22 -16.87, 116.37 -7.43, 122.01 -3.42 C127.65 0.6, 141.35 6.31, 143.8 0.16 C146.25 -5.99, 148.43 -28.68, 136.71 -40.32 C124.99 -51.96, 93.06 -68.88, 73.48 -69.69 C53.89 -70.5, 31.35 -56.54, 19.21 -45.19 C7.07 -33.84, 4.07 -8.89, 0.65 -1.62" stroke="#1e1e1e" stroke-width="2" fill="none"/></g></g><mask/><g stroke-linecap="round"><g transform="translate(666.855553395094 832.884199359461) rotate(0 72.16833901260162 -35.468152470955374)" fill-rule="evenodd"><path d="M-1.94 -1.86 C2.15 -2.39, 16.42 3.71, 22.8 -0.91 C29.17 -5.53, 27.95 -22.08, 36.32 -29.57 C44.69 -37.07, 60.85 -46.26, 73 -45.88 C85.14 -45.51, 101.05 -34.8, 109.18 -27.32 C117.31 -19.85, 116.05 -5.75, 121.79 -1.04 C127.53 3.66, 141.29 7.09, 143.6 0.89 C145.92 -5.3, 147.65 -26.43, 135.69 -38.2 C123.73 -49.96, 91.51 -68.56, 71.82 -69.7 C52.14 -70.83, 29.34 -56.62, 17.59 -45.03 C5.83 -33.44, 4.06 -7.93, 1.29 -0.18" stroke="none" stroke-width="0" fill="#ffffff" fill-rule="evenodd"/><path d="M0.64 -0.75 C4.75 -0.9, 18.42 3.77, 24.78 -0.86 C31.14 -5.5, 30.43 -21.2, 38.79 -28.58 C47.16 -35.95, 63.18 -45.48, 74.96 -45.12 C86.74 -44.75, 101.77 -33.44, 109.48 -26.4 C117.19 -19.36, 115.55 -7.15, 121.22 -2.89 C126.88 1.38, 140.89 5.16, 143.47 -0.8 C146.04 -6.76, 148.22 -26.99, 136.67 -38.64 C125.12 -50.29, 93.76 -69.72, 74.17 -70.72 C54.58 -71.73, 31.61 -56.62, 19.12 -44.68 C6.63 -32.74, 2.24 -6.39, -0.75 0.91 M-0.48 1.47 C3.56 1.01, 17.95 2.5, 24.44 -2.36 C30.94 -7.22, 29.94 -20.67, 38.48 -27.67 C47.02 -34.68, 64.03 -44.6, 75.66 -44.39 C87.3 -44.17, 100.49 -33.18, 108.28 -26.41 C116.06 -19.65, 116.49 -7.89, 122.38 -3.79 C128.28 0.31, 140.89 4.05, 143.65 -1.81 C146.41 -7.67, 150.81 -27.28, 138.95 -38.97 C127.09 -50.67, 92.28 -70.97, 72.49 -71.99 C52.71 -73.02, 32.47 -56.88, 20.25 -45.1 C8.03 -33.32, 2.49 -8.51, -0.82 -1.29" stroke="#1e1e1e" stroke-width="2" fill="none"/></g></g><mask/><g transform="translate(1131.7822265625 238.77625717947137) rotate(0 125.2958984375 16.099999999999994)"><text x="0" y="25.760546874999996" font-family="Helvetica, Segoe UI Emoji" font-size="28px" fill="#1e1e1e" text-anchor="start" style="white-space: pre;" direction="ltr" dominant-baseline="alphabetic">Apply the Concepts.</text></g><g stroke-linecap="round" transform="translate(106.533203125 282.4578978044715) rotate(0 9.51904296875 8.82080078125)"><path d="M9.78 -0.29 C11.67 -0.3, 13.78 0.98, 15.37 2.26 C16.96 3.55, 18.94 5.65, 19.31 7.44 C19.69 9.22, 18.79 11.43, 17.64 12.97 C16.49 14.51, 14.29 16.08, 12.42 16.69 C10.54 17.3, 8.25 17.21, 6.39 16.62 C4.54 16.03, 2.3 14.78, 1.29 13.16 C0.29 11.53, -0.04 8.73, 0.35 6.86 C0.73 4.98, 2.02 3.11, 3.61 1.9 C5.2 0.7, 8.8 0, 9.89 -0.35 C10.98 -0.71, 10.1 -0.47, 10.17 -0.23 M11.76 0.41 C13.73 0.76, 15.98 2.25, 17.31 3.74 C18.64 5.23, 19.93 7.55, 19.77 9.36 C19.61 11.16, 17.8 13.24, 16.35 14.57 C14.9 15.9, 13.1 17.11, 11.08 17.32 C9.05 17.53, 6.09 16.84, 4.2 15.83 C2.3 14.83, 0.17 12.93, -0.29 11.3 C-0.76 9.66, 0.4 7.66, 1.42 6.02 C2.44 4.38, 4.12 2.49, 5.83 1.47 C7.55 0.44, 10.9 -0.02, 11.73 -0.14 C12.56 -0.26, 10.91 0.65, 10.79 0.74" stroke="none" stroke-width="0" fill="#ffffff"/><path d="M8.87 -0.05 C10.79 -0.27, 13.98 0.11, 15.61 1.33 C17.24 2.55, 18.27 5.3, 18.66 7.27 C19.05 9.25, 18.79 11.52, 17.95 13.18 C17.12 14.84, 15.5 16.5, 13.63 17.22 C11.77 17.94, 8.75 18.16, 6.77 17.48 C4.79 16.81, 2.91 14.83, 1.74 13.17 C0.57 11.5, -0.48 9.32, -0.26 7.5 C-0.04 5.68, 1.48 3.45, 3.06 2.25 C4.65 1.05, 8.06 0.64, 9.26 0.3 C10.46 -0.04, 10.21 0.18, 10.28 0.2 M8.64 0.12 C10.46 -0.02, 12.89 1.29, 14.67 2.29 C16.46 3.29, 18.84 4.52, 19.37 6.12 C19.89 7.72, 18.86 10.03, 17.81 11.86 C16.75 13.69, 14.77 16.08, 13.04 17.11 C11.31 18.14, 9.37 18.56, 7.42 18.03 C5.47 17.49, 2.62 15.46, 1.35 13.88 C0.09 12.31, -0.27 10.39, -0.14 8.56 C-0.01 6.74, 0.57 4.45, 2.13 2.93 C3.69 1.41, 8.06 -0.1, 9.21 -0.58 C10.36 -1.05, 9.13 -0.23, 9.04 0.09" stroke="#1e1e1e" stroke-width="4" fill="none"/></g><g stroke-linecap="round" transform="translate(176.0888671875 247.3407103044715) rotate(0 9.51904296875 8.82080078125)"><path d="M10.14 -0.12 C12 -0.1, 14.82 1.02, 16.27 2.35 C17.72 3.69, 18.66 5.91, 18.84 7.9 C19.02 9.88, 18.61 12.64, 17.37 14.28 C16.12 15.92, 13.38 17.26, 11.39 17.73 C9.39 18.2, 7.22 18.05, 5.41 17.1 C3.61 16.16, 1.39 13.77, 0.56 12.04 C-0.26 10.31, -0.13 8.51, 0.46 6.74 C1.05 4.98, 2.4 2.55, 4.11 1.44 C5.81 0.33, 9.46 0.15, 10.71 0.07 C11.96 -0.02, 11.49 0.7, 11.62 0.91 M7.85 0.35 C9.61 -0.14, 11.6 0.4, 13.42 1.34 C15.24 2.29, 17.96 4.44, 18.76 6.02 C19.56 7.6, 18.86 9.15, 18.22 10.82 C17.58 12.48, 16.63 14.97, 14.9 16 C13.17 17.02, 9.81 17.29, 7.84 16.97 C5.87 16.65, 4.49 15.42, 3.07 14.08 C1.64 12.73, -0.45 10.68, -0.7 8.88 C-0.94 7.09, 0.17 4.72, 1.6 3.31 C3.04 1.9, 6.94 0.84, 7.93 0.42 C8.92 0, 7.65 0.72, 7.53 0.8" stroke="none" stroke-width="0" fill="#ffffff"/><path d="M9.44 0.33 C11.31 0.01, 13.83 0.4, 15.31 1.51 C16.78 2.63, 17.87 5.23, 18.29 7.03 C18.7 8.84, 18.68 10.65, 17.82 12.35 C16.96 14.05, 15.03 16.46, 13.14 17.24 C11.24 18.02, 8.35 17.59, 6.43 17.03 C4.52 16.48, 2.66 15.42, 1.66 13.91 C0.66 12.39, 0.25 9.8, 0.42 7.92 C0.58 6.05, 1.25 4.01, 2.65 2.64 C4.05 1.28, 7.66 0.23, 8.82 -0.25 C9.97 -0.73, 9.55 -0.5, 9.61 -0.24 M8.16 0.9 C9.91 0.48, 11.62 0.22, 13.44 0.93 C15.25 1.64, 18.09 3.46, 19.06 5.16 C20.04 6.86, 20.07 9.16, 19.29 11.13 C18.52 13.09, 16.23 15.95, 14.42 16.95 C12.61 17.95, 10.5 17.4, 8.45 17.15 C6.4 16.89, 3.6 16.79, 2.12 15.4 C0.64 14.02, -0.49 10.81, -0.41 8.85 C-0.32 6.89, 1.28 5, 2.62 3.66 C3.96 2.32, 6.88 1.44, 7.65 0.82 C8.41 0.19, 7.28 -0.11, 7.22 -0.1" stroke="#1e1e1e" stroke-width="4" fill="none"/></g><g stroke-linecap="round" transform="translate(120.0146484375 327.1502806169715) rotate(0 9.51904296875 8.82080078125)"><path d="M7.05 0.04 C8.88 -0.41, 11.61 0.34, 13.52 1.17 C15.43 2.01, 17.63 3.32, 18.53 5.05 C19.43 6.79, 19.52 9.75, 18.94 11.58 C18.36 13.41, 16.86 15, 15.04 16.01 C13.21 17.03, 10.01 17.87, 7.99 17.64 C5.97 17.42, 4.27 16.14, 2.93 14.65 C1.6 13.17, 0.15 10.62, -0.02 8.73 C-0.2 6.84, 0.48 4.68, 1.88 3.32 C3.28 1.97, 7.24 1.2, 8.38 0.61 C9.52 0.02, 8.75 -0.3, 8.71 -0.21 M11.28 0.56 C13.3 0.72, 16.07 1.2, 17.26 2.57 C18.45 3.94, 18.51 6.92, 18.43 8.8 C18.34 10.67, 18.01 12.28, 16.74 13.81 C15.48 15.35, 12.91 17.65, 10.83 17.99 C8.75 18.33, 6.01 16.91, 4.25 15.87 C2.49 14.83, 0.95 13.29, 0.3 11.73 C-0.36 10.18, -0.43 8.28, 0.31 6.56 C1.05 4.83, 2.9 2.53, 4.74 1.39 C6.57 0.24, 10.32 -0.16, 11.32 -0.32 C12.33 -0.48, 10.76 0.14, 10.75 0.43" stroke="none" stroke-width="0" fill="#ffffff"/><path d="M11.52 -0.25 C13.42 0.01, 16.24 1.8, 17.42 3.37 C18.59 4.95, 18.7 7.35, 18.58 9.22 C18.47 11.08, 18.11 13.14, 16.74 14.55 C15.37 15.96, 12.39 17.35, 10.35 17.68 C8.31 18.01, 6.14 17.64, 4.5 16.52 C2.86 15.41, 1.1 12.9, 0.52 10.98 C-0.06 9.05, 0.28 6.6, 1.03 4.97 C1.78 3.35, 3.18 1.98, 5.02 1.22 C6.85 0.46, 10.63 0.55, 12.04 0.41 C13.46 0.28, 13.48 0.33, 13.51 0.42 M11.13 0.85 C12.87 1.29, 15.22 2.63, 16.46 3.96 C17.69 5.29, 18.41 7, 18.56 8.82 C18.71 10.64, 18.68 13.48, 17.37 14.88 C16.05 16.29, 12.67 17.06, 10.68 17.24 C8.68 17.43, 7.13 16.83, 5.4 16 C3.68 15.18, 1.07 14.03, 0.33 12.32 C-0.42 10.61, 0.07 7.7, 0.92 5.76 C1.78 3.83, 3.83 1.73, 5.48 0.71 C7.13 -0.31, 9.88 -0.34, 10.81 -0.35 C11.75 -0.36, 10.94 0.36, 11.08 0.64" stroke="#1e1e1e" stroke-width="4" fill="none"/></g><g stroke-linecap="round" transform="translate(164.66796875 295.8172728044715) rotate(0 9.51904296875 8.82080078125)"><path d="M7.89 0.39 C9.74 0.05, 11.99 0.5, 13.77 1.44 C15.54 2.39, 17.78 4.39, 18.54 6.05 C19.29 7.7, 18.96 9.59, 18.29 11.39 C17.61 13.18, 16.23 15.78, 14.49 16.8 C12.76 17.82, 9.99 17.88, 7.88 17.5 C5.77 17.12, 3.18 15.87, 1.84 14.53 C0.5 13.19, -0.27 11.28, -0.15 9.45 C-0.02 7.63, 1.32 5.13, 2.6 3.59 C3.88 2.05, 6.56 0.72, 7.54 0.21 C8.51 -0.3, 8.32 0.47, 8.44 0.55 M10.29 -0.54 C12.19 -0.58, 15.33 1.19, 16.71 2.57 C18.08 3.96, 18.38 5.96, 18.54 7.76 C18.69 9.57, 18.91 11.85, 17.65 13.4 C16.38 14.94, 13.07 16.53, 10.94 17.05 C8.81 17.56, 6.47 17.26, 4.86 16.5 C3.25 15.73, 2 14.1, 1.27 12.46 C0.55 10.82, 0.06 8.51, 0.5 6.65 C0.94 4.78, 2.21 2.3, 3.93 1.28 C5.65 0.27, 9.65 0.78, 10.85 0.56 C12.04 0.35, 11.24 0.04, 11.1 -0.01" stroke="none" stroke-width="0" fill="#ffffff"/><path d="M8.21 -0.38 C10.17 -0.68, 12.92 0.7, 14.6 1.77 C16.28 2.84, 17.66 4.25, 18.29 6.05 C18.91 7.85, 19.05 10.76, 18.36 12.56 C17.67 14.35, 16.04 15.99, 14.14 16.83 C12.25 17.68, 9.08 18.14, 6.98 17.64 C4.89 17.14, 2.67 15.45, 1.56 13.83 C0.45 12.2, 0.14 9.66, 0.31 7.89 C0.48 6.12, 1.21 4.5, 2.58 3.21 C3.94 1.91, 7.42 0.55, 8.51 0.1 C9.61 -0.34, 8.99 0.48, 9.15 0.55 M9.83 -0.47 C11.63 -0.49, 13.67 1.27, 15.22 2.43 C16.77 3.59, 18.72 4.64, 19.14 6.5 C19.55 8.36, 18.75 11.9, 17.69 13.61 C16.63 15.32, 14.51 16.09, 12.76 16.75 C11.02 17.41, 9.1 17.98, 7.23 17.55 C5.36 17.13, 2.8 15.93, 1.54 14.21 C0.28 12.49, -0.52 9.23, -0.35 7.23 C-0.17 5.23, 0.95 3.28, 2.58 2.18 C4.2 1.07, 8.27 0.84, 9.41 0.59 C10.55 0.34, 9.47 0.75, 9.44 0.69" stroke="#1e1e1e" stroke-width="4" fill="none"/></g><g stroke-linecap="round" transform="translate(224.98046875 291.3934446794715) rotate(0 9.51904296875 8.82080078125)"><path d="M10.74 0.17 C12.7 0.24, 15.34 1.05, 16.67 2.38 C18 3.72, 18.52 6.28, 18.7 8.17 C18.87 10.07, 18.83 12.33, 17.7 13.77 C16.57 15.22, 13.95 16.38, 11.9 16.86 C9.85 17.34, 7.14 17.29, 5.38 16.65 C3.62 16, 2.14 14.75, 1.35 12.99 C0.57 11.22, 0.19 7.92, 0.66 6.05 C1.14 4.17, 2.49 2.7, 4.2 1.72 C5.9 0.73, 9.85 0.34, 10.9 0.14 C11.95 -0.06, 10.5 0.3, 10.49 0.5 M8.04 -0.41 C9.94 -0.71, 12.39 0.93, 14.03 1.91 C15.67 2.89, 17.21 3.8, 17.86 5.46 C18.51 7.12, 18.63 9.91, 17.94 11.86 C17.26 13.81, 15.45 16.22, 13.74 17.16 C12.03 18.11, 9.56 18.08, 7.66 17.52 C5.77 16.95, 3.68 15.27, 2.38 13.78 C1.08 12.29, -0.23 10.34, -0.13 8.6 C-0.02 6.85, 1.64 4.81, 3 3.3 C4.35 1.79, 7.25 0, 8.02 -0.46 C8.79 -0.91, 7.6 0.42, 7.6 0.58" stroke="none" stroke-width="0" fill="#ffffff"/><path d="M8.86 -0.3 C10.81 -0.56, 12.94 0.44, 14.62 1.61 C16.29 2.79, 18.29 5.01, 18.92 6.76 C19.54 8.5, 19.17 10.47, 18.34 12.08 C17.51 13.69, 15.82 15.5, 13.92 16.43 C12.02 17.36, 9.03 18.08, 6.94 17.67 C4.85 17.26, 2.47 15.62, 1.39 13.98 C0.31 12.33, 0.23 9.71, 0.46 7.79 C0.69 5.86, 1.31 3.61, 2.77 2.4 C4.23 1.19, 8.21 0.89, 9.2 0.51 C10.19 0.12, 8.69 0.07, 8.72 0.09 M12.47 0.59 C14.39 0.89, 15.63 1.97, 16.84 3.38 C18.05 4.79, 19.86 7.03, 19.74 9.05 C19.62 11.08, 17.62 14.1, 16.13 15.53 C14.64 16.96, 12.69 17.61, 10.8 17.64 C8.91 17.66, 6.62 16.84, 4.81 15.69 C2.99 14.54, 0.6 12.42, -0.09 10.72 C-0.78 9.03, -0.32 7.11, 0.69 5.52 C1.7 3.94, 4.01 2.08, 5.96 1.22 C7.9 0.35, 11.49 0.48, 12.35 0.31 C13.22 0.14, 11.3 0.14, 11.14 0.18" stroke="#1e1e1e" stroke-width="4" fill="none"/></g><g stroke-linecap="round" transform="translate(306.5771484375 233.4979368669715) rotate(0 9.51904296875 8.82080078125)"><path d="M8 0.15 C9.9 -0.39, 12.34 -0.22, 14.17 0.7 C15.99 1.62, 18.32 3.87, 18.96 5.68 C19.59 7.49, 18.74 9.85, 17.96 11.57 C17.18 13.28, 16.04 14.94, 14.27 15.99 C12.51 17.04, 9.48 18.08, 7.39 17.89 C5.31 17.7, 2.95 16.3, 1.75 14.85 C0.54 13.39, 0.11 11.06, 0.19 9.16 C0.26 7.27, 0.81 4.95, 2.2 3.49 C3.59 2.03, 7.54 1.04, 8.52 0.42 C9.51 -0.2, 8.2 -0.37, 8.09 -0.22 M12.22 0.37 C14.28 0.81, 16.23 2.56, 17.45 3.97 C18.66 5.39, 19.77 6.99, 19.51 8.86 C19.24 10.74, 17.45 13.82, 15.84 15.21 C14.23 16.6, 11.69 17.04, 9.85 17.21 C8.02 17.38, 6.32 17.18, 4.82 16.21 C3.32 15.24, 1.41 13.2, 0.86 11.39 C0.3 9.57, 0.78 7.13, 1.5 5.34 C2.21 3.54, 3.45 1.54, 5.12 0.63 C6.8 -0.28, 10.52 -0.14, 11.56 -0.13 C12.59 -0.11, 11.27 0.4, 11.32 0.71" stroke="none" stroke-width="0" fill="#a5d8ff"/><path d="M8.95 0.34 C10.75 0.01, 12.93 0.52, 14.47 1.55 C16.01 2.59, 17.56 4.81, 18.18 6.56 C18.8 8.3, 19 10.33, 18.19 12.02 C17.38 13.72, 15.2 15.78, 13.32 16.72 C11.45 17.66, 8.93 18.06, 6.95 17.67 C4.97 17.28, 2.66 16.03, 1.44 14.41 C0.21 12.79, -0.66 9.96, -0.4 7.96 C-0.14 5.97, 1.47 3.84, 3.01 2.44 C4.54 1.03, 7.74 -0.14, 8.8 -0.46 C9.87 -0.78, 9.45 0.23, 9.39 0.52 M7.46 0.96 C9.31 0.44, 12.09 -0.05, 14.01 0.69 C15.94 1.43, 18.26 3.62, 19.01 5.4 C19.75 7.17, 19.32 9.62, 18.49 11.34 C17.65 13.05, 15.64 14.62, 14.01 15.7 C12.38 16.78, 10.51 17.96, 8.7 17.82 C6.9 17.67, 4.53 16.24, 3.17 14.85 C1.81 13.46, 0.75 11.3, 0.56 9.47 C0.38 7.64, 1.03 5.46, 2.08 3.88 C3.13 2.3, 6 0.68, 6.89 -0.01 C7.77 -0.71, 7.23 -0.5, 7.37 -0.3" stroke="#1971c2" stroke-width="4" fill="none"/></g><g stroke-linecap="round" transform="translate(201.2060546875 332.8582884294715) rotate(0 9.51904296875 8.82080078125)"><path d="M10.88 -0.18 C12.8 0.01, 15.52 2.04, 16.85 3.52 C18.19 5.01, 18.98 6.92, 18.89 8.73 C18.81 10.54, 17.65 12.84, 16.35 14.38 C15.05 15.92, 12.92 17.57, 11.08 17.98 C9.24 18.39, 7.11 17.81, 5.29 16.81 C3.47 15.81, 0.91 13.76, 0.15 11.98 C-0.62 10.21, -0.07 7.99, 0.7 6.15 C1.48 4.3, 2.98 1.86, 4.8 0.91 C6.61 -0.03, 10.4 0.61, 11.59 0.48 C12.79 0.34, 12.09 0, 11.95 0.12 M9.3 -0.71 C11.19 -0.93, 12.82 0.08, 14.34 1.27 C15.85 2.46, 17.69 4.51, 18.4 6.43 C19.12 8.36, 19.44 11.01, 18.63 12.82 C17.82 14.62, 15.56 16.53, 13.55 17.26 C11.54 17.99, 8.52 17.68, 6.57 17.19 C4.61 16.7, 2.85 15.89, 1.84 14.31 C0.82 12.74, 0.4 9.8, 0.48 7.72 C0.56 5.64, 0.88 3.18, 2.31 1.83 C3.75 0.48, 8.1 -0.03, 9.1 -0.38 C10.09 -0.73, 8.41 -0.48, 8.3 -0.25" stroke="none" stroke-width="0" fill="#ffffff"/><path d="M11.13 0.35 C13.18 0.59, 15.81 1.75, 17.07 3.18 C18.33 4.61, 18.78 7.1, 18.7 8.93 C18.61 10.75, 17.76 12.77, 16.58 14.13 C15.4 15.49, 13.56 16.6, 11.61 17.07 C9.66 17.54, 6.76 17.8, 4.87 16.96 C2.97 16.13, 0.99 13.83, 0.22 12.05 C-0.55 10.27, -0.57 8.16, 0.24 6.3 C1.06 4.43, 3.3 1.79, 5.12 0.84 C6.94 -0.1, 10.16 0.61, 11.17 0.61 C12.18 0.62, 11.25 0.8, 11.18 0.86 M11.18 0.91 C12.98 1.2, 15.19 1.73, 16.59 3.15 C17.99 4.57, 19.59 7.38, 19.6 9.41 C19.61 11.45, 18.18 14.06, 16.66 15.34 C15.13 16.62, 12.56 16.96, 10.45 17.1 C8.34 17.24, 5.61 16.99, 4 16.17 C2.39 15.35, 1.29 13.85, 0.79 12.16 C0.3 10.47, 0.3 8.01, 1.02 6.05 C1.73 4.09, 3.36 1.4, 5.06 0.39 C6.76 -0.63, 10.24 0.02, 11.2 -0.03 C12.17 -0.08, 10.93 -0.13, 10.85 0.09" stroke="#1e1e1e" stroke-width="4" fill="none"/></g><g stroke-linecap="round"><g transform="translate(123.5693359375 285.7196165544715) rotate(0 26.171875 -11.8798828125)"><path d="M0 0 C12.42 -6.84, 22.65 -10.91, 52.34 -23.76 M0 0 C20.53 -8.72, 38.31 -18.67, 52.34 -23.76" stroke="#1e1e1e" stroke-width="4" fill="none"/></g></g><mask/><g stroke-linecap="round"><g transform="translate(127.3583984375 295.8368040544715) rotate(0 17.76123046875 5.11474609375)"><path d="M0 0 C14.2 3.72, 26.49 6.85, 35.52 10.23 M0 0 C11.07 2.96, 22.95 6.26, 35.52 10.23" stroke="#1e1e1e" stroke-width="4" fill="none"/></g></g><mask/><g stroke-linecap="round"><g transform="translate(138.37890625 339.8065306169715) rotate(0 16.630859375 -12.7587890625)"><path d="M0 0 C11.95 -9.02, 25.36 -19.76, 33.26 -25.52 M0 0 C6.81 -5.37, 13.75 -10.85, 33.26 -25.52" stroke="#1e1e1e" stroke-width="4" fill="none"/></g></g><mask/><g stroke-linecap="round"><g transform="translate(183.583984375 265.6414915544715) rotate(0 -4.27001953125 14.51416015625)"><path d="M0 0 C-2.46 11.17, -5.5 21.8, -8.54 29.03 M0 0 C-2.01 6.42, -3.98 13.11, -8.54 29.03" stroke="#1e1e1e" stroke-width="4" fill="none"/></g></g><mask/><g stroke-linecap="round"><g transform="translate(180.986328125 300.1336790544715) rotate(0 21.10107421875 -0.44921875)"><path d="M0 0 C14.84 -0.14, 31.01 -1.47, 42.2 -0.9 M0 0 C14.22 -0.8, 27.23 -1.18, 42.2 -0.9" stroke="#1e1e1e" stroke-width="4" fill="none"/></g></g><mask/><g stroke-linecap="round"><g transform="translate(179.3359375 315.3338743669715) rotate(0 11.82373046875 13.7841796875)"><path d="M0 0 C5.04 5.83, 12.14 13.11, 23.65 27.57 M0 0 C9.58 11.21, 18.6 21.12, 23.65 27.57" stroke="#1e1e1e" stroke-width="4" fill="none"/></g></g><mask/><g stroke-linecap="round"><g transform="translate(305.5517578125 254.7528196794715) rotate(0 -28.59375 20.89599609375)"><path d="M0 0 C-14.47 8.2, -24.4 19.75, -57.19 41.79" stroke="#1971c2" stroke-width="4.5" fill="none" stroke-dasharray="1.5 10"/></g><g transform="translate(305.5517578125 254.7528196794715) rotate(0 -28.59375 20.89599609375)"><path d="M-43.04 21.18 C-48.07 24.8, -48.47 31.65, -57.19 41.79" stroke="#1971c2" stroke-width="4.5" fill="none" stroke-dasharray="1.5 8"/></g><g transform="translate(305.5517578125 254.7528196794715) rotate(0 -28.59375 20.89599609375)"><path d="M-33.1 35.09 C-40.4 35.61, -43 39.38, -57.19 41.79" stroke="#1971c2" stroke-width="4.5" fill="none" stroke-dasharray="1.5 8"/></g></g><mask/><g stroke-linecap="round" transform="translate(130.45998476165326 775.3810320574786) rotate(0 18.082053132810927 16.393948645396563)"><path d="M18 -0.45 C21.66 -0.56, 26.43 1.96, 29.47 4.25 C32.51 6.53, 35.59 9.84, 36.23 13.24 C36.86 16.65, 35.25 21.51, 33.28 24.68 C31.32 27.86, 27.94 31.05, 24.43 32.3 C20.91 33.54, 15.81 33.36, 12.19 32.15 C8.57 30.95, 4.67 28.1, 2.7 25.06 C0.73 22.01, -0.31 17.42, 0.37 13.88 C1.04 10.33, 3.58 6.07, 6.76 3.79 C9.95 1.52, 17.28 0.86, 19.49 0.23 C21.7 -0.4, 20.1 -0.17, 20.02 0.01 M20.93 0.63 C24.75 0.95, 30.25 2.63, 32.88 5.39 C35.51 8.16, 36.86 13.49, 36.73 17.22 C36.6 20.96, 34.84 25.29, 32.09 27.83 C29.33 30.36, 24.09 31.87, 20.22 32.42 C16.35 32.98, 12.01 33.04, 8.85 31.17 C5.7 29.31, 2.59 24.69, 1.26 21.25 C-0.07 17.8, -0.59 13.71, 0.87 10.49 C2.34 7.26, 6.71 3.51, 10.04 1.88 C13.38 0.26, 18.92 0.85, 20.87 0.75 C22.82 0.66, 21.62 1.03, 21.77 1.31" stroke="#1971c2" stroke-width="4" fill="none"/></g><g stroke-linecap="round" transform="translate(125.7080078125 705.9307773968488) rotate(0 23.328562894356523 15.531304942576867)"><path d="M0 0 C10.13 -0.17, 19.75 0.64, 46.66 0 M0 0 C14.05 -0.64, 28.36 0.13, 46.66 0 M46.66 0 C45.75 9.61, 47.2 18.91, 46.66 31.06 M46.66 0 C46.82 11.5, 47.16 23.51, 46.66 31.06 M46.66 31.06 C32.06 31.5, 17.17 31.22, 0 31.06 M46.66 31.06 C35.72 30.97, 25.13 30.71, 0 31.06 M0 31.06 C-0.94 23.34, 0.63 15.58, 0 0 M0 31.06 C0.09 25.11, 0.09 18.34, 0 0" stroke="#1e1e1e" stroke-width="4" fill="none"/></g><g stroke-linecap="round" transform="translate(209.6149810790045 773.9011519121241) rotate(0 25.626467240660673 17.356986227423704)"><path d="M0 0 C11.95 -1.44, 28.46 -1.59, 51.25 0 M0 0 C12.07 -0.73, 22.76 0.44, 51.25 0 M51.25 0 C52.37 10.58, 52.51 22.12, 51.25 34.71 M51.25 0 C51.13 12.5, 51.93 24.06, 51.25 34.71 M51.25 34.71 C36.79 35.84, 21.12 36.24, 0 34.71 M51.25 34.71 C31.67 34.44, 10.64 34.53, 0 34.71 M0 34.71 C1.34 27.09, -1.38 15.84, 0 0 M0 34.71 C0.01 22.62, 0.62 8.64, 0 0" stroke="#1e1e1e" stroke-width="4" fill="none"/></g><g transform="translate(237.54678924961433 666.6209962493931) rotate(0 14.220268249511719 24.520498520976673)"><text x="0" y="39.23363053093094" font-family="Helvetica, Segoe UI Emoji" font-size="42.6443452538725px" fill="#1e1e1e" text-anchor="start" style="white-space: pre;" direction="ltr" dominant-baseline="alphabetic">X</text></g><g stroke-linecap="round"><g transform="translate(161.60708007076335 778.557674710344) rotate(0 45.32835410615033 -30.615686999623506)"><path d="M0 0 C2.81 -7.82, 1.63 -13.57, 4.24 -22.21 M0 0 C0.79 -5.02, 1.84 -12.63, 4.24 -22.21 M4.24 -22.21 C21.51 -22.51, 41.69 -20.98, 90.66 -23.31 M4.24 -22.21 C37.47 -21.47, 70.33 -22.63, 90.66 -23.31 M90.66 -23.31 C90.67 -34.67, 88.67 -46.82, 90.34 -61.23 M90.66 -23.31 C90.75 -38.4, 91.15 -51.79, 90.34 -61.23" stroke="#1971c2" stroke-width="4" fill="none"/></g><g transform="translate(161.60708007076335 778.557674710344) rotate(0 45.32835410615033 -30.615686999623506)"><path d="M97.65 -43.74 C96.6 -49.87, 91.77 -54.16, 90.34 -61.23 M97.65 -43.74 C95.42 -47.55, 93.42 -53.82, 90.34 -61.23" stroke="#1971c2" stroke-width="4" fill="none"/></g><g transform="translate(161.60708007076335 778.557674710344) rotate(0 45.32835410615033 -30.615686999623506)"><path d="M84.69 -43.13 C87.88 -49.6, 87.29 -54.08, 90.34 -61.23 M84.69 -43.13 C85.89 -47.12, 87.32 -53.55, 90.34 -61.23" stroke="#1971c2" stroke-width="4" fill="none"/></g></g><mask/><g stroke-linecap="round"><g transform="translate(64.1845703125 456.3202024919715) rotate(0 316.0595703125 0.08056640625)"><path d="M0 0 C227.55 2.05, 453.95 2.07, 632.12 0.16 M0 0 C212.42 -0.97, 424.5 -0.69, 632.12 0.16" stroke="#1e1e1e" stroke-width="4" fill="none"/></g></g><mask/><g stroke-linecap="round"><g transform="translate(784.16015625 456.9110228044715) rotate(0 316.0595703125 0.08056640625)"><path d="M0 0 C243.06 1.49, 485 1.35, 632.12 0.16 M0 0 C157.4 1.79, 314.51 1.41, 632.12 0.16" stroke="#1e1e1e" stroke-width="4" fill="none"/></g></g><mask/><g stroke-linecap="round"><g transform="translate(899.0231222205709 276.0813367035323) rotate(0 48.941976209130985 -10.088794211578971)"><path d="M0 0 C-1.45 -8.82, -0.97 -13.33, -0.23 -20.95 M0 0 C-1.03 -5.59, 0.1 -10.44, -0.23 -20.95 M-0.23 -20.95 C29.42 -19.09, 58.18 -21.24, 72.84 -20.9 M-0.23 -20.95 C16.05 -20.48, 31.4 -20.74, 72.84 -20.9 M72.84 -20.9 C79.66 -15.52, 85.08 -12.63, 98.11 -6.31 M72.84 -20.9 C80.04 -17.69, 86.46 -13.54, 98.11 -6.31 M98.11 -6.31 C88.27 -3.54, 78.77 -1.98, 71.59 0.77 M98.11 -6.31 C89.78 -3.79, 80.23 -1.73, 71.59 0.77 M71.59 0.77 C48.15 0.63, 23.17 1.46, 0 0 M71.59 0.77 C56.3 0.28, 41.17 1.3, 0 0" stroke="#1971c2" stroke-width="4" fill="none"/></g></g><mask/><g stroke-linecap="round"><g transform="translate(874.5449402929468 338.1522998283099) rotate(0 40.77338375468537 2.438745572848916)"><path d="M-0.02 0.12 C3.11 -0.31, 12.17 1.67, 19.34 -2.93 C26.51 -7.52, 37.57 -23.34, 42.98 -27.46 C48.4 -31.58, 49.88 -29.76, 51.84 -27.65 C53.8 -25.54, 49.9 -17.33, 54.72 -14.81 C59.54 -12.29, 76.53 -14.54, 80.76 -12.52 C84.98 -10.49, 83.61 -4.38, 80.08 -2.66 C76.54 -0.94, 59.53 -2.24, 59.53 -2.2 C59.52 -2.16, 76.97 -4.34, 80.05 -2.42 C83.12 -0.5, 81.11 7.45, 78 9.32 C74.89 11.18, 61.59 8.45, 61.39 8.75 C61.18 9.05, 74.24 9.31, 76.75 11.1 C79.26 12.89, 79.12 17.75, 76.43 19.51 C73.73 21.28, 61.06 21.38, 60.57 21.66 C60.08 21.95, 72.15 19.68, 73.5 21.22 C74.84 22.77, 75.87 29.24, 68.63 30.92 C61.39 32.61, 39.35 32.75, 30.05 31.33 C20.75 29.92, 17.89 23.87, 12.83 22.42 C7.77 20.98, 1.92 22.52, -0.3 22.66 M-1.5 -0.87 C1.42 -1.09, 10.93 2.64, 18.31 -1.63 C25.69 -5.89, 37.2 -22.22, 42.78 -26.44 C48.37 -30.66, 49.98 -28.43, 51.8 -26.94 C53.62 -25.45, 48.72 -19.83, 53.71 -17.51 C58.7 -15.19, 77.36 -15.36, 81.76 -13.02 C86.16 -10.69, 84.01 -5.25, 80.11 -3.5 C76.21 -1.74, 58.59 -3, 58.37 -2.5 C58.14 -2, 75.44 -2.4, 78.74 -0.5 C82.05 1.41, 81 7.28, 78.19 8.94 C75.38 10.59, 62.35 9.13, 61.89 9.43 C61.43 9.74, 72.94 8.68, 75.43 10.77 C77.91 12.87, 79.46 20.15, 76.82 21.98 C74.17 23.81, 59.97 21.97, 59.55 21.75 C59.13 21.53, 72.56 19, 74.29 20.67 C76.01 22.33, 76.97 29.85, 69.91 31.73 C62.85 33.61, 41.69 33.43, 31.94 31.95 C22.18 30.47, 16.44 24.38, 11.36 22.86 C6.29 21.33, 3.45 22.99, 1.46 22.81" stroke="#1e1e1e" stroke-width="4" fill="none"/></g></g><mask/><g stroke-linecap="round"><g transform="translate(931.3124880220785 278.8639551856113) rotate(0 -0.5864055766004412 21.224674782023158)"><path d="M0.12 -0.08 C-0.03 6.99, -0.41 35.28, -0.63 42.4 M-0.48 -0.6 C-0.67 6.57, -0.6 36.03, -0.78 43.08" stroke="#1e1e1e" stroke-width="4" fill="none"/></g></g><mask/><g stroke-linecap="round"><g transform="translate(932.3806617489715 370.4488684124817) rotate(0 -0.14823635393616996 9.176873905923571)"><path d="M-0.11 0.43 C-0.2 3.46, -0.28 15.02, -0.28 17.93 M-0.83 0.17 C-1.01 3.29, -0.77 15.4, -0.71 18.41" stroke="#1e1e1e" stroke-width="4" fill="none"/></g></g><mask/><g stroke-linecap="round"><g transform="translate(948.1896329069875 279.602862943158) rotate(0 0.03487914210262488 22.160023870234937)"><path d="M0.22 0.39 C0.31 7.96, 0.47 37.48, 0.44 44.86 M-0.33 0.12 C-0.27 7.6, 0.2 36.89, 0.2 44.18" stroke="#1e1e1e" stroke-width="4" fill="none"/></g></g><mask/><g stroke-linecap="round"><g transform="translate(948.7564189661553 371.48333927304725) rotate(0 0.3182721716864876 7.8792797951095395)"><path d="M0.43 0.01 C0.51 2.68, 0.26 13.31, 0.21 15.89 M-0.02 -0.46 C0.26 2.05, 1.02 12.26, 1.23 15" stroke="#1e1e1e" stroke-width="4" fill="none"/></g></g><mask/><g stroke-linecap="round"><g transform="translate(932.3981013200228 390.6444789760676) rotate(0 8.567189278957926 -0.18923247449373548)"><path d="M-0.14 0.07 C2.69 0.02, 14.2 -0.23, 17.09 -0.23 M0.79 -0.37 C3.53 -0.6, 13.95 -1.06, 16.64 -1.12" stroke="#1e1e1e" stroke-width="4" fill="none"/></g></g><mask/><g stroke-linecap="round"><g transform="translate(863.5747681963826 751.0294951226786) rotate(0 78.23236517366092 -21.450453297429704)"><path d="M-0.07 0.51 C0.76 -6.89, 3.18 -34.92, 5.6 -43.64 C8.03 -52.37, 0.28 -46.62, 14.48 -51.85 C28.68 -57.08, 71.66 -75.54, 90.82 -75.03 C109.98 -74.53, 118.61 -54.19, 129.43 -48.82 C140.26 -43.45, 151.16 -53.36, 155.77 -42.8 C160.38 -32.24, 160.27 5.05, 157.1 14.55 C153.93 24.05, 141.98 14.39, 136.76 14.2 C131.54 14.01, 130.83 12.14, 125.79 13.41 C120.75 14.69, 116.36 20.03, 106.51 21.87 C96.66 23.71, 79.64 23.27, 66.68 24.45 C53.73 25.63, 39.39 27.42, 28.77 28.93 C18.15 30.44, 6.62 35.33, 2.96 33.52 C-0.7 31.71, -0.08 23.39, 6.83 18.07 C13.74 12.76, 34.76 6.97, 44.43 1.63 C54.11 -3.71, 60.53 -7.91, 64.87 -13.96 C69.21 -20.01, 71.65 -29.52, 70.46 -34.66 C69.27 -39.79, 65.96 -45.02, 57.71 -44.8 C49.46 -44.58, 28.74 -39.7, 20.96 -33.35 C13.18 -27.01, 14.33 -12.37, 11.03 -6.73 C7.72 -1.08, 2.96 -0.61, 1.12 0.51 M-1.57 -0.27 C-0.95 -7.54, 2.15 -33.74, 4.65 -42.17 C7.16 -50.6, -0.96 -45.03, 13.49 -50.87 C27.94 -56.71, 72.22 -77.57, 91.34 -77.21 C110.46 -76.85, 117.76 -54.27, 128.22 -48.72 C138.69 -43.18, 149.14 -54.27, 154.11 -43.92 C159.09 -33.58, 161.17 3.23, 158.08 13.37 C154.98 23.51, 141.12 17.14, 135.55 16.91 C129.98 16.68, 129.86 11.16, 124.65 11.97 C119.43 12.79, 113.87 20.11, 104.24 21.79 C94.61 23.47, 79.65 20.42, 66.85 22.07 C54.05 23.72, 38.02 29.85, 27.44 31.68 C16.86 33.51, 6.88 35.26, 3.38 33.04 C-0.11 30.82, -0.32 23.64, 6.47 18.36 C13.27 13.09, 34.79 6.63, 44.16 1.37 C53.53 -3.88, 58.01 -7.23, 62.7 -13.19 C67.4 -19.15, 72.84 -29.17, 72.33 -34.4 C71.81 -39.62, 67.87 -44.69, 59.61 -44.53 C51.36 -44.38, 30.85 -40.06, 22.81 -33.46 C14.77 -26.85, 15.07 -10.41, 11.37 -4.9 C7.67 0.61, 2.47 -1, 0.63 -0.41" stroke="#1e1e1e" stroke-width="4" fill="none"/></g></g><mask/><g stroke-linecap="round" transform="translate(912.2161464602128 625.8319006329602) rotate(45.117711634564905 2.632740405070365 89.42607508917081)"><path d="M1.32 0 C1.7 0.13, 2.64 0.33, 3.95 0 C5.41 -1.74, 6.48 1.04, 5.27 1.32 C4.71 48.99, 5.79 96.88, 5.27 177.54 C4.37 179.03, 6.45 178.62, 3.95 178.85 C2.88 178.76, 2.24 178.68, 1.32 178.85 C2.58 179.69, 1.01 176.54, 0 177.54 C1.79 115.83, 0.26 47.89, 0 1.32 C1.12 1.47, 1.33 0.85, 1.32 0" stroke="none" stroke-width="0" fill="#1e1e1e"/><path d="M1.32 0 C1.92 -0.07, 2.67 0.13, 3.95 0 M1.32 0 C2.38 0.06, 3.37 0.01, 3.95 0 M3.95 0 C4.95 -0.58, 5.88 0.12, 5.27 1.32 M3.95 0 C3.92 0.29, 6.02 0.95, 5.27 1.32 M5.27 1.32 C4.74 51.31, 6.6 103.79, 5.27 177.54 M5.27 1.32 C4.72 51.86, 5.41 102.71, 5.27 177.54 M5.27 177.54 C5.54 178.89, 4.47 178.27, 3.95 178.85 M5.27 177.54 C6.33 177.96, 4.59 179.34, 3.95 178.85 M3.95 178.85 C2.96 178.81, 2.07 178.9, 1.32 178.85 M3.95 178.85 C3.12 178.78, 2.3 178.78, 1.32 178.85 M1.32 178.85 C-0.27 178.37, 0.72 177.97, 0 177.54 M1.32 178.85 C-0.56 179.06, 0.63 178.39, 0 177.54 M0 177.54 C-0.58 114.13, 0.74 50.25, 0 1.32 M0 177.54 C-0.38 137.62, -1.05 96.9, 0 1.32 M0 1.32 C-0.06 0.32, 1.33 -0.96, 1.32 0 M0 1.32 C-0.4 -0.06, 1.55 -0.8, 1.32 0" stroke="#1e1e1e" stroke-width="4" fill="none"/></g><g stroke-linecap="round"><g transform="translate(835.4938912574601 780.4085112451471) rotate(43.51837305579217 4.717465183492209 10.373144775241315)" fill-rule="evenodd"><path d="M0.19 0.99 L10.04 0.71 L4.64 20.27 L-0.71 -0.95" stroke="none" stroke-width="0" fill="#a5d8ff" fill-rule="evenodd"/><path d="M0 0 C3.21 0.21, 6.41 0.05, 9.43 0.15 M0 0 C2.04 0.27, 4.39 0.24, 9.43 0.15 M9.43 0.15 C8.97 6.34, 5.97 12.71, 4.88 20.75 M9.43 0.15 C8.46 6.26, 6.86 12.89, 4.88 20.75 M4.88 20.75 C3.56 15.08, 2.87 8.81, 0 0 M4.88 20.75 C3.42 12.64, 0.78 5.35, 0 0 M0 0 C0 0, 0 0, 0 0 M0 0 C0 0, 0 0, 0 0" stroke="#1971c2" stroke-width="4" fill="none"/></g></g><mask/></svg>