<svg version="1.1" xmlns="http://www.w3.org/2000/svg" viewBox="0 0 97.72466460966163 143.38999507938215" width="97.72466460966163" height="143.38999507938215" class="excalidraw-svg">
  <!-- svg-source:excalidraw -->
  
  <defs>
    <style class="style-fonts">
      @font-face {
        font-family: "Virgil";
        src: url("https://excalidraw.com/Virgil.woff2");
      }
      @font-face {
        font-family: "Cascadia";
        src: url("https://excalidraw.com/Cascadia.woff2");
      }
      @font-face {
        font-family: "Assistant";
        src: url("https://excalidraw.com/Assistant-Regular.woff2");
      }
    </style>
    
  </defs>
  <rect x="0" y="0" width="97.72466460966163" height="143.38999507938215" fill="#ffffff"/><g stroke-linecap="round" transform="translate(10 39.32364034158641) rotate(0 36.83869834504952 44.472155095439696)"><path d="M18.42 0 C27.14 -2.44, 37.85 -1.17, 55.26 0 C70.93 -0.35, 75.84 6.66, 73.68 18.42 C71.84 37.2, 75.51 51.9, 73.68 70.52 C72.07 79.65, 67.86 90.18, 55.26 88.94 C43.57 88.34, 38.1 85.53, 18.42 88.94 C8.76 91.85, 3.39 80.02, 0 70.52 C2.89 58.88, -3.08 43.05, 0 18.42 C1.25 3.65, 8.77 -3.16, 18.42 0" stroke="none" stroke-width="0" fill="#ffffff"/><path d="M18.42 0 C25.23 0.77, 32.09 0.74, 55.26 0 M18.42 0 C27.23 -0.81, 33.81 0.83, 55.26 0 M55.26 0 C66.05 -0.33, 71.86 4.66, 73.68 18.42 M55.26 0 C66.53 -0.87, 71.47 4.64, 73.68 18.42 M73.68 18.42 C74.05 38.96, 72.81 57.46, 73.68 70.52 M73.68 18.42 C73.87 29.45, 73.02 40.97, 73.68 70.52 M73.68 70.52 C73.09 82.28, 67.35 89.69, 55.26 88.94 M73.68 70.52 C72.33 82.61, 67.86 90.86, 55.26 88.94 M55.26 88.94 C46.04 90.5, 37.29 89.06, 18.42 88.94 M55.26 88.94 C42.21 88.89, 29.27 89.34, 18.42 88.94 M18.42 88.94 C6.47 86.96, -1.94 83.26, 0 70.52 M18.42 88.94 C6.43 90.31, 0.86 83.2, 0 70.52 M0 70.52 C-1.08 53.21, -0.27 37.79, 0 18.42 M0 70.52 C-0.1 50.02, 0.54 30.21, 0 18.42 M0 18.42 C-0.48 4.37, 5.3 -1.72, 18.42 0 M0 18.42 C1.5 6.14, 6.85 2.11, 18.42 0" stroke="#1e1e1e" stroke-width="2" fill="none"/></g><g transform="translate(17.77960089274336 54.899141665334895) rotate(0 4.805047610223809 0.4098816137828436)" stroke="none"><path fill="#1e1e1e" d="M 0.14,-1.60 Q 0.14,-1.60 1.45,-1.47 2.76,-1.33 3.95,-1.42 5.14,-1.51 5.21,-1.53 5.28,-1.56 5.47,-1.54 5.66,-1.53 5.85,-1.48 6.03,-1.42 6.19,-1.32 6.36,-1.22 6.49,-1.09 6.63,-0.95 6.72,-0.79 6.82,-0.63 6.88,-0.44 6.94,-0.26 6.95,-0.07 6.96,0.11 6.92,0.30 6.89,0.48 6.81,0.66 6.73,0.83 6.61,0.98 6.50,1.13 6.35,1.25 6.20,1.37 6.02,1.45 5.85,1.52 5.66,1.56 5.47,1.59 5.28,0.19 5.08,-1.20 5.28,-1.18 5.48,-1.17 5.68,-1.11 5.87,-1.05 6.04,-0.94 6.22,-0.84 6.36,-0.70 6.50,-0.55 6.61,-0.38 6.71,-0.21 6.77,-0.01 6.83,0.17 6.84,0.37 6.86,0.58 6.82,0.78 6.78,0.98 6.70,1.16 6.62,1.35 6.49,1.51 6.37,1.66 6.21,1.79 6.05,1.91 5.86,2.00 5.68,2.08 5.48,2.12 5.28,2.15 5.30,0.27 5.32,-1.60 7.11,-1.83 8.90,-2.06 9.11,-2.05 9.32,-2.04 9.52,-1.96 9.72,-1.88 9.88,-1.74 10.04,-1.60 10.15,-1.42 10.26,-1.24 10.30,-1.03 10.35,-0.82 10.33,-0.61 10.30,-0.40 10.21,-0.21 10.12,-0.01 9.98,0.13 9.83,0.28 9.64,0.38 9.45,0.48 9.24,0.52 9.03,0.55 8.82,0.51 8.62,0.48 8.43,0.38 8.24,0.28 8.09,0.12 7.95,-0.02 7.86,-0.21 7.77,-0.41 7.75,-0.62 7.73,-0.83 7.77,-1.04 7.82,-1.24 7.93,-1.43 8.04,-1.61 8.20,-1.74 8.36,-1.88 8.56,-1.96 8.76,-2.04 8.97,-2.05 9.18,-2.06 9.39,-2.00 9.59,-1.94 9.77,-1.83 9.94,-1.71 10.07,-1.54 10.20,-1.37 10.27,-1.17 10.33,-0.96 10.33,-0.75 10.33,-0.54 10.26,-0.34 10.20,-0.14 10.07,0.02 9.94,0.19 9.76,0.31 9.59,0.43 9.38,0.49 9.18,0.54 9.18,0.54 9.18,0.54 8.08,1.04 6.97,1.53 6.03,0.16 5.08,-1.20 5.28,-1.18 5.48,-1.17 5.68,-1.11 5.87,-1.05 6.04,-0.94 6.22,-0.84 6.36,-0.70 6.50,-0.55 6.61,-0.38 6.71,-0.21 6.77,-0.01 6.83,0.17 6.84,0.37 6.86,0.58 6.82,0.78 6.78,0.98 6.70,1.16 6.62,1.35 6.49,1.50 6.37,1.66 6.21,1.79 6.05,1.91 5.86,2.00 5.68,2.08 5.48,2.12 5.28,2.15 5.28,0.29 5.28,-1.56 5.47,-1.54 5.66,-1.53 5.85,-1.48 6.03,-1.42 6.19,-1.32 6.36,-1.22 6.49,-1.09 6.62,-0.95 6.72,-0.79 6.82,-0.63 6.88,-0.44 6.94,-0.26 6.95,-0.07 6.96,0.11 6.92,0.30 6.89,0.48 6.81,0.66 6.73,0.83 6.61,0.98 6.50,1.13 6.35,1.25 6.20,1.37 6.02,1.45 5.85,1.52 5.66,1.56 5.47,1.59 5.40,1.59 5.33,1.60 3.91,1.70 2.49,1.80 1.17,1.70 -0.14,1.60 -0.33,1.56 -0.52,1.52 -0.69,1.44 -0.87,1.35 -1.02,1.23 -1.17,1.10 -1.28,0.95 -1.40,0.79 -1.47,0.61 -1.55,0.43 -1.58,0.24 -1.61,0.05 -1.59,-0.14 -1.57,-0.33 -1.51,-0.52 -1.45,-0.70 -1.34,-0.86 -1.24,-1.03 -1.09,-1.16 -0.95,-1.29 -0.78,-1.39 -0.61,-1.49 -0.43,-1.54 -0.24,-1.59 -0.05,-1.60 0.14,-1.60 0.14,-1.60 L 0.14,-1.60 Z"/></g><g transform="translate(32.881179096304095 54.899141665334895) rotate(0 2.059306118667365 1.6395264551314028)" stroke="none"><path d="M1.1 1.01 C1.23 0.89, -0.14 -2.15, -0.54 -1.65 C-0.94 -1.14, -1.55 4.24, -1.29 4.05 C-1.02 3.86, 0.52 -2.08, 1.05 -2.81 C1.57 -3.54, 1.03 -1.16, 1.85 -0.33 C2.67 0.49, 5.47 1.67, 5.96 2.15" stroke="none" stroke-width="0" fill="#ffffff" fill-rule="evenodd"/><path fill="#1e1e1e" d="M 1.40,0.78 Q 1.40,0.78 1.04,1.50 0.68,2.22 0.37,3.43 0.05,4.65 0.00,4.84 -0.04,5.03 -0.14,5.21 -0.23,5.39 -0.37,5.53 -0.50,5.68 -0.67,5.79 -0.84,5.90 -1.03,5.97 -1.22,6.04 -1.42,6.06 -1.61,6.08 -1.81,6.05 -2.01,6.03 -2.20,5.95 -2.39,5.88 -2.55,5.76 -2.71,5.64 -2.84,5.49 -2.97,5.34 -3.06,5.16 -3.15,4.98 -3.20,4.78 -3.24,4.59 -3.24,4.39 -3.24,4.19 -2.78,3.16 -2.33,2.13 -1.53,0.50 -0.72,-1.11 -0.58,-1.22 -0.43,-1.34 -0.32,-1.51 -0.21,-1.69 -0.06,-1.83 0.08,-1.97 0.26,-2.07 0.44,-2.17 0.64,-2.23 0.83,-2.29 1.04,-2.29 1.24,-2.30 1.44,-2.26 1.65,-2.22 1.83,-2.13 2.02,-2.04 2.17,-1.91 2.33,-1.78 2.46,-1.61 2.58,-1.45 2.66,-1.26 2.74,-1.07 2.77,-0.87 2.80,-0.66 2.78,-0.46 2.77,-0.26 2.70,-0.06 2.64,0.12 4.88,1.00 7.13,1.88 7.17,2.08 7.22,2.29 7.19,2.50 7.16,2.71 7.07,2.91 6.98,3.10 6.83,3.25 6.69,3.40 6.50,3.50 6.31,3.60 6.10,3.63 5.89,3.66 5.68,3.62 5.47,3.59 5.28,3.49 5.10,3.38 4.95,3.23 4.81,3.07 4.72,2.88 4.63,2.68 4.61,2.47 4.59,2.26 4.64,2.05 4.69,1.85 4.80,1.67 4.91,1.49 5.08,1.35 5.24,1.21 5.44,1.14 5.64,1.06 5.85,1.05 6.06,1.04 6.26,1.10 6.47,1.16 6.64,1.28 6.82,1.41 6.94,1.58 7.07,1.75 7.14,1.95 7.20,2.15 7.20,2.36 7.20,2.58 7.13,2.78 7.06,2.98 6.93,3.14 6.79,3.31 6.62,3.43 6.44,3.55 6.23,3.60 6.03,3.65 5.82,3.64 5.60,3.63 5.41,3.55 5.21,3.46 5.05,3.32 4.89,3.19 4.78,3.00 4.68,2.82 4.68,2.82 4.68,2.82 3.69,2.80 2.71,2.77 1.50,2.00 0.28,1.23 -0.07,-0.05 -0.43,-1.34 -0.32,-1.51 -0.21,-1.69 -0.06,-1.83 0.08,-1.97 0.26,-2.07 0.44,-2.17 0.64,-2.23 0.83,-2.29 1.04,-2.29 1.24,-2.30 1.44,-2.26 1.65,-2.22 1.83,-2.13 2.02,-2.04 2.17,-1.91 2.33,-1.78 2.46,-1.61 2.58,-1.45 2.66,-1.26 2.74,-1.07 2.77,-0.87 2.80,-0.66 2.78,-0.46 2.77,-0.26 2.70,-0.06 2.64,0.12 1.97,1.18 1.31,2.23 0.68,3.44 0.05,4.65 0.00,4.84 -0.04,5.03 -0.14,5.21 -0.23,5.39 -0.37,5.53 -0.50,5.68 -0.67,5.79 -0.84,5.90 -1.03,5.97 -1.22,6.04 -1.41,6.06 -1.61,6.08 -1.81,6.05 -2.01,6.03 -2.20,5.95 -2.39,5.88 -2.55,5.76 -2.71,5.64 -2.84,5.49 -2.97,5.34 -3.06,5.16 -3.15,4.98 -3.20,4.78 -3.24,4.59 -3.24,4.39 -3.24,4.19 -3.07,3.84 -2.90,3.49 -2.58,2.05 -2.26,0.60 -1.83,-0.09 -1.40,-0.78 -1.29,-0.94 -1.18,-1.10 -1.03,-1.22 -0.88,-1.35 -0.70,-1.43 -0.53,-1.52 -0.34,-1.56 -0.15,-1.60 0.04,-1.60 0.23,-1.59 0.42,-1.54 0.61,-1.49 0.78,-1.39 0.95,-1.30 1.09,-1.17 1.23,-1.03 1.34,-0.87 1.44,-0.71 1.51,-0.52 1.57,-0.34 1.59,-0.15 1.61,0.04 1.58,0.23 1.55,0.42 1.48,0.60 1.40,0.78 1.40,0.78 L 1.40,0.78 Z"/></g><g transform="translate(40.66077998904734 56.538668120466326) rotate(0 4.80504761022388 -0.6148224206742725)" stroke="none"><path fill="#1e1e1e" d="M -1.07,-1.20 Q -1.07,-1.20 -0.46,-1.85 0.14,-2.51 1.73,-2.76 3.32,-3.01 3.82,-1.68 4.31,-0.35 6.91,-0.86 9.51,-1.37 9.71,-1.29 9.90,-1.20 10.06,-1.06 10.22,-0.92 10.33,-0.74 10.43,-0.55 10.48,-0.35 10.52,-0.14 10.49,0.06 10.46,0.27 10.37,0.47 10.28,0.66 10.13,0.81 9.98,0.96 9.79,1.06 9.60,1.15 9.39,1.18 9.18,1.21 8.97,1.17 8.76,1.14 8.58,1.03 8.39,0.93 8.25,0.77 8.10,0.62 8.02,0.42 7.93,0.23 7.91,0.01 7.90,-0.19 7.95,-0.39 8.00,-0.60 8.11,-0.78 8.22,-0.96 8.39,-1.09 8.55,-1.23 8.75,-1.30 8.95,-1.38 9.16,-1.39 9.37,-1.39 9.58,-1.33 9.78,-1.27 9.95,-1.15 10.13,-1.03 10.25,-0.86 10.38,-0.68 10.44,-0.48 10.51,-0.28 10.50,-0.07 10.50,0.14 10.43,0.34 10.35,0.54 10.22,0.70 10.09,0.87 9.91,0.99 9.73,1.10 9.53,1.15 9.32,1.21 9.11,1.19 8.90,1.18 8.90,1.18 8.90,1.18 7.78,1.44 6.67,1.71 5.36,1.99 4.05,2.28 2.81,1.50 1.57,0.73 1.50,-0.52 1.44,-1.78 1.96,-0.81 2.48,0.15 1.77,0.68 1.07,1.20 0.91,1.31 0.75,1.42 0.57,1.49 0.39,1.56 0.20,1.58 0.00,1.61 -0.18,1.59 -0.37,1.56 -0.56,1.50 -0.74,1.43 -0.90,1.32 -1.06,1.21 -1.19,1.06 -1.32,0.92 -1.41,0.75 -1.50,0.58 -1.55,0.39 -1.60,0.20 -1.60,0.00 -1.60,-0.18 -1.55,-0.37 -1.51,-0.56 -1.42,-0.73 -1.33,-0.90 -1.20,-1.05 -1.07,-1.20 -1.07,-1.20 L -1.07,-1.20 Z"/></g><g transform="translate(51.6437459552734 56.948549734249156) rotate(0 4.118612237334673 -0.6148224206742725)" stroke="none"><path fill="#1e1e1e" d="M -0.15,-1.60 Q -0.15,-1.60 1.02,-1.73 2.20,-1.85 3.37,-2.11 4.55,-2.38 6.87,-1.65 9.19,-0.92 9.28,-0.73 9.36,-0.54 9.38,-0.32 9.40,-0.11 9.35,0.08 9.30,0.29 9.19,0.47 9.08,0.65 8.91,0.78 8.75,0.92 8.55,0.99 8.35,1.07 8.13,1.07 7.92,1.08 7.72,1.02 7.52,0.96 7.34,0.84 7.17,0.71 7.04,0.54 6.92,0.37 6.86,0.17 6.79,-0.03 6.80,-0.24 6.80,-0.45 6.87,-0.65 6.95,-0.85 7.08,-1.02 7.21,-1.18 7.39,-1.30 7.57,-1.41 7.77,-1.47 7.98,-1.52 8.19,-1.50 8.40,-1.49 8.60,-1.40 8.79,-1.32 8.95,-1.18 9.11,-1.04 9.22,-0.86 9.32,-0.67 9.36,-0.46 9.40,-0.25 9.38,-0.04 9.35,0.16 9.26,0.35 9.16,0.54 9.01,0.69 8.86,0.84 8.67,0.94 8.48,1.03 8.27,1.06 8.06,1.09 7.86,1.05 7.65,1.01 7.46,0.91 7.28,0.81 7.13,0.65 6.99,0.49 6.99,0.49 6.99,0.49 6.03,0.72 5.07,0.95 3.80,1.16 2.53,1.38 1.34,1.49 0.15,1.60 -0.03,1.60 -0.22,1.59 -0.41,1.54 -0.60,1.49 -0.77,1.40 -0.94,1.30 -1.08,1.17 -1.23,1.04 -1.33,0.88 -1.44,0.71 -1.51,0.53 -1.57,0.35 -1.59,0.15 -1.61,-0.03 -1.58,-0.22 -1.55,-0.42 -1.48,-0.60 -1.41,-0.78 -1.29,-0.93 -1.18,-1.09 -1.03,-1.22 -0.88,-1.34 -0.71,-1.43 -0.53,-1.52 -0.34,-1.56 -0.15,-1.60 -0.15,-1.60 L -0.15,-1.60 Z"/></g><g transform="translate(61.25384117572105 57.358431348031985) rotate(0 1.1440589548151934 -0.4098816137828578)" stroke="none"><path fill="#1e1e1e" d="M 0.87,-1.70 Q 0.87,-1.70 1.08,-1.74 1.29,-1.78 1.50,-1.75 1.71,-1.72 1.90,-1.62 2.09,-1.53 2.23,-1.38 2.38,-1.22 2.48,-1.03 2.57,-0.84 2.60,-0.63 2.62,-0.42 2.58,-0.21 2.54,-0.00 2.43,0.17 2.33,0.35 2.17,0.50 2.01,0.64 1.81,0.72 1.62,0.80 1.41,0.82 1.19,0.83 0.99,0.78 0.78,0.73 0.60,0.61 0.43,0.49 0.29,0.33 0.16,0.16 0.09,-0.03 0.02,-0.23 0.01,-0.44 0.01,-0.65 0.07,-0.86 0.14,-1.06 0.26,-1.23 0.39,-1.40 0.56,-1.53 0.74,-1.65 0.94,-1.71 1.14,-1.77 1.36,-1.76 1.57,-1.75 1.77,-1.68 1.97,-1.60 2.13,-1.47 2.30,-1.34 2.41,-1.16 2.52,-0.98 2.57,-0.77 2.62,-0.56 2.60,-0.35 2.58,-0.14 2.50,0.05 2.41,0.24 2.27,0.40 2.12,0.55 1.94,0.66 1.75,0.76 1.75,0.76 1.75,0.76 1.64,0.96 1.52,1.16 1.36,1.32 1.20,1.49 1.00,1.61 0.80,1.73 0.58,1.81 0.36,1.88 0.13,1.89 -0.09,1.91 -0.31,1.87 -0.54,1.83 -0.75,1.74 -0.97,1.65 -1.15,1.51 -1.33,1.37 -1.48,1.19 -1.62,1.01 -1.72,0.80 -1.82,0.59 -1.86,0.36 -1.91,0.13 -1.90,-0.09 -1.89,-0.32 -1.82,-0.54 -1.75,-0.76 -0.44,-1.23 L 0.87,-1.70 Z"/></g><g transform="translate(64.45720624920364 56.538668120466326) rotate(0 1.1440589548151934 0)" stroke="none"><path fill="#1e1e1e" d="M 0,-1.61 Q 0,-1.61 0.65,-1.46 1.31,-1.31 1.52,-1.27 1.73,-1.24 1.92,-1.14 2.11,-1.04 2.25,-0.89 2.40,-0.73 2.49,-0.54 2.58,-0.35 2.60,-0.14 2.62,0.07 2.58,0.27 2.53,0.48 2.42,0.66 2.31,0.85 2.15,0.98 1.99,1.12 1.79,1.20 1.59,1.28 1.38,1.29 1.17,1.30 0.96,1.24 0.76,1.19 0.58,1.07 0.41,0.95 0.28,0.78 0.15,0.61 0.08,0.41 0.01,0.21 0.01,-0.00 0.01,-0.21 0.08,-0.41 0.15,-0.61 0.28,-0.78 0.41,-0.95 0.58,-1.07 0.76,-1.19 0.96,-1.24 1.17,-1.30 1.38,-1.29 1.59,-1.28 1.79,-1.20 1.99,-1.12 2.15,-0.98 2.31,-0.84 2.42,-0.66 2.53,-0.48 2.58,-0.27 2.62,-0.07 2.60,0.14 2.58,0.35 2.49,0.54 2.40,0.73 2.25,0.89 2.11,1.04 1.92,1.14 1.73,1.24 1.52,1.27 1.31,1.31 1.31,1.31 1.31,1.31 0.65,1.46 0,1.61 -0.19,1.59 -0.38,1.56 -0.56,1.49 -0.75,1.42 -0.91,1.31 -1.07,1.20 -1.19,1.06 -1.32,0.91 -1.41,0.74 -1.50,0.57 -1.55,0.38 -1.60,0.19 -1.60,-0.00 -1.60,-0.19 -1.55,-0.38 -1.50,-0.57 -1.41,-0.74 -1.32,-0.91 -1.19,-1.06 -1.07,-1.20 -0.91,-1.31 -0.74,-1.42 -0.56,-1.49 -0.38,-1.56 -0.19,-1.59 0.00,-1.61 0.00,-1.61 L 0,-1.61 Z"/></g><g transform="translate(18.23722447466946 72.93393267178047) rotate(0 2.5169297005934226 -1.0247040344571303)" stroke="none"><path d="M0.54 -0.87 C0.81 -1.4, 0.67 -3.31, 1.5 -3.22 C2.33 -3.13, 4.92 -0.82, 5.51 -0.33" stroke="none" stroke-width="0" fill="#ffffff" fill-rule="evenodd"/><path fill="#1e1e1e" d="M -0.96,-1.29 Q -0.96,-1.29 -0.08,-1.90 0.78,-2.50 3.22,-1.86 5.65,-1.22 5.78,-1.05 5.91,-0.88 5.97,-0.68 6.04,-0.47 6.04,-0.26 6.03,-0.05 5.96,0.14 5.90,0.34 5.77,0.51 5.64,0.68 5.46,0.80 5.28,0.91 5.08,0.97 4.87,1.02 4.66,1.01 4.45,1.00 4.25,0.92 4.05,0.84 3.89,0.70 3.73,0.56 3.62,0.38 3.52,0.19 3.47,-0.01 3.43,-0.21 3.45,-0.42 3.48,-0.64 3.57,-0.83 3.66,-1.02 3.81,-1.17 3.95,-1.33 4.14,-1.42 4.33,-1.52 4.54,-1.55 4.75,-1.59 4.96,-1.55 5.17,-1.51 5.36,-1.41 5.54,-1.31 5.69,-1.16 5.83,-1.00 5.92,-0.81 6.01,-0.61 6.03,-0.40 6.05,-0.19 6.00,0.01 5.96,0.21 5.84,0.39 5.73,0.58 5.57,0.71 5.41,0.85 5.21,0.93 5.01,1.00 4.80,1.01 4.59,1.02 4.38,0.96 4.18,0.90 4.00,0.78 3.83,0.66 3.83,0.66 3.83,0.66 3.10,0.41 2.36,0.15 1.66,0.72 0.96,1.29 0.79,1.39 0.62,1.48 0.44,1.54 0.25,1.59 0.05,1.60 -0.13,1.60 -0.32,1.56 -0.51,1.52 -0.69,1.44 -0.86,1.36 -1.01,1.23 -1.16,1.11 -1.28,0.95 -1.40,0.80 -1.47,0.62 -1.55,0.44 -1.58,0.25 -1.61,0.05 -1.59,-0.13 -1.58,-0.32 -1.51,-0.51 -1.45,-0.69 -1.35,-0.86 -1.24,-1.02 -1.10,-1.15 -0.96,-1.29 -0.96,-1.29 L -0.96,-1.29 Z"/></g><g transform="translate(26.93207253126502 71.70428783043192) rotate(0 0.45762358192605745 -0.2049408068914289)" stroke="none"><path fill="#1e1e1e" d="M -0.01,-1.43 Q -0.01,-1.43 0.19,-1.48 0.40,-1.54 0.61,-1.52 0.82,-1.51 1.02,-1.43 1.21,-1.35 1.37,-1.21 1.53,-1.07 1.64,-0.89 1.75,-0.70 1.79,-0.49 1.83,-0.29 1.81,-0.07 1.78,0.13 1.69,0.32 1.60,0.51 1.45,0.66 1.30,0.81 1.11,0.91 0.93,1.01 0.72,1.04 0.51,1.07 0.30,1.04 0.09,1.00 -0.09,0.90 -0.28,0.79 -0.42,0.64 -0.56,0.48 -0.65,0.29 -0.74,0.09 -0.76,-0.11 -0.78,-0.32 -0.73,-0.53 -0.68,-0.73 -0.57,-0.91 -0.46,-1.09 -0.30,-1.23 -0.13,-1.36 0.06,-1.44 0.25,-1.52 0.47,-1.53 0.68,-1.53 0.88,-1.48 1.09,-1.42 1.26,-1.29 1.44,-1.17 1.56,-1.00 1.69,-0.83 1.75,-0.63 1.82,-0.43 1.82,-0.21 1.81,-0.00 1.74,0.19 1.67,0.39 1.54,0.56 1.41,0.72 1.24,0.84 1.06,0.96 1.06,0.96 1.06,0.96 0.93,1.07 0.80,1.18 0.64,1.26 0.49,1.34 0.32,1.38 0.15,1.42 -0.01,1.42 -0.18,1.42 -0.35,1.37 -0.52,1.33 -0.67,1.25 -0.82,1.17 -0.95,1.05 -1.08,0.93 -1.18,0.79 -1.27,0.65 -1.33,0.49 -1.39,0.32 -1.41,0.15 -1.43,-0.01 -1.41,-0.18 -1.38,-0.35 -1.32,-0.51 -1.26,-0.68 -1.16,-0.82 -1.06,-0.96 -0.53,-1.19 L -0.01,-1.43 Z"/></g><g transform="translate(29.677814022821394 70.47464298908332) rotate(0 3.2033650734825585 -1.4210854715202004e-14)" stroke="none"><path d="M0.01 -0.31 C0.2 -0.59, 1.2 -2.25, 1.59 -1.98 C1.98 -1.72, 1.55 0.58, 2.34 1.27 C3.12 1.96, 5.74 2.11, 6.28 2.16" stroke="none" stroke-width="0" fill="#ffffff" fill-rule="evenodd"/><path fill="#1e1e1e" d="M -1.07,-1.20 Q -1.07,-1.20 -0.38,-1.75 0.30,-2.31 1.35,-2.62 2.40,-2.93 3.16,-1.73 3.92,-0.53 4.83,-0.08 5.75,0.37 5.96,0.39 6.17,0.40 6.37,0.49 6.56,0.57 6.72,0.72 6.88,0.86 6.98,1.04 7.09,1.23 7.13,1.44 7.17,1.64 7.14,1.86 7.11,2.07 7.01,2.26 6.92,2.45 6.77,2.60 6.62,2.75 6.43,2.84 6.24,2.93 6.03,2.96 5.82,2.99 5.61,2.95 5.40,2.91 5.21,2.81 5.03,2.70 4.89,2.54 4.75,2.38 4.66,2.19 4.58,1.99 4.56,1.78 4.54,1.57 4.60,1.36 4.65,1.16 4.76,0.98 4.88,0.80 5.04,0.67 5.21,0.53 5.41,0.46 5.61,0.39 5.82,0.38 6.03,0.38 6.24,0.44 6.44,0.50 6.61,0.63 6.78,0.75 6.91,0.92 7.03,1.10 7.09,1.30 7.15,1.50 7.15,1.72 7.14,1.93 7.07,2.13 7.00,2.33 6.86,2.49 6.73,2.66 6.55,2.77 6.37,2.89 6.16,2.94 5.96,2.99 5.96,2.99 5.96,2.99 3.53,2.37 1.10,1.76 1.71,0.86 2.32,-0.04 1.70,0.58 1.07,1.20 0.91,1.31 0.75,1.42 0.57,1.49 0.39,1.56 0.20,1.58 0.00,1.61 -0.18,1.59 -0.37,1.56 -0.56,1.50 -0.74,1.43 -0.90,1.32 -1.06,1.21 -1.19,1.06 -1.32,0.92 -1.41,0.75 -1.50,0.58 -1.55,0.39 -1.60,0.20 -1.60,0.00 -1.60,-0.18 -1.55,-0.37 -1.51,-0.56 -1.42,-0.73 -1.33,-0.90 -1.20,-1.05 -1.07,-1.20 -1.07,-1.20 L -1.07,-1.20 Z"/></g><g transform="translate(41.118403570973555 72.11416944421475) rotate(0 1.8304943277042725 -0.6148224206742725)" stroke="none"><path d="M0.01 -0.31 C-0.03 -0.45, -0.32 -1.02, 0.22 -1.16 C0.76 -1.31, 2.7 -1.33, 3.25 -1.19" stroke="none" stroke-width="0" fill="#ffffff" fill-rule="evenodd"/><path fill="#1e1e1e" d="M -0.65,-1.47 Q -0.65,-1.47 1.75,-1.76 4.16,-2.05 4.32,-1.91 4.48,-1.77 4.58,-1.58 4.68,-1.40 4.72,-1.19 4.76,-0.98 4.73,-0.77 4.70,-0.56 4.61,-0.37 4.51,-0.18 4.36,-0.03 4.21,0.11 4.02,0.21 3.83,0.30 3.62,0.33 3.41,0.35 3.20,0.31 2.99,0.27 2.80,0.17 2.62,0.06 2.48,-0.09 2.34,-0.25 2.26,-0.44 2.17,-0.64 2.16,-0.85 2.14,-1.06 2.19,-1.27 2.24,-1.47 2.36,-1.65 2.48,-1.83 2.64,-1.96 2.81,-2.10 3.01,-2.17 3.21,-2.24 3.42,-2.24 3.63,-2.25 3.84,-2.19 4.04,-2.12 4.21,-2.00 4.38,-1.87 4.51,-1.70 4.63,-1.53 4.69,-1.32 4.75,-1.12 4.74,-0.91 4.74,-0.69 4.66,-0.50 4.59,-0.30 4.45,-0.13 4.32,0.02 4.14,0.14 3.96,0.25 3.75,0.30 3.55,0.35 3.34,0.33 3.12,0.31 2.93,0.23 2.74,0.14 2.74,0.14 2.74,0.14 1.70,0.81 0.65,1.47 0.47,1.53 0.28,1.58 0.09,1.59 -0.10,1.61 -0.29,1.57 -0.48,1.54 -0.66,1.45 -0.83,1.37 -0.99,1.25 -1.14,1.13 -1.26,0.98 -1.38,0.83 -1.46,0.65 -1.54,0.47 -1.57,0.28 -1.61,0.09 -1.59,-0.09 -1.58,-0.29 -1.52,-0.47 -1.47,-0.66 -1.36,-0.83 -1.26,-0.99 -1.13,-1.13 -0.99,-1.27 -0.82,-1.37 -0.65,-1.47 -0.65,-1.47 L -0.65,-1.47 Z"/></g><g transform="translate(45.23701580830823 71.70428783043192) rotate(0 1.6016825367412508 -0.2049408068914289)" stroke="none"><path fill="#1e1e1e" d="M -0.20,-1.60 Q -0.20,-1.60 0.73,-1.56 1.67,-1.53 1.88,-1.53 2.09,-1.52 2.29,-1.44 2.49,-1.37 2.66,-1.23 2.82,-1.10 2.93,-0.92 3.05,-0.74 3.10,-0.53 3.15,-0.33 3.13,-0.11 3.11,0.09 3.02,0.28 2.94,0.48 2.79,0.63 2.65,0.79 2.47,0.89 2.28,1.00 2.07,1.03 1.86,1.07 1.65,1.04 1.44,1.01 1.25,0.92 1.06,0.82 0.91,0.67 0.76,0.52 0.67,0.33 0.58,0.13 0.55,-0.07 0.52,-0.28 0.57,-0.49 0.61,-0.69 0.71,-0.88 0.82,-1.06 0.98,-1.20 1.14,-1.34 1.33,-1.43 1.53,-1.51 1.74,-1.52 1.95,-1.54 2.16,-1.49 2.37,-1.43 2.54,-1.32 2.72,-1.20 2.85,-1.03 2.99,-0.87 3.06,-0.67 3.13,-0.47 3.13,-0.25 3.14,-0.04 3.07,0.15 3.01,0.35 2.88,0.52 2.76,0.70 2.58,0.82 2.41,0.94 2.21,1.00 2.00,1.06 2.00,1.06 2.00,1.06 1.10,1.33 0.20,1.60 0.01,1.60 -0.18,1.60 -0.37,1.55 -0.56,1.51 -0.73,1.42 -0.90,1.33 -1.05,1.20 -1.20,1.07 -1.31,0.91 -1.42,0.75 -1.49,0.57 -1.56,0.39 -1.58,0.20 -1.61,0.01 -1.59,-0.18 -1.56,-0.37 -1.50,-0.55 -1.43,-0.74 -1.32,-0.90 -1.21,-1.06 -1.07,-1.19 -0.92,-1.32 -0.75,-1.41 -0.58,-1.50 -0.39,-1.55 -0.20,-1.60 -0.20,-1.60 L -0.20,-1.60 Z"/></g><g transform="translate(50.2708752094951 72.11416944421475) rotate(0 1.6016825367412508 0)" stroke="none"><path fill="#1e1e1e" d="M 0,-1.61 Q 0,-1.61 0.92,-1.46 1.84,-1.31 2.05,-1.27 2.26,-1.24 2.44,-1.14 2.63,-1.04 2.78,-0.89 2.92,-0.73 3.01,-0.54 3.10,-0.35 3.13,-0.14 3.15,0.07 3.10,0.27 3.06,0.48 2.95,0.66 2.84,0.85 2.68,0.98 2.51,1.12 2.32,1.20 2.12,1.28 1.91,1.29 1.69,1.30 1.49,1.24 1.29,1.19 1.11,1.07 0.93,0.95 0.81,0.78 0.68,0.61 0.61,0.41 0.54,0.21 0.54,-0.00 0.54,-0.21 0.61,-0.41 0.68,-0.61 0.81,-0.78 0.93,-0.95 1.11,-1.07 1.29,-1.19 1.49,-1.24 1.70,-1.30 1.91,-1.29 2.12,-1.28 2.32,-1.20 2.51,-1.12 2.68,-0.98 2.84,-0.84 2.95,-0.66 3.06,-0.48 3.10,-0.27 3.15,-0.07 3.13,0.14 3.10,0.35 3.01,0.54 2.92,0.73 2.78,0.89 2.63,1.04 2.44,1.14 2.26,1.24 2.05,1.27 1.84,1.31 1.84,1.31 1.84,1.31 0.92,1.46 0,1.61 -0.19,1.59 -0.38,1.56 -0.56,1.49 -0.75,1.42 -0.91,1.31 -1.07,1.20 -1.19,1.06 -1.32,0.91 -1.41,0.74 -1.50,0.57 -1.55,0.38 -1.60,0.19 -1.60,-0.00 -1.60,-0.19 -1.55,-0.38 -1.50,-0.57 -1.41,-0.74 -1.32,-0.91 -1.19,-1.06 -1.07,-1.20 -0.91,-1.31 -0.74,-1.42 -0.56,-1.49 -0.38,-1.56 -0.19,-1.59 0.00,-1.61 0.00,-1.61 L 0,-1.61 Z"/></g><g transform="translate(56.219981774534176 71.70428783043192) rotate(0 0.6864353728890791 -0.2049408068914289)" stroke="none"><path fill="#1e1e1e" d="M 0.41,-1.49 Q 0.41,-1.49 0.62,-1.52 0.83,-1.54 1.04,-1.50 1.25,-1.46 1.43,-1.35 1.62,-1.25 1.76,-1.09 1.90,-0.93 1.98,-0.73 2.06,-0.54 2.08,-0.33 2.09,-0.11 2.04,0.08 1.99,0.29 1.87,0.47 1.76,0.64 1.59,0.78 1.42,0.91 1.22,0.98 1.02,1.05 0.81,1.06 0.60,1.06 0.39,1.00 0.19,0.93 0.02,0.81 -0.14,0.68 -0.26,0.51 -0.39,0.33 -0.45,0.13 -0.51,-0.06 -0.50,-0.28 -0.49,-0.49 -0.42,-0.69 -0.34,-0.89 -0.21,-1.05 -0.07,-1.22 0.10,-1.33 0.28,-1.44 0.48,-1.49 0.69,-1.54 0.90,-1.52 1.11,-1.50 1.31,-1.42 1.50,-1.33 1.66,-1.19 1.81,-1.05 1.92,-0.86 2.02,-0.67 2.06,-0.46 2.10,-0.26 2.07,-0.05 2.04,0.15 1.94,0.34 1.84,0.53 1.69,0.68 1.54,0.83 1.35,0.92 1.16,1.02 1.16,1.02 1.16,1.02 1.02,1.14 0.88,1.27 0.72,1.35 0.55,1.44 0.37,1.49 0.19,1.53 0.00,1.53 -0.17,1.53 -0.36,1.49 -0.54,1.45 -0.70,1.36 -0.87,1.27 -1.01,1.15 -1.15,1.03 -1.26,0.87 -1.36,0.72 -1.43,0.55 -1.50,0.37 -1.52,0.19 -1.55,0.00 -1.52,-0.17 -1.50,-0.36 -1.44,-0.53 -1.37,-0.71 -1.27,-0.86 -1.16,-1.02 -0.37,-1.25 L 0.41,-1.49 Z"/></g><g transform="translate(62.16908833957325 71.70428783043192) rotate(0 5.949106565039017 0.20494080689144312)" stroke="none"><path fill="#1e1e1e" d="M -0.23,-1.59 Q -0.23,-1.59 0.79,-1.58 1.82,-1.56 2.35,-0.29 2.89,0.96 2.96,-0.13 3.03,-1.23 3.89,-1.87 4.75,-2.51 5.95,-3.08 7.14,-3.65 9.66,-2.90 12.18,-2.16 12.34,-2.03 12.51,-1.89 12.63,-1.72 12.75,-1.54 12.80,-1.33 12.85,-1.13 12.84,-0.92 12.83,-0.70 12.74,-0.51 12.66,-0.31 12.52,-0.15 12.38,0.00 12.20,0.10 12.02,0.21 11.81,0.25 11.60,0.30 11.39,0.27 11.18,0.25 10.99,0.15 10.80,0.06 10.64,-0.08 10.49,-0.22 10.39,-0.41 10.30,-0.60 10.27,-0.81 10.23,-1.02 10.27,-1.23 10.31,-1.44 10.41,-1.63 10.51,-1.81 10.67,-1.96 10.82,-2.10 11.02,-2.19 11.21,-2.27 11.42,-2.29 11.64,-2.31 11.84,-2.27 12.05,-2.22 12.23,-2.11 12.41,-1.99 12.55,-1.83 12.68,-1.67 12.76,-1.47 12.83,-1.27 12.84,-1.06 12.85,-0.84 12.79,-0.64 12.73,-0.44 12.61,-0.26 12.49,-0.09 12.32,0.03 12.15,0.15 11.94,0.22 11.74,0.28 11.53,0.28 11.32,0.28 11.12,0.21 10.92,0.14 10.92,0.14 10.92,0.14 8.95,0.14 6.98,0.13 5.68,1.00 4.38,1.86 3.56,2.70 2.73,3.54 1.27,3.10 -0.18,2.66 0.57,1.87 1.32,1.09 0.78,1.34 0.23,1.59 0.04,1.60 -0.15,1.60 -0.34,1.56 -0.53,1.52 -0.70,1.43 -0.88,1.35 -1.02,1.22 -1.17,1.10 -1.29,0.94 -1.40,0.78 -1.48,0.60 -1.55,0.42 -1.58,0.23 -1.61,0.04 -1.59,-0.14 -1.57,-0.34 -1.51,-0.52 -1.44,-0.71 -1.34,-0.87 -1.23,-1.03 -1.09,-1.16 -0.95,-1.30 -0.78,-1.39 -0.61,-1.49 -0.42,-1.54 -0.23,-1.59 -0.23,-1.59 L -0.23,-1.59 Z"/></g><g transform="translate(19.610095220447647 89.32919722309464) rotate(0 -0.45762358192604324 -0.2049408068914289)" stroke="none"><path fill="#1e1e1e" d="M -1.06,0.96 Q -1.06,0.96 -1.24,0.84 -1.41,0.72 -1.54,0.56 -1.67,0.39 -1.74,0.19 -1.81,-0.00 -1.82,-0.21 -1.82,-0.43 -1.75,-0.63 -1.69,-0.83 -1.56,-1.00 -1.44,-1.17 -1.26,-1.29 -1.09,-1.42 -0.88,-1.48 -0.68,-1.53 -0.47,-1.53 -0.25,-1.52 -0.06,-1.44 0.13,-1.36 0.30,-1.23 0.46,-1.09 0.57,-0.91 0.68,-0.73 0.73,-0.52 0.78,-0.32 0.76,-0.11 0.74,0.10 0.65,0.29 0.56,0.48 0.42,0.64 0.28,0.80 0.09,0.90 -0.09,1.00 -0.30,1.04 -0.51,1.07 -0.72,1.04 -0.93,1.01 -1.11,0.91 -1.30,0.81 -1.45,0.66 -1.60,0.51 -1.69,0.32 -1.78,0.13 -1.81,-0.08 -1.83,-0.29 -1.79,-0.49 -1.75,-0.70 -1.64,-0.89 -1.53,-1.07 -1.37,-1.21 -1.21,-1.35 -1.02,-1.43 -0.82,-1.51 -0.61,-1.52 -0.39,-1.54 -0.19,-1.48 0.01,-1.43 0.01,-1.43 0.01,-1.43 0.18,-1.41 0.35,-1.39 0.51,-1.32 0.67,-1.26 0.81,-1.16 0.95,-1.06 1.07,-0.93 1.18,-0.80 1.26,-0.65 1.34,-0.49 1.38,-0.33 1.42,-0.16 1.42,0.01 1.42,0.18 1.37,0.35 1.33,0.51 1.25,0.67 1.17,0.82 1.05,0.95 0.94,1.08 0.80,1.17 0.65,1.27 0.49,1.33 0.33,1.39 0.16,1.41 -0.01,1.43 -0.53,1.19 L -1.06,0.96 Z"/></g><g transform="translate(17.77960089274336 87.27978915418043) rotate(0 3.660988655408616 -0.4098816137828578)" stroke="none"><path fill="#1e1e1e" d="M -0.13,-1.60 Q -0.13,-1.60 1.32,-1.61 2.78,-1.61 4.58,-1.71 6.38,-1.82 6.58,-1.88 6.79,-1.94 7.00,-1.93 7.21,-1.93 7.41,-1.85 7.61,-1.78 7.77,-1.64 7.94,-1.51 8.05,-1.33 8.16,-1.15 8.21,-0.94 8.26,-0.73 8.24,-0.52 8.23,-0.31 8.14,-0.12 8.05,0.07 7.91,0.22 7.77,0.38 7.58,0.49 7.40,0.59 7.19,0.63 6.98,0.66 6.77,0.63 6.56,0.60 6.37,0.51 6.18,0.41 6.03,0.26 5.88,0.11 5.79,-0.07 5.70,-0.26 5.67,-0.47 5.64,-0.68 5.68,-0.89 5.72,-1.10 5.83,-1.29 5.94,-1.47 6.10,-1.61 6.26,-1.75 6.45,-1.83 6.65,-1.92 6.86,-1.93 7.07,-1.95 7.28,-1.89 7.48,-1.84 7.66,-1.72 7.84,-1.61 7.97,-1.44 8.10,-1.28 8.17,-1.08 8.25,-0.88 8.25,-0.66 8.25,-0.45 8.19,-0.25 8.13,-0.05 8.00,0.12 7.87,0.29 7.70,0.41 7.53,0.53 7.53,0.53 7.53,0.53 5.26,0.84 3.00,1.14 1.56,1.37 0.13,1.60 -0.06,1.60 -0.25,1.59 -0.44,1.53 -0.63,1.48 -0.80,1.38 -0.96,1.29 -1.10,1.15 -1.24,1.02 -1.35,0.85 -1.45,0.69 -1.51,0.50 -1.58,0.32 -1.59,0.12 -1.61,-0.06 -1.58,-0.25 -1.55,-0.44 -1.47,-0.62 -1.39,-0.80 -1.28,-0.96 -1.16,-1.11 -1.01,-1.24 -0.86,-1.36 -0.68,-1.44 -0.51,-1.53 -0.32,-1.56 -0.13,-1.60 -0.13,-1.60 L -0.13,-1.60 Z"/></g><g transform="translate(25.10157820356062 86.46002592661466) rotate(0 4.347424028297766 0.4098816137828578)" stroke="none"><path fill="#1e1e1e" d="M 0.17,-1.60 Q 0.17,-1.60 1.22,-1.39 2.26,-1.18 3.48,-1.07 4.70,-0.96 6.53,-0.73 8.36,-0.50 8.57,-0.46 8.78,-0.42 8.96,-0.31 9.15,-0.20 9.29,-0.05 9.43,0.10 9.51,0.30 9.59,0.50 9.61,0.71 9.62,0.92 9.57,1.13 9.52,1.33 9.40,1.51 9.28,1.69 9.12,1.82 8.95,1.95 8.75,2.02 8.55,2.09 8.34,2.10 8.12,2.10 7.92,2.04 7.72,1.97 7.55,1.85 7.38,1.72 7.25,1.55 7.13,1.37 7.07,1.17 7.01,0.97 7.02,0.75 7.03,0.54 7.10,0.34 7.18,0.14 7.31,-0.01 7.45,-0.18 7.63,-0.29 7.81,-0.40 8.01,-0.45 8.22,-0.50 8.43,-0.48 8.64,-0.46 8.84,-0.37 9.03,-0.29 9.19,-0.15 9.35,-0.00 9.45,0.17 9.55,0.36 9.59,0.57 9.63,0.78 9.60,0.99 9.57,1.20 9.47,1.39 9.37,1.58 9.22,1.73 9.07,1.88 8.88,1.97 8.69,2.06 8.48,2.09 8.27,2.11 8.27,2.11 8.27,2.11 6.43,1.92 4.60,1.72 3.27,1.68 1.94,1.65 0.88,1.62 -0.17,1.60 -0.36,1.55 -0.55,1.51 -0.73,1.42 -0.90,1.33 -1.05,1.20 -1.19,1.08 -1.31,0.92 -1.42,0.76 -1.49,0.58 -1.56,0.40 -1.58,0.20 -1.61,0.01 -1.59,-0.17 -1.57,-0.37 -1.50,-0.55 -1.43,-0.73 -1.32,-0.89 -1.21,-1.05 -1.07,-1.18 -0.92,-1.31 -0.75,-1.41 -0.58,-1.50 -0.39,-1.55 -0.20,-1.60 -0.01,-1.60 0.17,-1.60 0.17,-1.60 L 0.17,-1.60 Z"/></g><g transform="translate(35.16929700593448 87.27978915418043) rotate(0 3.4321768644455943 -0.6148224206742725)" stroke="none"><path d="M-1.09 1.33 C-1.13 1.34, -0.55 0.67, -0.16 0.67 C0.22 0.66, 0 2.05, 1.21 1.3 C2.42 0.54, 6.45 -3.41, 7.09 -3.84 C7.74 -4.28, 5.14 -1.83, 5.06 -1.32" stroke="none" stroke-width="0" fill="#ffffff" fill-rule="evenodd"/><path fill="#1e1e1e" d="M 0.76,-1.42 Q 0.76,-1.42 1.37,-1.05 1.98,-0.68 3.96,-1.86 5.93,-3.03 6.08,-3.07 6.23,-3.11 6.39,-3.12 6.55,-3.12 6.70,-3.08 6.86,-3.05 7.00,-2.98 7.14,-2.91 7.26,-2.81 7.38,-2.70 7.47,-2.58 7.57,-2.45 7.63,-2.30 7.69,-2.15 7.71,-2.00 7.73,-1.84 7.72,-1.68 7.70,-1.52 7.65,-1.38 7.59,-1.23 7.51,-1.09 7.42,-0.96 7.30,-0.85 7.19,-0.75 7.05,-0.67 6.91,-0.59 7.26,-0.94 7.62,-1.28 7.50,-1.10 7.39,-0.93 7.22,-0.79 7.05,-0.66 6.85,-0.59 6.65,-0.52 6.44,-0.52 6.23,-0.51 6.03,-0.58 5.82,-0.64 5.65,-0.77 5.48,-0.89 5.36,-1.07 5.24,-1.24 5.18,-1.44 5.11,-1.65 5.12,-1.86 5.13,-2.07 5.21,-2.27 5.28,-2.47 5.42,-2.63 5.55,-2.80 5.73,-2.91 5.91,-3.02 6.12,-3.07 6.32,-3.12 6.53,-3.10 6.75,-3.08 6.94,-3.00 7.14,-2.91 7.29,-2.77 7.45,-2.63 7.55,-2.44 7.65,-2.25 7.69,-2.04 7.73,-1.84 7.70,-1.63 7.67,-1.42 7.57,-1.23 7.48,-1.04 7.33,-0.89 7.17,-0.74 6.98,-0.65 6.79,-0.55 6.58,-0.53 6.37,-0.50 6.16,-0.54 5.95,-0.58 5.77,-0.69 5.59,-0.80 5.45,-0.96 5.30,-1.12 5.22,-1.31 5.14,-1.51 5.13,-1.72 5.11,-1.93 5.52,-2.48 5.93,-3.03 6.08,-3.07 6.23,-3.11 6.39,-3.12 6.55,-3.12 6.70,-3.08 6.86,-3.05 7.00,-2.98 7.14,-2.91 7.26,-2.81 7.38,-2.70 7.47,-2.58 7.57,-2.45 7.63,-2.30 7.69,-2.15 7.71,-2.00 7.73,-1.84 7.72,-1.68 7.70,-1.52 7.65,-1.38 7.59,-1.23 7.51,-1.09 7.42,-0.96 7.30,-0.85 7.19,-0.75 7.05,-0.67 6.91,-0.59 5.60,0.52 4.30,1.64 2.47,1.87 0.64,2.09 -0.06,1.76 -0.76,1.42 -0.92,1.30 -1.08,1.19 -1.20,1.05 -1.33,0.90 -1.42,0.73 -1.51,0.55 -1.55,0.36 -1.60,0.17 -1.60,-0.01 -1.60,-0.21 -1.55,-0.39 -1.50,-0.58 -1.41,-0.75 -1.31,-0.92 -1.18,-1.07 -1.05,-1.21 -0.89,-1.32 -0.73,-1.43 -0.55,-1.50 -0.37,-1.57 -0.17,-1.59 0.01,-1.61 0.20,-1.58 0.40,-1.56 0.58,-1.49 0.76,-1.42 0.76,-1.42 L 0.76,-1.42 Z"/></g><g transform="translate(45.69463939023433 86.46002592661466) rotate(0 0.22881179096296478 0.8197632275657156)" stroke="none"><path d="M0.08 0.59 C-0.43 1.05, -2.12 1.65, -2.01 1.74 C-1.89 1.82, 0.37 1.08, 0.75 1.08" stroke="none" stroke-width="0" fill="#ffffff" fill-rule="evenodd"/><path fill="#1e1e1e" d="M 1.23,-1.03 Q 1.23,-1.03 1.51,-0.46 1.79,0.09 1.90,0.28 2.01,0.46 2.05,0.67 2.10,0.88 2.07,1.09 2.05,1.30 1.96,1.49 1.87,1.68 1.72,1.84 1.57,1.99 1.38,2.09 1.19,2.19 0.98,2.22 0.78,2.25 0.57,2.22 0.36,2.18 0.17,2.08 -0.01,1.98 -0.15,1.82 -0.30,1.67 -0.39,1.47 -0.47,1.28 -0.49,1.07 -0.52,0.86 -0.47,0.65 -0.42,0.44 -0.31,0.26 -0.20,0.08 -0.04,-0.05 0.12,-0.18 0.31,-0.26 0.51,-0.34 0.72,-0.35 0.94,-0.36 1.14,-0.30 1.34,-0.24 1.52,-0.12 1.69,-0.00 1.82,0.16 1.95,0.33 2.02,0.53 2.08,0.73 2.08,0.95 2.08,1.16 2.01,1.36 1.94,1.56 1.81,1.73 1.68,1.90 1.50,2.02 1.33,2.13 1.12,2.19 0.92,2.24 0.70,2.23 0.49,2.22 0.30,2.14 0.10,2.06 -0.05,1.92 -0.21,1.78 -0.21,1.78 -0.21,1.78 -0.72,1.41 -1.23,1.03 -1.34,0.87 -1.44,0.70 -1.51,0.52 -1.57,0.34 -1.59,0.14 -1.61,-0.04 -1.58,-0.23 -1.55,-0.42 -1.48,-0.60 -1.40,-0.78 -1.29,-0.94 -1.17,-1.10 -1.02,-1.22 -0.87,-1.35 -0.70,-1.43 -0.52,-1.52 -0.33,-1.56 -0.14,-1.60 0.04,-1.60 0.23,-1.59 0.42,-1.54 0.61,-1.49 0.78,-1.39 0.95,-1.30 1.09,-1.16 1.23,-1.03 1.23,-1.03 L 1.23,-1.03 Z"/></g><g transform="translate(48.8980044637168 88.0995523817461) rotate(0 0.6864353728891359 -0.2049408068914289)" stroke="none"><path fill="#1e1e1e" d="M 0.41,-1.49 Q 0.41,-1.49 0.62,-1.52 0.83,-1.54 1.04,-1.50 1.25,-1.46 1.43,-1.35 1.62,-1.25 1.76,-1.09 1.90,-0.93 1.98,-0.73 2.06,-0.54 2.08,-0.33 2.09,-0.11 2.04,0.08 1.99,0.29 1.87,0.47 1.76,0.64 1.59,0.78 1.42,0.91 1.22,0.98 1.02,1.05 0.81,1.06 0.60,1.06 0.39,1.00 0.19,0.93 0.02,0.81 -0.14,0.68 -0.26,0.51 -0.39,0.33 -0.45,0.13 -0.51,-0.06 -0.50,-0.28 -0.49,-0.49 -0.42,-0.69 -0.34,-0.89 -0.21,-1.05 -0.07,-1.22 0.10,-1.33 0.28,-1.44 0.48,-1.49 0.69,-1.54 0.90,-1.52 1.11,-1.50 1.31,-1.42 1.50,-1.33 1.66,-1.19 1.81,-1.05 1.92,-0.86 2.02,-0.67 2.06,-0.46 2.10,-0.26 2.07,-0.05 2.04,0.15 1.94,0.34 1.84,0.53 1.69,0.68 1.54,0.83 1.35,0.92 1.16,1.02 1.16,1.02 1.16,1.02 1.02,1.14 0.88,1.27 0.72,1.35 0.55,1.44 0.37,1.49 0.19,1.53 0.00,1.53 -0.17,1.53 -0.36,1.49 -0.54,1.45 -0.70,1.36 -0.87,1.27 -1.01,1.15 -1.15,1.03 -1.26,0.87 -1.36,0.72 -1.43,0.55 -1.50,0.37 -1.52,0.19 -1.55,0.00 -1.52,-0.17 -1.50,-0.36 -1.44,-0.53 -1.37,-0.71 -1.27,-0.86 -1.16,-1.02 -0.37,-1.25 L 0.41,-1.49 Z"/></g><g transform="translate(53.01661670105159 86.86990754039755) rotate(0 2.288117909630401 -0.8197632275657014)" stroke="none"><path d="M-0.62 -0.56 C-0.39 -1.04, -0.61 -1.3, 0.3 -1.57 C1.2 -1.85, 4.32 -2.38, 4.81 -2.2" stroke="none" stroke-width="0" fill="#ffffff" fill-rule="evenodd"/><path fill="#1e1e1e" d="M -0.94,-1.31 Q -0.94,-1.31 1.69,-1.73 4.33,-2.15 4.53,-2.10 4.74,-2.05 4.92,-1.94 5.10,-1.82 5.23,-1.66 5.37,-1.49 5.44,-1.29 5.51,-1.09 5.52,-0.88 5.53,-0.67 5.46,-0.46 5.40,-0.26 5.28,-0.09 5.15,0.07 4.98,0.20 4.81,0.32 4.61,0.39 4.40,0.45 4.19,0.44 3.98,0.44 3.78,0.37 3.58,0.29 3.41,0.16 3.25,0.03 3.13,-0.14 3.02,-0.32 2.97,-0.53 2.92,-0.73 2.93,-0.94 2.95,-1.16 3.03,-1.35 3.12,-1.55 3.26,-1.71 3.40,-1.86 3.58,-1.97 3.77,-2.07 3.98,-2.11 4.19,-2.16 4.40,-2.13 4.61,-2.10 4.80,-2.00 4.99,-1.91 5.14,-1.76 5.29,-1.61 5.38,-1.42 5.48,-1.23 5.51,-1.02 5.54,-0.81 5.50,-0.60 5.46,-0.39 5.35,-0.21 5.25,-0.02 5.09,0.11 4.93,0.25 4.74,0.34 4.54,0.42 4.33,0.44 4.12,0.46 4.12,0.46 4.12,0.46 2.53,0.88 0.94,1.31 0.76,1.40 0.59,1.49 0.41,1.54 0.22,1.59 0.02,1.60 -0.16,1.60 -0.35,1.56 -0.54,1.51 -0.71,1.43 -0.89,1.34 -1.04,1.21 -1.18,1.09 -1.30,0.93 -1.41,0.77 -1.48,0.59 -1.56,0.41 -1.58,0.22 -1.61,0.02 -1.59,-0.16 -1.57,-0.35 -1.50,-0.54 -1.44,-0.72 -1.33,-0.88 -1.22,-1.04 -1.08,-1.18 -0.93,-1.31 -0.94,-1.31 L -0.94,-1.31 Z"/></g><g transform="translate(60.79621759379495 86.46002592661466) rotate(0 2.974553282519537 0.8197632275657298)" stroke="none"><path d="M-1.08 0.07 C-0.63 -0.14, 1.04 -2.24, 2.06 -1.79 C3.08 -1.34, 4.3 1.93, 5.06 2.78" stroke="none" stroke-width="0" fill="#ffffff" fill-rule="evenodd"/><path fill="#1e1e1e" d="M 0.17,-1.60 Q 0.17,-1.60 1.24,-1.56 2.30,-1.53 4.68,-0.13 7.06,1.26 7.19,1.43 7.31,1.60 7.37,1.81 7.43,2.01 7.43,2.22 7.42,2.43 7.35,2.63 7.27,2.83 7.14,3.00 7.01,3.16 6.83,3.28 6.65,3.39 6.44,3.44 6.24,3.49 6.02,3.47 5.81,3.46 5.62,3.37 5.42,3.29 5.26,3.15 5.11,3.00 5.00,2.82 4.90,2.63 4.86,2.42 4.82,2.22 4.85,2.00 4.88,1.79 4.97,1.60 5.07,1.41 5.22,1.26 5.37,1.11 5.56,1.02 5.75,0.93 5.96,0.90 6.17,0.87 6.38,0.91 6.59,0.95 6.77,1.06 6.96,1.16 7.10,1.32 7.24,1.48 7.32,1.68 7.41,1.87 7.42,2.08 7.44,2.29 7.39,2.50 7.34,2.71 7.22,2.89 7.11,3.06 6.94,3.20 6.78,3.33 6.58,3.40 6.38,3.47 6.16,3.48 5.95,3.48 5.75,3.42 5.55,3.36 5.37,3.23 5.20,3.11 5.20,3.11 5.20,3.11 3.55,2.55 1.90,2.00 0.86,1.80 -0.17,1.60 -0.36,1.55 -0.55,1.51 -0.73,1.42 -0.90,1.33 -1.05,1.20 -1.19,1.08 -1.31,0.92 -1.42,0.76 -1.49,0.58 -1.56,0.40 -1.58,0.20 -1.61,0.01 -1.59,-0.17 -1.57,-0.37 -1.50,-0.55 -1.43,-0.73 -1.32,-0.89 -1.21,-1.05 -1.07,-1.18 -0.92,-1.31 -0.75,-1.41 -0.58,-1.50 -0.39,-1.55 -0.20,-1.60 -0.01,-1.60 0.17,-1.60 0.17,-1.60 L 0.17,-1.60 Z"/></g><g transform="translate(71.7791835600209 85.640262699049) rotate(0 2.288117909630401 -0.2049408068914289)" stroke="none"><path fill="#1e1e1e" d="M -0.20,-1.60 Q -0.20,-1.60 2.02,-1.65 4.25,-1.70 4.46,-1.68 4.67,-1.66 4.86,-1.57 5.05,-1.48 5.21,-1.33 5.36,-1.18 5.46,-1.00 5.56,-0.81 5.59,-0.60 5.63,-0.39 5.59,-0.18 5.56,0.02 5.46,0.21 5.36,0.40 5.20,0.54 5.05,0.69 4.86,0.78 4.66,0.86 4.45,0.89 4.24,0.91 4.03,0.86 3.82,0.82 3.64,0.71 3.46,0.60 3.32,0.44 3.19,0.27 3.11,0.08 3.03,-0.11 3.02,-0.32 3.01,-0.54 3.07,-0.74 3.12,-0.95 3.24,-1.12 3.36,-1.30 3.53,-1.43 3.70,-1.55 3.90,-1.62 4.10,-1.69 4.32,-1.69 4.53,-1.69 4.73,-1.62 4.93,-1.55 5.10,-1.42 5.27,-1.29 5.39,-1.12 5.51,-0.94 5.56,-0.74 5.62,-0.53 5.61,-0.32 5.60,-0.11 5.52,0.08 5.44,0.28 5.30,0.44 5.16,0.60 4.98,0.71 4.80,0.82 4.59,0.86 4.38,0.91 4.38,0.91 4.38,0.91 2.29,1.25 0.20,1.60 0.01,1.60 -0.18,1.60 -0.37,1.55 -0.56,1.51 -0.73,1.42 -0.90,1.33 -1.05,1.20 -1.20,1.07 -1.31,0.91 -1.42,0.75 -1.49,0.57 -1.56,0.39 -1.58,0.20 -1.61,0.01 -1.59,-0.18 -1.56,-0.37 -1.50,-0.55 -1.43,-0.74 -1.32,-0.90 -1.21,-1.06 -1.07,-1.19 -0.92,-1.32 -0.75,-1.41 -0.58,-1.50 -0.39,-1.55 -0.20,-1.60 -0.20,-1.60 L -0.20,-1.60 Z"/></g><g transform="translate(16.86435372889116 101.21576402279743) rotate(0 7.321977310817303 -1.4345856482399881)" stroke="none"><path fill="#1e1e1e" d="M -0.85,-1.36 Q -0.85,-1.36 0.46,-2.18 1.78,-3.00 2.76,-3.42 3.75,-3.83 5.07,-3.67 6.40,-3.50 7.71,-2.98 9.03,-2.45 12.03,-2.08 15.03,-1.70 15.20,-1.56 15.36,-1.42 15.47,-1.24 15.58,-1.06 15.62,-0.85 15.67,-0.65 15.64,-0.43 15.62,-0.22 15.53,-0.03 15.44,0.15 15.30,0.31 15.15,0.46 14.96,0.56 14.77,0.66 14.56,0.69 14.35,0.73 14.15,0.69 13.94,0.66 13.75,0.56 13.56,0.46 13.41,0.30 13.27,0.15 13.18,-0.03 13.09,-0.23 13.07,-0.44 13.04,-0.65 13.09,-0.86 13.14,-1.06 13.25,-1.24 13.36,-1.43 13.52,-1.56 13.68,-1.70 13.88,-1.78 14.08,-1.86 14.29,-1.87 14.50,-1.88 14.70,-1.82 14.91,-1.77 15.08,-1.65 15.26,-1.53 15.39,-1.36 15.52,-1.19 15.58,-0.99 15.65,-0.79 15.65,-0.57 15.65,-0.36 15.58,-0.16 15.52,0.03 15.39,0.20 15.26,0.37 15.08,0.49 14.91,0.61 14.70,0.66 14.50,0.72 14.28,0.71 14.07,0.70 13.87,0.62 13.68,0.54 13.68,0.54 13.68,0.54 11.59,0.84 9.49,1.13 7.71,0.96 5.92,0.80 4.69,0.25 3.47,-0.29 2.16,0.53 0.85,1.36 0.68,1.45 0.50,1.53 0.31,1.57 0.12,1.60 -0.07,1.60 -0.26,1.59 -0.45,1.53 -0.63,1.48 -0.80,1.38 -0.97,1.28 -1.11,1.15 -1.25,1.01 -1.35,0.85 -1.46,0.68 -1.52,0.50 -1.58,0.31 -1.59,0.12 -1.61,-0.07 -1.58,-0.26 -1.54,-0.45 -1.47,-0.63 -1.39,-0.81 -1.27,-0.96 -1.15,-1.12 -1.00,-1.24 -0.85,-1.36 -0.85,-1.36 L -0.85,-1.36 Z"/></g><g transform="translate(36.99979133363877 100.80588240901454) rotate(0 5.949106565039017 -1.2296448413485592)" stroke="none"><path fill="#1e1e1e" d="M -0.82,-1.38 Q -0.82,-1.38 0.38,-2.05 1.58,-2.71 3.38,-3.07 5.17,-3.43 6.26,-3.25 7.35,-3.07 10.06,-2.44 12.76,-1.81 12.88,-1.64 13.00,-1.46 13.06,-1.26 13.12,-1.05 13.12,-0.84 13.11,-0.63 13.03,-0.43 12.96,-0.23 12.82,-0.07 12.69,0.09 12.51,0.20 12.33,0.31 12.12,0.36 11.92,0.41 11.70,0.39 11.49,0.37 11.30,0.29 11.10,0.20 10.95,0.06 10.79,-0.08 10.69,-0.26 10.58,-0.45 10.55,-0.66 10.51,-0.87 10.54,-1.08 10.57,-1.29 10.66,-1.48 10.76,-1.66 10.91,-1.81 11.06,-1.96 11.25,-2.06 11.45,-2.15 11.66,-2.17 11.87,-2.20 12.08,-2.16 12.28,-2.12 12.47,-2.01 12.65,-1.91 12.79,-1.75 12.93,-1.59 13.02,-1.39 13.10,-1.19 13.11,-0.98 13.13,-0.77 13.08,-0.56 13.02,-0.36 12.91,-0.18 12.79,-0.00 12.62,0.12 12.46,0.25 12.26,0.32 12.06,0.39 11.84,0.40 11.63,0.40 11.43,0.34 11.23,0.27 11.05,0.15 10.88,0.02 10.88,0.02 10.88,0.02 9.59,0.28 8.30,0.53 7.02,0.48 5.74,0.43 4.44,0.16 3.14,-0.10 1.98,0.63 0.82,1.38 0.64,1.46 0.47,1.54 0.28,1.57 0.08,1.61 -0.10,1.59 -0.29,1.58 -0.48,1.52 -0.67,1.46 -0.83,1.36 -1.00,1.26 -1.13,1.12 -1.27,0.98 -1.37,0.82 -1.47,0.65 -1.53,0.46 -1.58,0.28 -1.59,0.08 -1.61,-0.10 -1.57,-0.29 -1.53,-0.48 -1.45,-0.66 -1.37,-0.84 -1.25,-0.99 -1.13,-1.14 -0.98,-1.26 -0.82,-1.38 -0.82,-1.38 L -0.82,-1.38 Z"/></g><g transform="translate(53.93186386490379 99.576237567666) rotate(0 4.347424028297766 0.6148224206742867)" stroke="none"><path fill="#1e1e1e" d="M 0.51,-1.53 Q 0.51,-1.53 1.61,-1.31 2.70,-1.09 3.79,-0.93 4.87,-0.76 6.85,-0.22 8.83,0.30 9.02,0.40 9.21,0.49 9.36,0.65 9.51,0.80 9.60,0.99 9.70,1.18 9.72,1.39 9.75,1.60 9.71,1.81 9.67,2.02 9.56,2.20 9.46,2.39 9.30,2.53 9.14,2.67 8.94,2.75 8.75,2.83 8.54,2.85 8.32,2.86 8.12,2.81 7.91,2.76 7.73,2.64 7.56,2.53 7.42,2.36 7.29,2.19 7.22,1.99 7.15,1.79 7.14,1.58 7.14,1.37 7.20,1.17 7.27,0.96 7.39,0.79 7.52,0.62 7.69,0.50 7.86,0.37 8.07,0.31 8.27,0.25 8.48,0.26 8.70,0.27 8.90,0.34 9.09,0.42 9.26,0.55 9.42,0.69 9.54,0.87 9.65,1.05 9.70,1.25 9.75,1.46 9.73,1.67 9.71,1.88 9.63,2.08 9.54,2.27 9.40,2.43 9.25,2.59 9.07,2.69 8.88,2.79 8.67,2.83 8.47,2.87 8.26,2.84 8.04,2.81 8.04,2.81 8.05,2.81 6.24,2.92 4.44,3.03 2.97,2.77 1.50,2.51 0.49,2.02 -0.51,1.53 -0.68,1.44 -0.86,1.36 -1.01,1.23 -1.16,1.11 -1.28,0.96 -1.39,0.80 -1.47,0.62 -1.55,0.44 -1.58,0.25 -1.61,0.06 -1.59,-0.13 -1.58,-0.32 -1.51,-0.51 -1.45,-0.69 -1.35,-0.85 -1.24,-1.02 -1.10,-1.15 -0.96,-1.29 -0.79,-1.38 -0.62,-1.48 -0.44,-1.53 -0.25,-1.59 -0.06,-1.60 0.13,-1.60 0.32,-1.56 0.51,-1.53 0.51,-1.53 L 0.51,-1.53 Z"/></g><g transform="translate(64.45720624920364 101.21576402279743) rotate(0 6.406730146965131 -1.639526455131417)" stroke="none"><path fill="#1e1e1e" d="M -0.73,-1.43 Q -0.73,-1.43 0.15,-1.96 1.04,-2.49 2.81,-3.35 4.59,-4.21 5.81,-3.14 7.03,-2.07 8.00,-2.88 8.97,-3.68 10.96,-2.94 12.96,-2.20 13.13,-2.08 13.31,-1.96 13.44,-1.79 13.56,-1.62 13.63,-1.41 13.70,-1.21 13.70,-1.00 13.69,-0.79 13.63,-0.59 13.56,-0.39 13.43,-0.22 13.30,-0.05 13.12,0.06 12.94,0.18 12.74,0.23 12.53,0.29 12.32,0.28 12.11,0.26 11.91,0.18 11.72,0.10 11.56,-0.02 11.39,-0.16 11.29,-0.34 11.18,-0.53 11.13,-0.73 11.09,-0.94 11.11,-1.15 11.14,-1.36 11.23,-1.56 11.32,-1.75 11.46,-1.90 11.61,-2.06 11.80,-2.16 11.99,-2.25 12.20,-2.29 12.41,-2.32 12.62,-2.28 12.83,-2.25 13.01,-2.15 13.20,-2.05 13.35,-1.89 13.49,-1.74 13.58,-1.54 13.67,-1.35 13.69,-1.14 13.71,-0.93 13.66,-0.72 13.62,-0.51 13.51,-0.33 13.40,-0.15 13.23,-0.01 13.07,0.11 12.87,0.19 12.67,0.27 12.46,0.28 12.25,0.29 12.05,0.23 11.84,0.17 11.84,0.17 11.84,0.17 10.26,0.18 8.67,0.20 7.58,0.56 6.49,0.93 5.44,-0.08 4.40,-1.09 3.52,-0.24 2.64,0.61 1.68,1.02 0.73,1.43 0.55,1.50 0.37,1.57 0.17,1.59 -0.01,1.61 -0.20,1.58 -0.40,1.56 -0.58,1.49 -0.76,1.42 -0.92,1.30 -1.08,1.19 -1.21,1.05 -1.33,0.90 -1.42,0.72 -1.51,0.55 -1.55,0.36 -1.60,0.17 -1.60,-0.01 -1.60,-0.21 -1.55,-0.39 -1.50,-0.58 -1.41,-0.75 -1.31,-0.93 -1.18,-1.07 -1.05,-1.21 -0.89,-1.32 -0.73,-1.43 -0.73,-1.43 L -0.73,-1.43 Z"/></g><g transform="translate(17.32197731081726 115.56162050519731) rotate(0 6.63554193792821 -1.4345856482399881)" stroke="none"><path fill="#1e1e1e" d="M -0.65,-1.47 Q -0.65,-1.47 0.66,-2.03 1.99,-2.60 3.01,-3.04 4.04,-3.47 5.11,-3.13 6.18,-2.78 7.87,-3.58 9.56,-4.38 11.33,-3.48 13.10,-2.58 13.30,-2.51 13.50,-2.45 13.68,-2.32 13.85,-2.20 13.97,-2.02 14.09,-1.85 14.15,-1.64 14.21,-1.44 14.20,-1.23 14.19,-1.01 14.12,-0.82 14.04,-0.62 13.91,-0.45 13.77,-0.29 13.59,-0.18 13.41,-0.07 13.20,-0.02 13.00,0.02 12.78,0.00 12.57,-0.01 12.38,-0.09 12.19,-0.18 12.03,-0.32 11.87,-0.47 11.77,-0.65 11.67,-0.84 11.63,-1.05 11.59,-1.26 11.62,-1.47 11.66,-1.68 11.75,-1.87 11.85,-2.06 12.00,-2.21 12.15,-2.35 12.34,-2.45 12.54,-2.54 12.75,-2.56 12.96,-2.59 13.17,-2.55 13.37,-2.51 13.56,-2.40 13.74,-2.29 13.88,-2.13 14.02,-1.97 14.10,-1.78 14.18,-1.58 14.20,-1.37 14.21,-1.16 14.16,-0.95 14.11,-0.74 13.99,-0.57 13.87,-0.39 13.71,-0.26 13.54,-0.13 13.34,-0.06 13.14,0.00 12.92,0.01 12.71,0.01 12.71,0.01 12.71,0.01 11.27,-0.47 9.83,-0.97 8.82,-0.58 7.81,-0.19 6.48,-0.48 5.15,-0.78 4.21,-0.26 3.26,0.24 1.96,0.86 0.65,1.47 0.47,1.53 0.28,1.58 0.09,1.59 -0.10,1.61 -0.29,1.57 -0.48,1.54 -0.66,1.45 -0.83,1.37 -0.99,1.25 -1.14,1.13 -1.26,0.98 -1.38,0.83 -1.46,0.65 -1.54,0.47 -1.57,0.28 -1.61,0.09 -1.59,-0.09 -1.58,-0.29 -1.52,-0.47 -1.47,-0.66 -1.36,-0.83 -1.26,-0.99 -1.13,-1.13 -0.99,-1.27 -0.82,-1.37 -0.65,-1.47 -0.65,-1.47 L -0.65,-1.47 Z"/></g><g transform="translate(38.372662079416955 113.10233082250022) rotate(0 5.033859401186959 -0.4098816137828578)" stroke="none"><path fill="#1e1e1e" d="M 1.51,0.56 Q 1.51,0.56 1.27,1.16 1.03,1.77 1.04,1.94 1.06,2.11 0.96,2.29 0.87,2.47 0.74,2.62 0.61,2.77 0.45,2.88 0.28,3.00 0.10,3.07 -0.08,3.14 -0.27,3.16 -0.47,3.19 -0.67,3.17 -0.87,3.14 -1.05,3.07 -1.24,3.01 -1.40,2.89 -1.57,2.78 -1.70,2.63 -1.83,2.48 -1.93,2.31 -2.02,2.13 -2.07,1.94 -2.12,1.75 -2.12,1.55 -2.12,1.35 -2.08,1.16 -2.03,0.96 -1.12,-0.22 -0.22,-1.41 0.47,-2.51 1.16,-3.61 1.21,-3.88 1.25,-4.16 1.41,-4.32 1.57,-4.48 1.76,-4.60 1.96,-4.71 2.17,-4.78 2.39,-4.85 2.61,-4.86 2.84,-4.87 3.06,-4.83 3.28,-4.79 3.49,-4.70 3.69,-4.61 3.87,-4.47 4.05,-4.33 4.19,-4.15 4.33,-3.97 4.42,-3.77 4.51,-3.56 4.55,-3.34 4.59,-3.12 4.58,-2.89 4.57,-2.67 4.50,-2.45 4.43,-2.24 4.31,-2.04 4.20,-1.85 4.95,-2.71 5.70,-3.57 6.81,-3.59 7.93,-3.62 9.78,-2.18 11.63,-0.74 11.78,-0.58 11.93,-0.43 12.01,-0.23 12.10,-0.04 12.12,0.16 12.15,0.37 12.10,0.58 12.05,0.79 11.94,0.97 11.83,1.15 11.67,1.29 11.51,1.42 11.31,1.50 11.11,1.58 10.90,1.59 10.69,1.60 10.48,1.54 10.28,1.49 10.10,1.37 9.93,1.25 9.80,1.08 9.67,0.91 9.61,0.71 9.54,0.50 9.54,0.29 9.54,0.08 9.61,-0.11 9.68,-0.31 9.81,-0.48 9.94,-0.65 10.11,-0.77 10.29,-0.89 10.49,-0.94 10.70,-1.00 10.91,-0.99 11.12,-0.98 11.32,-0.90 11.52,-0.82 11.68,-0.68 11.84,-0.54 11.95,-0.36 12.06,-0.18 12.10,0.02 12.15,0.23 12.12,0.44 12.10,0.65 12.01,0.84 11.92,1.04 11.77,1.19 11.63,1.34 11.44,1.44 11.25,1.54 11.04,1.58 10.83,1.61 10.62,1.57 10.41,1.54 10.22,1.44 10.04,1.34 10.04,1.34 10.04,1.34 8.98,0.84 7.92,0.34 6.78,0.30 5.65,0.27 4.53,0.24 3.42,0.22 2.25,-0.30 1.07,-0.83 1.16,-2.49 1.25,-4.16 1.41,-4.32 1.57,-4.48 1.76,-4.59 1.96,-4.71 2.17,-4.78 2.39,-4.85 2.61,-4.86 2.84,-4.87 3.06,-4.83 3.28,-4.79 3.49,-4.70 3.69,-4.61 3.87,-4.47 4.05,-4.33 4.19,-4.15 4.33,-3.97 4.42,-3.77 4.51,-3.56 4.55,-3.34 4.59,-3.12 4.58,-2.89 4.57,-2.67 4.50,-2.45 4.43,-2.24 4.31,-2.04 4.20,-1.85 3.85,-1.34 3.49,-0.82 2.27,0.64 1.06,2.11 0.96,2.29 0.87,2.47 0.74,2.62 0.61,2.77 0.45,2.88 0.28,3.00 0.10,3.07 -0.08,3.14 -0.27,3.16 -0.47,3.19 -0.67,3.17 -0.87,3.14 -1.05,3.07 -1.24,3.01 -1.40,2.89 -1.57,2.78 -1.70,2.63 -1.83,2.48 -1.93,2.31 -2.02,2.13 -2.07,1.94 -2.12,1.75 -2.12,1.55 -2.12,1.35 -2.08,1.16 -2.03,0.96 -2.06,1.01 -2.08,1.05 -1.80,0.24 -1.51,-0.56 -1.42,-0.73 -1.33,-0.90 -1.20,-1.05 -1.07,-1.20 -0.91,-1.31 -0.75,-1.42 -0.57,-1.49 -0.39,-1.56 -0.20,-1.58 -0.00,-1.61 0.18,-1.59 0.37,-1.56 0.55,-1.50 0.74,-1.43 0.90,-1.32 1.06,-1.21 1.19,-1.06 1.32,-0.92 1.41,-0.75 1.50,-0.58 1.55,-0.39 1.60,-0.20 1.60,-0.00 1.60,0.18 1.55,0.37 1.51,0.56 1.51,0.56 L 1.51,0.56 Z"/></g><g transform="translate(48.440380881790816 115.56162050519731) rotate(0 7.321977310817303 -0.8197632275657014)" stroke="none"><path fill="#1e1e1e" d="M -0.17,-1.60 Q -0.17,-1.60 0.87,-1.68 1.93,-1.75 3.44,-2.24 4.94,-2.74 6.15,-3.11 7.35,-3.48 8.63,-3.48 9.92,-3.48 11.04,-3.25 12.17,-3.01 12.55,-3.30 12.92,-3.59 13.10,-3.68 13.29,-3.77 13.48,-3.81 13.68,-3.85 13.88,-3.84 14.09,-3.83 14.28,-3.78 14.48,-3.72 14.65,-3.62 14.83,-3.52 14.97,-3.38 15.12,-3.24 15.23,-3.07 15.34,-2.90 15.40,-2.71 15.47,-2.52 15.48,-2.31 15.50,-2.11 15.47,-1.91 15.44,-1.71 15.36,-1.53 15.28,-1.34 15.16,-1.18 15.04,-1.02 14.88,-0.89 14.72,-0.76 15.08,-0.03 15.44,0.69 15.33,0.81 15.22,0.92 15.09,1.01 14.95,1.09 14.80,1.14 14.65,1.19 14.49,1.20 14.34,1.22 14.18,1.19 14.02,1.17 13.88,1.10 13.73,1.04 13.61,0.95 13.48,0.85 13.38,0.73 13.28,0.61 13.21,0.46 13.14,0.32 13.11,0.16 13.08,0.01 13.09,-0.14 13.09,-0.30 13.14,-0.45 13.18,-0.60 13.26,-0.74 13.34,-0.88 14.28,-0.99 15.21,-1.11 15.35,-0.95 15.50,-0.79 15.58,-0.60 15.66,-0.40 15.68,-0.19 15.70,0.01 15.65,0.22 15.60,0.42 15.48,0.60 15.37,0.78 15.20,0.91 15.04,1.05 14.84,1.12 14.64,1.19 14.43,1.20 14.21,1.21 14.01,1.14 13.81,1.08 13.63,0.96 13.46,0.83 13.34,0.66 13.21,0.49 13.15,0.28 13.09,0.08 13.09,-0.12 13.10,-0.33 13.17,-0.53 13.25,-0.73 13.38,-0.90 13.51,-1.06 13.69,-1.18 13.87,-1.29 14.08,-1.34 14.28,-1.40 14.49,-1.38 14.71,-1.36 14.90,-1.28 15.10,-1.19 15.25,-1.05 15.41,-0.91 15.52,-0.72 15.62,-0.54 15.66,-0.33 15.70,-0.12 15.67,0.08 15.65,0.29 15.55,0.48 15.46,0.67 15.31,0.82 15.16,0.97 14.97,1.06 14.78,1.16 14.57,1.19 14.35,1.22 14.15,1.18 13.94,1.14 14.69,0.91 15.44,0.69 15.33,0.81 15.22,0.92 15.09,1.01 14.95,1.09 14.80,1.14 14.65,1.19 14.49,1.20 14.34,1.22 14.18,1.19 14.02,1.17 13.88,1.10 13.73,1.04 13.61,0.95 13.48,0.85 13.38,0.73 13.28,0.61 13.21,0.46 13.14,0.32 13.11,0.16 13.08,0.01 13.09,-0.14 13.09,-0.30 13.14,-0.45 13.18,-0.60 13.26,-0.74 13.34,-0.88 13.13,-2.23 12.92,-3.59 13.10,-3.68 13.29,-3.77 13.48,-3.81 13.68,-3.85 13.88,-3.84 14.09,-3.83 14.28,-3.78 14.48,-3.72 14.65,-3.62 14.83,-3.52 14.97,-3.38 15.12,-3.24 15.23,-3.07 15.34,-2.90 15.40,-2.71 15.47,-2.52 15.48,-2.31 15.50,-2.11 15.47,-1.91 15.44,-1.71 15.36,-1.53 15.28,-1.34 15.16,-1.18 15.04,-1.02 14.88,-0.89 14.72,-0.76 14.08,-0.30 13.43,0.15 12.37,0.36 11.31,0.57 9.86,0.23 8.41,-0.10 7.17,0.13 5.94,0.37 4.10,0.82 2.27,1.28 1.22,1.44 0.17,1.60 -0.01,1.60 -0.20,1.60 -0.39,1.55 -0.58,1.50 -0.75,1.41 -0.92,1.31 -1.07,1.18 -1.21,1.05 -1.32,0.89 -1.43,0.73 -1.50,0.55 -1.57,0.37 -1.59,0.17 -1.61,-0.01 -1.58,-0.20 -1.56,-0.40 -1.49,-0.58 -1.42,-0.76 -1.31,-0.92 -1.19,-1.08 -1.05,-1.20 -0.90,-1.33 -0.73,-1.42 -0.55,-1.51 -0.36,-1.55 -0.17,-1.60 -0.17,-1.60 L -0.17,-1.60 Z"/></g><g transform="translate(69.03344206846441 114.74185727763165) rotate(0 4.11861223733473 -0.4098816137828436)" stroke="none"><path fill="#1e1e1e" d="M -1.07,-1.20 Q -1.07,-1.20 -0.58,-1.71 -0.09,-2.23 1.53,-2.38 3.15,-2.53 3.75,-1.63 4.36,-0.72 6.10,-1.21 7.83,-1.69 8.05,-1.67 8.26,-1.65 8.45,-1.57 8.65,-1.48 8.80,-1.34 8.96,-1.20 9.06,-1.01 9.17,-0.82 9.20,-0.62 9.24,-0.41 9.21,-0.20 9.18,0.00 9.08,0.19 8.99,0.38 8.84,0.53 8.68,0.68 8.49,0.77 8.30,0.87 8.09,0.89 7.88,0.92 7.67,0.88 7.46,0.84 7.28,0.73 7.10,0.62 6.96,0.46 6.82,0.30 6.73,0.11 6.65,-0.08 6.64,-0.29 6.62,-0.50 6.67,-0.71 6.73,-0.91 6.84,-1.09 6.96,-1.27 7.13,-1.40 7.29,-1.53 7.49,-1.60 7.69,-1.68 7.91,-1.68 8.12,-1.68 8.32,-1.62 8.52,-1.55 8.69,-1.43 8.87,-1.30 8.99,-1.13 9.11,-0.96 9.17,-0.75 9.23,-0.55 9.22,-0.34 9.22,-0.12 9.14,0.07 9.07,0.26 8.93,0.43 8.80,0.59 8.62,0.71 8.44,0.82 8.23,0.87 8.02,0.92 8.02,0.92 8.02,0.92 6.48,1.42 4.93,1.92 3.56,1.13 2.19,0.34 1.63,0.77 1.07,1.20 0.91,1.31 0.75,1.42 0.57,1.49 0.39,1.56 0.20,1.58 0.00,1.61 -0.18,1.59 -0.37,1.56 -0.56,1.50 -0.74,1.43 -0.90,1.32 -1.06,1.21 -1.19,1.06 -1.32,0.92 -1.41,0.75 -1.50,0.58 -1.55,0.39 -1.60,0.20 -1.60,0.00 -1.60,-0.18 -1.55,-0.37 -1.51,-0.56 -1.42,-0.73 -1.33,-0.90 -1.20,-1.05 -1.07,-1.20 -1.07,-1.20 L -1.07,-1.20 Z"/></g><g stroke-linecap="round"><g transform="translate(73.60967788772541 94.25853973922688) rotate(0 5.684341886080802e-14 -41.818892735187234)" fill-rule="evenodd"><path d="M0.35 1.35 C0.07 0.64, -0.64 -0.8, -1.95 -2.75 C-3.27 -4.69, -6.78 -7.21, -7.53 -10.32 C-8.27 -13.43, -6.33 -16.5, -6.4 -21.41 C-6.47 -26.31, -8.38 -30.57, -7.96 -39.73 C-7.54 -48.88, -5.26 -68.72, -3.9 -76.34 C-2.54 -83.95, -1.55 -84.63, 0.23 -85.44 C2.01 -86.25, 5.8 -87.31, 6.77 -81.2 C7.75 -75.09, 6.45 -56.17, 6.09 -48.8 C5.74 -41.43, 4.34 -40.84, 4.64 -36.99 C4.95 -33.14, 8.02 -28.67, 7.92 -25.7 C7.83 -22.73, 4.47 -21.41, 4.06 -19.17 C3.64 -16.93, 5.74 -15.5, 5.43 -12.26 C5.12 -9.02, 3.41 -1.39, 2.19 0.27" stroke="none" stroke-width="0" fill="#a5d8ff" fill-rule="evenodd"/><path d="M0.25 0.33 C-0.25 -0.62, -1.46 -3.66, -2.55 -5.48 C-3.65 -7.3, -5.59 -8.52, -6.31 -10.59 C-7.04 -12.66, -6.9 -13.29, -6.91 -17.91 C-6.92 -22.52, -6.84 -28.38, -6.35 -38.28 C-5.86 -48.17, -5.48 -69.81, -3.97 -77.26 C-2.45 -84.7, 0.91 -82.47, 2.74 -82.96 C4.58 -83.45, 6.51 -85.7, 7.03 -80.19 C7.56 -74.68, 5.8 -56.81, 5.9 -49.91 C6 -43.01, 7.57 -42.61, 7.64 -38.78 C7.71 -34.95, 6.65 -30.27, 6.32 -26.91 C5.98 -23.55, 5.74 -21.19, 5.63 -18.6 C5.52 -16.02, 6.7 -14.47, 5.66 -11.41 C4.62 -8.36, 0.36 -2.34, -0.61 -0.25 M-1.08 -0.54 C-1.72 -1.35, -2.13 -2.78, -3.16 -4.24 C-4.19 -5.7, -6.72 -6.71, -7.27 -9.31 C-7.81 -11.92, -6.4 -15.06, -6.45 -19.88 C-6.49 -24.7, -8.21 -28.5, -7.55 -38.25 C-6.89 -47.99, -3.77 -70.72, -2.48 -78.34 C-1.19 -85.96, -1.19 -84.11, 0.2 -83.95 C1.59 -83.8, 4.62 -83.39, 5.85 -77.43 C7.09 -71.46, 7.74 -54.54, 7.62 -48.18 C7.51 -41.81, 5.29 -42.43, 5.16 -39.23 C5.03 -36.04, 6.41 -32.89, 6.83 -29.01 C7.26 -25.13, 8.39 -18.71, 7.72 -15.95 C7.04 -13.2, 4.36 -15.04, 2.8 -12.48 C1.24 -9.91, -1.18 -2.84, -1.64 -0.57" stroke="#1e1e1e" stroke-width="1" fill="none"/></g></g><mask/><g stroke-linecap="round"><g transform="translate(72.69443072387298 19.23944126622652) rotate(0 -2.288117909630401 27.667008930342668)"><path d="M0.65 -0.56 C-0.21 8.59, -4.14 45.76, -4.94 55.26 M-0.47 1.76 C-1.54 11.08, -5.37 47.93, -6.08 56.75" stroke="#1e1e1e" stroke-width="0.5" fill="none"/></g></g><mask/><g stroke-linecap="round"><g transform="translate(75.8977957973558 19.649322880009464) rotate(0 -2.059306118667365 28.07689054412552)"><path d="M-0.36 -0.08 C-1.09 9.56, -3.17 48, -3.71 57.26 M1.65 -1.16 C0.74 8.21, -3.48 46.12, -4.44 55.72" stroke="#1e1e1e" stroke-width="0.5" fill="none"/></g></g><mask/><g stroke-linecap="round"><g transform="translate(79.78759624372753 19.034500459335135) rotate(0 -2.059306118667365 28.07689054412552)"><path d="M0.41 1.11 C-0.13 10.36, -2.87 46.3, -3.6 55.46 M-0.83 0.64 C-1.45 10.05, -3.64 47.19, -4.28 56.64" stroke="#1e1e1e" stroke-width="0.5" fill="none"/></g></g><mask/><g stroke-linecap="round"><g transform="translate(86.6731207949581 57.017351107913186) rotate(0 -30.695906929347927 37.3643495786101)"><path d="M0.52 -0.69 C-0.44 10.54, 4.84 55.79, -5.33 68.48 C-15.49 81.16, -51.09 74.54, -60.48 75.4 M-0.67 1.56 C-1.81 13.5, 3.82 58, -6.2 69.97 C-16.21 81.95, -51.54 72.71, -60.77 73.42" stroke="#d6d6d6" stroke-width="4" fill="none"/></g></g><mask/></svg>